<?xml version="1.0" encoding="utf-8"?>
<!-- Generator: Adobe Illustrator 24.0.1, SVG Export Plug-In . SVG Version: 6.00 Build 0)  -->
<svg version="1.1" id="Capa_1" xmlns="http://www.w3.org/2000/svg" xmlns:xlink="http://www.w3.org/1999/xlink" x="0px" y="0px"
	 viewBox="0 0 121.11 107.53" style="enable-background:new 0 0 121.11 107.53;" xml:space="preserve">
<style type="text/css">
	.st0{fill:#3C3C3B;}
	.st1{fill:#C00D0D;}
	.st2{fill:#FFFFFF;}
	.st3{clip-path:url(#SVGID_2_);}
	.st4{fill:#C5C5C5;}
	.st5{clip-path:url(#SVGID_4_);}
	.st6{fill:#B1B1B0;}
	.st7{clip-path:url(#SVGID_6_);fill:#B1B1B0;}
	.st8{clip-path:url(#SVGID_8_);fill:#B1B1B0;}
</style>
<g>
	<path class="st0" d="M31.97,33.51h7.12c0.64,0,1.17-0.52,1.17-1.14h0l0-14.58h-0.3l-8.5,14.42C30.98,32.93,31.24,33.51,31.97,33.51
		z"/>
	<path class="st0" d="M112.28,0H8.83C3.98,0,0.01,3.97,0.01,8.82c0,0-0.01,93.05-0.01,93.1c0,3.09,2.51,5.6,5.6,5.6
		c0.74,0,1.56-0.16,2.1-0.37c0.55-0.21,0.4-0.16,1.03-0.43c10.89-4.68,104.28-45.02,104.28-45.02c5.83-2.54,8.09-6.98,8.09-12.34
		V8.82C121.11,3.97,117.34,0,112.28,0z M71.53,9.48c2.32,0,3.75,1.6,3.8,3.69c0,1.97-1.49,3.63-3.8,3.63h-0.06
		c-2.26,0-3.76-1.65-3.76-3.63C67.71,11.08,69.26,9.48,71.53,9.48z M47.81,49.38h-5.97c-0.87,0-1.58-0.69-1.58-1.54l0-6.21
		c0-0.84-0.71-1.54-1.59-1.54H28.23c-1.19,0-1.97,0.58-2.44,1.29l-4.18,6.71c-0.47,0.71-1.43,1.29-2.45,1.29h-6.58
		c-0.87,0-1.08-0.63-0.63-1.29l24.06-37c0.5-0.78,1.12-1.29,2.16-1.29h9.64V49.38z M96.58,49.37c0,0-4.72-8.43-5.57-10.15h-0.13
		c-0.79,1.36-2.63,4.53-4.8,7.84c-1.05,1.6-2.13,2.47-5.06,2.47h-7.5c-3.14,0-5.62-2.1-5.62-5.83c0-0.02,0-15.82,0-15.82
		c0-1.41-0.92-2.31-2.26-2.31H58.5v23.78h-7.49V21.42c0-3.73,1.04-7.45,3.6-9.82c2.19-2.01,5.17-2.77,7.73-2.77
		c1.72,0,3.1,0.26,4.2,0.56l-0.51,5.59c-0.72-0.21-1.55-0.35-2.65-0.35c-3.71,0-4.94,2.42-4.94,5.96h11.09
		c3.14,0,5.62,2.11,5.62,5.83c0,0.4,0,16.63,0,16.63c0,1.49,0.98,2.35,2.04,2.35c1.16,0,1.89-0.56,2.73-1.74
		c0.71-1.01,6.37-9.25,6.37-9.25l-9.7-13.81h8.66c0,0,5.06,7.97,5.92,9.56h0.12c0.91-1.71,5.63-9.56,5.63-9.56h8.54l-9.29,13.78
		l9.47,15.01H96.58z"/>
</g>
</svg>
