<?xml version="1.0" encoding="utf-8"?>
<!-- Generator: Adobe Illustrator 24.0.1, SVG Export Plug-In . SVG Version: 6.00 Build 0)  -->
<svg version="1.1" id="Capa_1" xmlns="http://www.w3.org/2000/svg" xmlns:xlink="http://www.w3.org/1999/xlink" x="0px" y="0px"
	 viewBox="0 0 311.21 91.53" style="enable-background:new 0 0 311.21 91.53;" xml:space="preserve">
<style type="text/css">
	.st0{fill:#3C3C3B;}
	.st1{fill:#C00D0D;}
	.st2{fill:#FFFFFF;}
	.st3{clip-path:url(#SVGID_2_);}
	.st4{fill:#C5C5C5;}
	.st5{clip-path:url(#SVGID_4_);}
	.st6{fill:#B1B1B0;}
	.st7{clip-path:url(#SVGID_6_);fill:#B1B1B0;}
	.st8{clip-path:url(#SVGID_8_);fill:#B1B1B0;}
</style>
<g>
	<g>
		<g id="Layer-1_2_">
			<path class="st2" d="M207.17,1.82c-15.42,0-27.92,12.45-27.92,27.81s12.5,27.81,27.92,27.81c15.43,0,27.92-12.45,27.92-27.81
				S222.6,1.82,207.17,1.82 M207.17,48.7c-10.58,0-19.16-8.54-19.16-19.08s8.58-19.08,19.16-19.08c10.58,0,19.16,8.54,19.16,19.08
				S217.76,48.7,207.17,48.7"/>
			<path class="st2" d="M139.88,29.62c0-15.36,12.37-27.95,27.79-27.95c6.11,0,11.49,1.62,16.83,5.5c-2.21,2.3-3.96,4.68-5.23,7.16
				c-3.19-2.38-7.16-3.79-11.46-3.79c-10.58,0-19.16,8.54-19.16,19.08c0,10.54,8.58,19.08,19.16,19.08c4.17,0,8.49-1.54,11.64-3.79
				c1.36,2.57,3.04,4.84,5.04,6.81c-4.43,3.39-11.29,5.71-16.68,5.71C152.38,57.43,139.88,44.98,139.88,29.62"/>
			<path class="st2" d="M124.06,47.49h17.58c2.18,3.26,5.34,6.26,9.5,9.02h-36.14V11.73h-14.33V56.5h-9.06V11.73H81.09
				c-2.21-4.19-4.66-7.2-7.35-9.02h77.05c-3.87,2.45-6.97,5.46-9.29,9.02h-17.44v13.56h12.23c-0.44,2.78-0.37,5.5,0.12,9.02h-12.35
				L124.06,47.49L124.06,47.49z"/>
			<path class="st2" d="M237.81,2.76h9.06v44.72h18.58l0.38,9.02h-28.01V2.76z"/>
			<path class="st2" d="M24.05,0.12L48.1,56.5H38.04L24.03,23.6L9.99,56.5H0L24.05,0.12L24.05,0.12z"/>
			<path class="st2" d="M284.76,0.12l24.05,56.38h-10.06l-14.01-32.9L270.7,56.5h-9.98L284.76,0.12L284.76,0.12z"/>
			<path class="st2" d="M71.23,33.37l14,31.71H74.47L60.95,33.63l-3.44-7.81c1.56,1.73,3.19,1.89,4.97,1.82
				c3.66-0.16,6.96-3.67,6.96-8.03c0-4.37-3.8-7.91-8.49-7.91l-7.15,0.01v44.77h-8.94V2.74c0,0,15.78-0.05,16.05-0.05
				c10.07,0,18.22,7.56,18.22,16.91C79.14,25.68,76.39,30.37,71.23,33.37"/>
			<path class="st2" d="M302.42,0c-4.86,0-8.79,3.92-8.79,8.75c0,4.83,3.93,8.75,8.79,8.75c4.85,0,8.79-3.92,8.79-8.75
				C311.21,3.92,307.27,0,302.42,0 M306.8,14.36l-2.04-4.63c0.99-0.57,1.51-1.47,1.51-2.63c0-1.79-1.56-3.24-3.49-3.24
				c-0.05,0-3.36,0.01-3.36,0.01v10.29h1.72V5.58h1.65c0.9,0,1.63,0.68,1.63,1.51s-0.63,1.51-1.34,1.54
				c-0.34,0.01-0.65-0.01-0.95-0.35l0.66,1.5l2.37,5.53c-0.85,0.35-1.77,0.54-2.75,0.54c-3.94,0-7.13-3.18-7.13-7.1
				c0-3.92,3.19-7.11,7.13-7.11c3.94,0,7.13,3.18,7.13,7.11C309.55,11.03,308.47,13.05,306.8,14.36"/>
		</g>
	</g>
	<g>
		<path class="st2" d="M248.7,73c1.36,1.23,2.05,2.9,2.05,5.02c0,1.22-0.23,2.36-0.7,3.42c-0.47,1.06-1.24,1.93-2.3,2.61
			c-1.06,0.68-2.43,1.02-4.11,1.02h-2.88v6.45h-4.01V71.16h6.17C245.4,71.16,247.33,71.77,248.7,73z M245.43,80.67
			c0.46-0.34,0.79-0.74,1-1.2c0.2-0.46,0.3-0.9,0.3-1.33c0-0.72-0.21-1.42-0.64-2.09c-0.43-0.67-1.25-1.01-2.46-1.01h-2.88v6.14
			h2.85C244.36,81.18,244.97,81.01,245.43,80.67z"/>
		<path class="st2" d="M268.23,71.16v3.87h-9.88v4.35h8.75v3.87h-8.75v4.4h10.27v3.87h-14.28V71.16H268.23z"/>
		<path class="st2" d="M283.76,91.53l-4.29-6.48h-2.68v6.48h-4.01V71.16h6.17c2.53,0,4.49,0.61,5.88,1.84
			c1.39,1.23,2.09,2.9,2.09,5.02c0,1.26-0.26,2.43-0.79,3.53c-0.52,1.1-1.33,1.96-2.42,2.59l4.73,7.39H283.76z M276.79,81.18h2.85
			c1.09,0,1.88-0.32,2.38-0.95c0.5-0.64,0.75-1.32,0.75-2.06c0-0.74-0.21-1.44-0.64-2.12c-0.43-0.67-1.25-1.01-2.46-1.01h-2.88
			V81.18z"/>
		<path class="st2" d="M295.94,85.85c0.39,0.59,0.9,1.07,1.55,1.44c0.65,0.37,1.34,0.55,2.08,0.55c0.79,0,1.52-0.18,2.18-0.55
			c0.66-0.37,1.19-0.85,1.57-1.44c0.38-0.59,0.57-1.21,0.57-1.85V71.16h3.96v12.93c0,1.46-0.37,2.77-1.11,3.94
			c-0.74,1.17-1.74,2.08-3,2.74c-1.26,0.66-2.65,0.98-4.16,0.98c-1.51,0-2.9-0.33-4.15-0.98c-1.25-0.66-2.25-1.57-2.98-2.74
			c-0.73-1.17-1.09-2.49-1.09-3.94V71.16h4.01V84C295.36,84.65,295.55,85.26,295.94,85.85z M300.64,69.83h-2.35l2.16-3.73h4.29
			L300.64,69.83z"/>
	</g>
</g>
</svg>
