<?xml version="1.0" encoding="utf-8"?>
<!-- Generator: Adobe Illustrator 24.0.1, SVG Export Plug-In . SVG Version: 6.00 Build 0)  -->
<svg version="1.1" id="Capa_1" xmlns="http://www.w3.org/2000/svg" xmlns:xlink="http://www.w3.org/1999/xlink" x="0px" y="0px"
	 viewBox="0 0 21.38 18.37" style="enable-background:new 0 0 21.38 18.37;" xml:space="preserve">
<style type="text/css">
	.st0{fill:#3C3C3B;}
	.st1{fill:#C00D0D;}
	.st2{fill:#FFFFFF;}
	.st3{clip-path:url(#SVGID_2_);}
	.st4{fill:#C5C5C5;}
	.st5{clip-path:url(#SVGID_4_);}
	.st6{fill:#B1B1B0;}
	.st7{clip-path:url(#SVGID_6_);fill:#B1B1B0;}
	.st8{clip-path:url(#SVGID_8_);fill:#B1B1B0;}
</style>
<g>
	<g>
		<path class="st0" d="M20.38,18.37H1c-0.55,0-1-0.45-1-1s0.45-1,1-1h19.38c0.55,0,1,0.45,1,1S20.94,18.37,20.38,18.37z"/>
	</g>
	<g>
		<path class="st0" d="M20.38,10.18H1c-0.55,0-1-0.45-1-1s0.45-1,1-1h19.38c0.55,0,1,0.45,1,1S20.94,10.18,20.38,10.18z"/>
	</g>
	<g>
		<path class="st0" d="M20.38,2H1C0.45,2,0,1.55,0,1s0.45-1,1-1h19.38c0.55,0,1,0.45,1,1S20.94,2,20.38,2z"/>
	</g>
</g>
</svg>
