<?xml version="1.0" encoding="utf-8"?>
<!-- Generator: Adobe Illustrator 24.0.1, SVG Export Plug-In . SVG Version: 6.00 Build 0)  -->
<svg version="1.1" id="Capa_1" xmlns="http://www.w3.org/2000/svg" xmlns:xlink="http://www.w3.org/1999/xlink" x="0px" y="0px"
	 viewBox="0 0 215.93 97.77" style="enable-background:new 0 0 215.93 97.77;" xml:space="preserve">
<style type="text/css">
	.st0{fill:#3C3C3B;}
	.st1{fill:#C00D0D;}
	.st2{fill:#FFFFFF;}
	.st3{clip-path:url(#SVGID_2_);}
	.st4{fill:#C5C5C5;}
	.st5{clip-path:url(#SVGID_4_);}
	.st6{fill:#B1B1B0;}
	.st7{clip-path:url(#SVGID_6_);fill:#B1B1B0;}
	.st8{clip-path:url(#SVGID_8_);fill:#B1B1B0;}
</style>
<g>
	<path class="st0" d="M7.66,50.88c0-15.57,9.77-30.17,18.06-38.05c4.21-4,11.14-9.06,17.17-12.82H0v97.77h23.23
		C13.61,85.32,7.66,69.08,7.66,54.93V50.88z"/>
	<path class="st0" d="M196.06,64.52c-4.1,10.55-4.93,23.24-9.87,33.25h29.74V41.02C207.38,47.67,199.18,56.5,196.06,64.52z"/>
	<path class="st0" d="M49.01,41.46l-12.55,0l-3.55,2.37l0.01,13.02l5.92,0v-4.73h7.8l0,4.72h5.92l-0.01-13.02L49.01,41.46z
		 M46.64,48.56l-7.8,0l0-3.55l7.8,0V48.56z"/>
	<polygon class="st0" points="17.45,53.32 17.44,45.02 29.79,45.02 29.79,41.47 15.09,41.48 10.34,43.85 10.35,56.87 29.92,56.86 
		29.92,53.31 	"/>
	<path class="st0" d="M175.17,41.41l-13,0l-4.74,2.38l0.01,13.02l21.9-0.01l-0.01-13.02L175.17,41.41z M164.53,53.26l0-8.29l8.29,0
		l0,8.29L164.53,53.26z"/>
	<polygon class="st0" points="188.31,53.25 188.31,41.41 182.41,41.41 182.41,56.8 198.98,56.79 198.98,53.25 	"/>
	<path class="st0" d="M72.47,49.04l3.43-1.91l0-3.31l-3.55-2.37l-16.69,0.01l0.01,15.39l6.16,0l0-6.16l8.04,0l0,6.16l6.16,0l0-6.16
		L72.47,49.04z M69.86,47.61l-8.04,0v-2.61l8.04,0V47.61z"/>
	<polygon class="st0" points="141.98,53.27 141.97,44.97 154.33,44.97 154.33,41.42 139.62,41.42 134.87,43.8 134.88,56.82 
		154.45,56.81 154.45,53.26 	"/>
	<path class="st0" d="M95.62,41.44l-16.57,0.01l0.01,15.39l7.1,0l0-4.15l9.47,0l4.73-2.38l0-6.49L95.62,41.44z M86.15,49.11l0-4.12
		l7.1,0l0,4.12L86.15,49.11z"/>
	<rect x="102.58" y="41.44" class="st0" width="5.9" height="15.39"/>
	<polygon class="st0" points="126.11,41.43 126.12,50.31 116.4,41.43 111.68,41.44 111.68,56.83 117.35,56.83 117.35,48.53 
		125.88,56.82 131.8,56.82 131.8,41.43 	"/>
</g>
</svg>
