<?xml version="1.0" encoding="utf-8"?>
<!-- Generator: Adobe Illustrator 24.0.1, SVG Export Plug-In . SVG Version: 6.00 Build 0)  -->
<svg version="1.1" id="Capa_1" xmlns="http://www.w3.org/2000/svg" xmlns:xlink="http://www.w3.org/1999/xlink" x="0px" y="0px"
	 viewBox="0 0 43.46 43.46" style="enable-background:new 0 0 43.46 43.46;" xml:space="preserve">
<style type="text/css">
	.st0{fill:#C00D0D;}
	.st1{fill:#FFFFFF;}
	.st2{fill:#3C3C3B;}
</style>
<g>
	<g>
		<path class="st0" d="M0.95,43.46c-0.24,0-0.49-0.09-0.67-0.28c-0.37-0.37-0.37-0.98,0-1.35L41.83,0.28c0.37-0.37,0.98-0.37,1.35,0
			c0.37,0.37,0.37,0.98,0,1.35L1.63,43.18C1.44,43.37,1.2,43.46,0.95,43.46z"/>
	</g>
	<g>
		<path class="st0" d="M42.51,43.46c-0.24,0-0.49-0.09-0.67-0.28L0.28,1.63c-0.37-0.37-0.37-0.98,0-1.35c0.37-0.37,0.98-0.37,1.35,0
			l41.55,41.55c0.37,0.37,0.37,0.98,0,1.35C43,43.37,42.75,43.46,42.51,43.46z"/>
	</g>
</g>
</svg>
