<?xml version="1.0" encoding="utf-8"?>
<!-- Generator: Adobe Illustrator 24.0.1, SVG Export Plug-In . SVG Version: 6.00 Build 0)  -->
<svg version="1.1" id="Capa_1" xmlns="http://www.w3.org/2000/svg" xmlns:xlink="http://www.w3.org/1999/xlink" x="0px" y="0px"
	 viewBox="0 0 127.69 89.95" style="enable-background:new 0 0 127.69 89.95;" xml:space="preserve">
<style type="text/css">
	.st0{fill:#3C3C3B;}
	.st1{fill:#C00D0D;}
	.st2{fill:#FFFFFF;}
	.st3{clip-path:url(#SVGID_2_);}
	.st4{fill:#C5C5C5;}
	.st5{clip-path:url(#SVGID_4_);}
	.st6{fill:#B1B1B0;}
	.st7{clip-path:url(#SVGID_6_);fill:#B1B1B0;}
	.st8{clip-path:url(#SVGID_8_);fill:#B1B1B0;}
</style>
<g>
	<g>
		<defs>
			<path id="SVGID_1_" d="M7.1,88.86L34.31,27.4H0V9.66h57.18V22.3L29.26,88.86H7.1z"/>
		</defs>
		<clipPath id="SVGID_2_">
			<use xlink:href="#SVGID_1_"  style="overflow:visible;"/>
		</clipPath>
		<g class="st3">
			<polygon class="st4" points="-3.17,-19.92 1.27,-19.92 -128.98,128.09 -133.42,128.09 			"/>
			<polygon class="st4" points="5.71,-19.92 10.15,-19.92 -120.1,128.09 -124.54,128.09 			"/>
			<polygon class="st4" points="14.59,-19.92 19.03,-19.92 -111.22,128.09 -115.66,128.09 			"/>
			<polygon class="st4" points="23.47,-19.92 27.91,-19.92 -102.34,128.09 -106.78,128.09 			"/>
			<polygon class="st4" points="32.35,-19.92 36.79,-19.92 -93.45,128.09 -97.89,128.09 			"/>
			<polygon class="st4" points="41.23,-19.92 45.67,-19.92 -84.57,128.09 -89.01,128.09 			"/>
			<polygon class="st4" points="50.11,-19.92 54.55,-19.92 -75.69,128.09 -80.13,128.09 			"/>
			<polygon class="st4" points="58.99,-19.92 63.43,-19.92 -66.81,128.09 -71.25,128.09 			"/>
			<polygon class="st4" points="67.88,-19.92 72.32,-19.92 -57.93,128.09 -62.37,128.09 			"/>
			<polygon class="st4" points="76.76,-19.92 81.2,-19.92 -49.05,128.09 -53.49,128.09 			"/>
			<polygon class="st4" points="85.64,-19.92 90.08,-19.92 -40.17,128.09 -44.61,128.09 			"/>
			<polygon class="st4" points="94.52,-19.92 98.96,-19.92 -31.29,128.09 -35.73,128.09 			"/>
			<polygon class="st4" points="103.4,-19.92 107.84,-19.92 -22.41,128.09 -26.85,128.09 			"/>
			<polygon class="st4" points="112.28,-19.92 116.72,-19.92 -13.53,128.09 -17.97,128.09 			"/>
			<polygon class="st4" points="121.16,-19.92 125.6,-19.92 -4.65,128.09 -9.09,128.09 			"/>
			<polygon class="st4" points="130.04,-19.92 134.48,-19.92 4.23,128.09 -0.21,128.09 			"/>
			<polygon class="st4" points="138.92,-19.92 143.36,-19.92 13.11,128.09 8.67,128.09 			"/>
			<polygon class="st4" points="147.8,-19.92 152.24,-19.92 21.99,128.09 17.55,128.09 			"/>
			<polygon class="st4" points="156.68,-19.92 161.12,-19.92 30.87,128.09 26.43,128.09 			"/>
			<polygon class="st4" points="165.56,-19.92 170,-19.92 39.75,128.09 35.31,128.09 			"/>
			<polygon class="st4" points="174.44,-19.92 178.88,-19.92 48.63,128.09 44.19,128.09 			"/>
			<polygon class="st4" points="183.32,-19.92 187.76,-19.92 57.51,128.09 53.07,128.09 			"/>
			<polygon class="st4" points="192.2,-19.92 196.64,-19.92 66.4,128.09 61.95,128.09 			"/>
			<polygon class="st4" points="201.08,-19.92 205.52,-19.92 75.28,128.09 70.84,128.09 			"/>
			<polygon class="st4" points="209.96,-19.92 214.4,-19.92 84.16,128.09 79.72,128.09 			"/>
		</g>
	</g>
	<g>
		<defs>
			<path id="SVGID_3_" d="M121.94,49.32c0,14.03-2.35,24.31-7.05,30.84c-4.7,6.53-11.89,9.79-21.57,9.79
				c-9.47,0-16.6-3.41-21.41-10.22c-4.81-6.82-7.21-16.95-7.21-30.4c0-14.1,2.35-24.45,7.05-31.03c4.7-6.58,11.89-9.87,21.57-9.87
				c9.43,0,16.56,3.43,21.38,10.28C119.53,25.55,121.94,35.75,121.94,49.32z M86.01,49.32c0,8.97,0.56,15.13,1.68,18.5
				c1.12,3.36,3,5.05,5.64,5.05c2.67,0,4.56-1.74,5.66-5.21c1.1-3.47,1.65-9.58,1.65-18.33c0-8.79-0.56-14.94-1.68-18.47
				c-1.12-3.53-3-5.29-5.64-5.29c-2.64,0-4.52,1.7-5.64,5.1C86.57,34.06,86.01,40.28,86.01,49.32z"/>
		</defs>
		<clipPath id="SVGID_4_">
			<use xlink:href="#SVGID_3_"  style="overflow:visible;"/>
		</clipPath>
		<g class="st5">
			<polygon class="st6" points="-3.17,-19.92 1.27,-19.92 -128.98,128.09 -133.42,128.09 			"/>
			<polygon class="st6" points="5.71,-19.92 10.15,-19.92 -120.1,128.09 -124.54,128.09 			"/>
			<polygon class="st6" points="14.59,-19.92 19.03,-19.92 -111.22,128.09 -115.66,128.09 			"/>
			<polygon class="st6" points="23.47,-19.92 27.91,-19.92 -102.34,128.09 -106.78,128.09 			"/>
			<polygon class="st6" points="32.35,-19.92 36.79,-19.92 -93.45,128.09 -97.89,128.09 			"/>
			<polygon class="st6" points="41.23,-19.92 45.67,-19.92 -84.57,128.09 -89.01,128.09 			"/>
			<polygon class="st6" points="50.11,-19.92 54.55,-19.92 -75.69,128.09 -80.13,128.09 			"/>
			<polygon class="st6" points="58.99,-19.92 63.43,-19.92 -66.81,128.09 -71.25,128.09 			"/>
			<polygon class="st6" points="67.88,-19.92 72.32,-19.92 -57.93,128.09 -62.37,128.09 			"/>
			<polygon class="st6" points="76.76,-19.92 81.2,-19.92 -49.05,128.09 -53.49,128.09 			"/>
			<polygon class="st6" points="85.64,-19.92 90.08,-19.92 -40.17,128.09 -44.61,128.09 			"/>
			<polygon class="st6" points="94.52,-19.92 98.96,-19.92 -31.29,128.09 -35.73,128.09 			"/>
			<polygon class="st6" points="103.4,-19.92 107.84,-19.92 -22.41,128.09 -26.85,128.09 			"/>
			<polygon class="st6" points="112.28,-19.92 116.72,-19.92 -13.53,128.09 -17.97,128.09 			"/>
			<polygon class="st6" points="121.16,-19.92 125.6,-19.92 -4.65,128.09 -9.09,128.09 			"/>
			<polygon class="st6" points="130.04,-19.92 134.48,-19.92 4.23,128.09 -0.21,128.09 			"/>
			<polygon class="st6" points="138.92,-19.92 143.36,-19.92 13.11,128.09 8.67,128.09 			"/>
			<polygon class="st6" points="147.8,-19.92 152.24,-19.92 21.99,128.09 17.55,128.09 			"/>
			<polygon class="st6" points="156.68,-19.92 161.12,-19.92 30.87,128.09 26.43,128.09 			"/>
			<polygon class="st6" points="165.56,-19.92 170,-19.92 39.75,128.09 35.31,128.09 			"/>
			<polygon class="st6" points="174.44,-19.92 178.88,-19.92 48.63,128.09 44.19,128.09 			"/>
			<polygon class="st6" points="183.32,-19.92 187.76,-19.92 57.51,128.09 53.07,128.09 			"/>
			<polygon class="st6" points="192.2,-19.92 196.64,-19.92 66.4,128.09 61.95,128.09 			"/>
			<polygon class="st6" points="201.08,-19.92 205.52,-19.92 75.28,128.09 70.84,128.09 			"/>
			<polygon class="st6" points="209.96,-19.92 214.4,-19.92 84.16,128.09 79.72,128.09 			"/>
		</g>
	</g>
	<g>
		<g>
			<path class="st1" d="M13.02,81.46L40.22,20H5.92V2.26h57.18V14.9L35.18,81.46H13.02z"/>
			<path class="st2" d="M35.68,82.2H11.88l27.21-61.46H5.18V1.52h58.66v13.53L35.68,82.2z M14.16,80.72h20.54l27.66-65.97V3H6.66
				v16.26h34.7L14.16,80.72z"/>
		</g>
		<g>
			<path class="st1" d="M127.86,41.92c0,14.03-2.35,24.31-7.05,30.84c-4.7,6.53-11.89,9.79-21.57,9.79
				c-9.47,0-16.6-3.41-21.41-10.23c-4.81-6.82-7.21-16.95-7.21-30.4c0-14.1,2.35-24.45,7.05-31.03c4.7-6.58,11.89-9.87,21.57-9.87
				c9.43,0,16.56,3.43,21.38,10.28C125.45,18.15,127.86,28.35,127.86,41.92z M91.93,41.92c0,8.97,0.56,15.13,1.68,18.5
				c1.12,3.36,3,5.04,5.64,5.04c2.67,0,4.56-1.74,5.66-5.21c1.1-3.47,1.65-9.58,1.65-18.33c0-8.79-0.56-14.94-1.68-18.47
				c-1.12-3.53-3-5.29-5.64-5.29c-2.64,0-4.52,1.7-5.64,5.1C92.49,26.65,91.93,32.88,91.93,41.92z"/>
			<path class="st2" d="M99.24,83.29c-9.68,0-17.08-3.55-22.01-10.54c-4.87-6.91-7.34-17.28-7.34-30.83
				c0-14.19,2.42-24.78,7.18-31.46C81.89,3.7,89.35,0.27,99.24,0.27c9.64,0,17.04,3.56,21.98,10.59c4.89,6.95,7.37,17.39,7.37,31.05
				c0,14.12-2.42,24.65-7.19,31.27C116.59,79.89,109.13,83.29,99.24,83.29z M99.24,1.76c-9.39,0-16.44,3.22-20.97,9.56
				c-4.58,6.42-6.91,16.72-6.91,30.6c0,13.24,2.38,23.32,7.07,29.98c4.64,6.58,11.63,9.91,20.8,9.91c9.39,0,16.44-3.19,20.97-9.48
				c4.58-6.37,6.91-16.6,6.91-30.41c0-13.34-2.39-23.5-7.1-30.2C115.36,5.11,108.37,1.76,99.24,1.76z M99.24,66.2
				c-2.98,0-5.11-1.87-6.34-5.55c-1.16-3.47-1.72-9.6-1.72-18.73c0-9.21,0.56-15.39,1.72-18.89c1.23-3.72,3.36-5.61,6.34-5.61
				c2.98,0,5.12,1.95,6.34,5.81c1.14,3.58,1.71,9.87,1.71,18.69c0,8.79-0.57,15.03-1.69,18.56C104.4,64.27,102.26,66.2,99.24,66.2z
				 M99.24,18.9c-2.3,0-3.92,1.5-4.93,4.59c-1.09,3.31-1.64,9.51-1.64,18.43c0,8.85,0.55,14.99,1.64,18.26
				c1.02,3.05,2.63,4.54,4.93,4.54c2.33,0,3.96-1.53,4.96-4.69c1.07-3.38,1.62-9.48,1.62-18.11c0-8.67-0.55-14.81-1.65-18.25
				C103.15,20.46,101.54,18.9,99.24,18.9z"/>
		</g>
	</g>
</g>
</svg>
