<?xml version="1.0" encoding="utf-8"?>
<!-- Generator: Adobe Illustrator 24.0.1, SVG Export Plug-In . SVG Version: 6.00 Build 0)  -->
<svg version="1.1" id="Capa_1" xmlns="http://www.w3.org/2000/svg" xmlns:xlink="http://www.w3.org/1999/xlink" x="0px" y="0px"
	 viewBox="0 0 92.85 100.31" style="enable-background:new 0 0 92.85 100.31;" xml:space="preserve">
<style type="text/css">
	.st0{fill:#3C3C3B;}
	.st1{fill:#C00D0D;}
	.st2{fill:#FFFFFF;}
	.st3{clip-path:url(#SVGID_2_);}
	.st4{fill:#C5C5C5;}
	.st5{clip-path:url(#SVGID_4_);}
	.st6{fill:#B1B1B0;}
	.st7{clip-path:url(#SVGID_6_);fill:#B1B1B0;}
	.st8{clip-path:url(#SVGID_8_);fill:#B1B1B0;}
</style>
<g>
	<g>
		<defs>
			<path id="SVGID_1_" d="M129.76,90.73l27.21-61.46h-34.31V11.53h57.18v12.64l-27.91,66.56H129.76z"/>
		</defs>
		<clipPath id="SVGID_2_">
			<use xlink:href="#SVGID_1_"  style="overflow:visible;"/>
		</clipPath>
		<g class="st3">
			<polygon class="st4" points="119.49,-18.05 123.93,-18.05 -6.32,129.96 -10.76,129.96 			"/>
			<polygon class="st4" points="128.37,-18.05 132.81,-18.05 2.56,129.96 -1.88,129.96 			"/>
			<polygon class="st4" points="137.25,-18.05 141.69,-18.05 11.44,129.96 7,129.96 			"/>
			<polygon class="st4" points="146.13,-18.05 150.57,-18.05 20.32,129.96 15.88,129.96 			"/>
			<polygon class="st4" points="155.01,-18.05 159.45,-18.05 29.2,129.96 24.76,129.96 			"/>
			<polygon class="st4" points="163.89,-18.05 168.33,-18.05 38.08,129.96 33.64,129.96 			"/>
			<polygon class="st4" points="172.77,-18.05 177.21,-18.05 46.96,129.96 42.52,129.96 			"/>
			<polygon class="st4" points="181.65,-18.05 186.09,-18.05 55.85,129.96 51.41,129.96 			"/>
			<polygon class="st4" points="190.53,-18.05 194.97,-18.05 64.73,129.96 60.29,129.96 			"/>
			<polygon class="st4" points="199.41,-18.05 203.85,-18.05 73.61,129.96 69.17,129.96 			"/>
			<polygon class="st4" points="208.29,-18.05 212.73,-18.05 82.49,129.96 78.05,129.96 			"/>
			<polygon class="st4" points="217.18,-18.05 221.62,-18.05 91.37,129.96 86.93,129.96 			"/>
		</g>
	</g>
	<g>
		<defs>
			<path id="SVGID_3_" d="M244.6,51.18c0,14.03-2.35,24.31-7.05,30.84c-4.7,6.53-11.89,9.79-21.57,9.79
				c-9.47,0-16.6-3.41-21.41-10.22c-4.81-6.82-7.21-16.95-7.21-30.4c0-14.1,2.35-24.45,7.05-31.03c4.7-6.58,11.89-9.87,21.57-9.87
				c9.43,0,16.56,3.43,21.38,10.28C242.18,27.42,244.6,37.62,244.6,51.18z M208.67,51.18c0,8.97,0.56,15.13,1.68,18.5
				c1.12,3.36,3,5.05,5.64,5.05c2.67,0,4.56-1.74,5.66-5.21c1.1-3.47,1.65-9.58,1.65-18.33c0-8.79-0.56-14.94-1.68-18.47
				c-1.12-3.53-3-5.29-5.64-5.29c-2.64,0-4.52,1.7-5.64,5.1C209.22,35.92,208.67,42.14,208.67,51.18z"/>
		</defs>
		<clipPath id="SVGID_4_">
			<use xlink:href="#SVGID_3_"  style="overflow:visible;"/>
		</clipPath>
		<g class="st5">
			<polygon class="st6" points="119.49,-18.05 123.93,-18.05 -6.32,129.96 -10.76,129.96 			"/>
			<polygon class="st6" points="128.37,-18.05 132.81,-18.05 2.56,129.96 -1.88,129.96 			"/>
			<polygon class="st6" points="137.25,-18.05 141.69,-18.05 11.44,129.96 7,129.96 			"/>
			<polygon class="st6" points="146.13,-18.05 150.57,-18.05 20.32,129.96 15.88,129.96 			"/>
			<polygon class="st6" points="155.01,-18.05 159.45,-18.05 29.2,129.96 24.76,129.96 			"/>
			<polygon class="st6" points="163.89,-18.05 168.33,-18.05 38.08,129.96 33.64,129.96 			"/>
			<polygon class="st6" points="172.77,-18.05 177.21,-18.05 46.96,129.96 42.52,129.96 			"/>
			<polygon class="st6" points="181.65,-18.05 186.09,-18.05 55.85,129.96 51.41,129.96 			"/>
			<polygon class="st6" points="190.53,-18.05 194.97,-18.05 64.73,129.96 60.29,129.96 			"/>
			<polygon class="st6" points="199.41,-18.05 203.85,-18.05 73.61,129.96 69.17,129.96 			"/>
			<polygon class="st6" points="208.29,-18.05 212.73,-18.05 82.49,129.96 78.05,129.96 			"/>
			<polygon class="st6" points="217.18,-18.05 221.62,-18.05 91.37,129.96 86.93,129.96 			"/>
		</g>
	</g>
</g>
<g>
	<g>
		<path class="st1" d="M84.64,46.94H8.21L0,63.36h7.43v36.95h78V63.36h7.43L84.64,46.94z M82.1,51.05l4.11,8.21H53.85l-4.11-8.21
			H82.1z M10.75,51.05H43.1L39,59.26H6.64L10.75,51.05z M81.32,96.2H48.48V81.84h-4.11V96.2H11.53V63.36h30l2.84-5.67v17.99h4.11
			V57.69l2.84,5.67h30V96.2z"/>
		<path class="st1" d="M15.64,79.78h12.32v4.11H15.64V79.78z"/>
		<path class="st1" d="M15.64,87.99h12.32v4.11H15.64V87.99z"/>
		<path class="st1" d="M32.06,87.99h4.11v4.11h-4.11V87.99z"/>
		<path class="st1" d="M40.31,21.54l6.12-1.56l6.12,1.56l0.48-6.57l3.25-5.55l-5.75-2.49l-4.1-5.07l-4.1,5.07l-5.75,2.49l3.25,5.55
			L40.31,21.54z M43.98,9.1l2.45-3.03l2.45,3.03l3.6,1.56l-2.05,3.5l-0.29,4.03l-3.7-0.94l-3.7,0.94l-0.29-4.03l-2.05-3.5L43.98,9.1
			z"/>
		<path class="st1" d="M19.91,24.24l1.92-3.29l-3.41-1.48l-2.46-3.04l-2.46,3.04l-3.41,1.48l1.92,3.29l0.28,3.92l3.66-0.93
			l3.66,0.93L19.91,24.24z M17.32,23.43l-0.1,1.38l-1.25-0.32l-1.25,0.32l-0.1-1.38l-0.72-1.24l1.26-0.55l0.81-1l0.81,1l1.26,0.55
			L17.32,23.43z"/>
		<path class="st1" d="M80.83,24.24l1.92-3.29l-3.41-1.48l-2.46-3.04l-2.46,3.04l-3.41,1.48l1.92,3.29l0.28,3.92l3.66-0.93
			l3.66,0.93L80.83,24.24z M78.23,23.43l-0.1,1.38l-1.25-0.32l-1.25,0.32l-0.1-1.38l-0.72-1.24l1.26-0.55l0.81-1l0.81,1l1.26,0.55
			L78.23,23.43z"/>
		<path class="st1" d="M21.85,31.56c2.52,1.68,4.76,3.73,6.65,6.1l5.25,6.55l-1.08-8.68c-0.57-4.53-2.99-8.7-6.64-11.44l-1.27-0.95
			l-3.88,7.76L21.85,31.56z M25.67,27.25c2.24,2.12,3.76,4.94,4.28,7.99c-1.67-1.96-3.57-3.71-5.66-5.22L25.67,27.25z"/>
		<path class="st1" d="M60.18,35.54l-1.08,8.68l5.25-6.56c1.89-2.37,4.13-4.42,6.65-6.1l0.97-0.65l-3.88-7.76l-1.27,0.95
			C63.17,26.84,60.75,31.01,60.18,35.54z M68.56,30.02c-2.09,1.51-3.99,3.26-5.66,5.22c0.52-3.05,2.04-5.87,4.28-7.99L68.56,30.02z"
			/>
		<path class="st1" d="M51.72,45.02h2.65v-5.55c0-6.36,2.24-12.55,6.32-17.44l-2.04-1.7c-4.47,5.36-6.93,12.16-6.93,19.13V45.02z"/>
		<path class="st1" d="M60.99,15.89h2.65v2.65h-2.65V15.89z"/>
		<path class="st1" d="M64.96,10.59h2.65v2.65h-2.65V10.59z"/>
		<path class="st1" d="M38.48,45.02h2.65v-5.55c0-6.98-2.46-13.77-6.93-19.13l-2.04,1.7c4.07,4.89,6.31,11.08,6.31,17.44V45.02z"/>
		<path class="st1" d="M29.21,15.89h2.65v2.65h-2.65V15.89z"/>
		<path class="st1" d="M25.24,10.59h2.65v2.65h-2.65V10.59z"/>
		<path class="st1" d="M45.1,22.51h2.65v2.65H45.1V22.51z"/>
		<path class="st1" d="M45.1,27.81h2.65v17.21H45.1V27.81z"/>
		<path class="st1" d="M78.2,0h2.65v2.65H78.2V0z"/>
		<path class="st1" d="M78.2,5.3h2.65v2.65H78.2V5.3z"/>
		<path class="st1" d="M80.85,2.65h2.65V5.3h-2.65V2.65z"/>
		<path class="st1" d="M75.56,2.65h2.65V5.3h-2.65V2.65z"/>
		<path class="st1" d="M8.02,0h2.65v2.65H8.02V0z"/>
		<path class="st1" d="M8.02,5.3h2.65v2.65H8.02V5.3z"/>
		<path class="st1" d="M10.67,2.65h2.65V5.3h-2.65V2.65z"/>
		<path class="st1" d="M5.37,2.65h2.65V5.3H5.37V2.65z"/>
	</g>
</g>
</svg>
