<?xml version="1.0" encoding="utf-8"?>
<!-- Generator: Adobe Illustrator 24.0.1, SVG Export Plug-In . SVG Version: 6.00 Build 0)  -->
<svg version="1.1" id="Capa_1" xmlns="http://www.w3.org/2000/svg" xmlns:xlink="http://www.w3.org/1999/xlink" x="0px" y="0px"
	 viewBox="0 0 203.06 94.97" style="enable-background:new 0 0 203.06 94.97;" xml:space="preserve">
<style type="text/css">
	.st0{fill:#3C3C3B;}
	.st1{fill:#C00D0D;}
	.st2{fill:#FFFFFF;}
	.st3{clip-path:url(#SVGID_2_);}
	.st4{fill:#C5C5C5;}
	.st5{clip-path:url(#SVGID_4_);}
	.st6{fill:#B1B1B0;}
	.st7{clip-path:url(#SVGID_6_);fill:#B1B1B0;}
	.st8{clip-path:url(#SVGID_8_);fill:#B1B1B0;}
</style>
<g>
	
		<rect x="93.58" y="55.05" transform="matrix(0.9923 -0.1236 0.1236 0.9923 -5.9053 17.755)" class="st0" width="93.09" height="2.84"/>
	<path class="st0" d="M48.5,27.59L6.96,32.76v0l6.94,55.68l11.81-1.47l-3-24.08l29.73-3.7L48.5,27.59z M21.24,51.12l-1-8.02
		l17.92-2.23l1,8.02L21.24,51.12z"/>
	<polygon class="st0" points="68.03,69.42 62.6,25.83 50.79,27.3 57.69,82.7 94.21,78.14 92.73,66.34 	"/>
	<polygon class="st0" points="111.09,28.27 111.79,33.9 90.93,36.49 93.68,58.68 122.85,55.05 121.81,46.76 100.95,49.36 
		100.24,43.73 121.11,41.13 118.36,18.94 89.19,22.57 90.22,30.86 	"/>
	<path class="st0" d="M122.59,33.92l3.08,2.29l-2.41,3.1l1.93,15.5l29.18-3.63l-1.9-15.27l-3.2-2.42l2.5-3.18l-1.9-15.29
		l-29.19,3.63h0L122.59,33.92z M145.06,43.92l-12.6,1.57l-0.7-5.63l12.61-1.57L145.06,43.92z M142.62,24.34l0.7,5.63l-12.6,1.57
		l-0.7-5.63L142.62,24.34z"/>
	<polygon class="st0" points="175.86,34.32 176.56,39.98 155.69,42.55 156.72,50.84 185.88,47.21 183.12,25.02 162.25,27.62 
		161.55,21.99 182.42,19.39 181.34,11.11 152.23,14.73 154.99,36.92 	"/>
</g>
<path class="st0" d="M200.27,0H2.79H0v2.78v89.4v2.79h2.79h197.49h2.78v-2.79V2.78V0H200.27z M2.79,23.82L171.84,2.78h10.67
	c1.16,0.8,1.99,2.06,2.18,3.57l7.32,58.87c0.35,2.81-1.64,5.37-4.46,5.72L19.7,92.18H2.79V23.82z"/>
</svg>
