<?xml version="1.0" encoding="utf-8"?>
<!-- Generator: Adobe Illustrator 24.0.1, SVG Export Plug-In . SVG Version: 6.00 Build 0)  -->
<svg version="1.1" id="Capa_1" xmlns="http://www.w3.org/2000/svg" xmlns:xlink="http://www.w3.org/1999/xlink" x="0px" y="0px"
	 viewBox="0 0 294.42 81.73" style="enable-background:new 0 0 294.42 81.73;" xml:space="preserve">
<style type="text/css">
	.st0{fill:#3C3C3B;}
	.st1{fill:#C00D0D;}
	.st2{fill:#FFFFFF;}
	.st3{clip-path:url(#SVGID_2_);}
	.st4{fill:#C5C5C5;}
	.st5{clip-path:url(#SVGID_4_);}
	.st6{fill:#B1B1B0;}
	.st7{clip-path:url(#SVGID_6_);fill:#B1B1B0;}
	.st8{clip-path:url(#SVGID_8_);fill:#B1B1B0;}
</style>
<g>
	<g id="Layer-1_3_">
		<path class="st0" d="M60.28,78.34h0.98V67.83h-0.98V78.34z M63.89,78.34h0.89v-3.43c0-1.89,1.06-2.81,2.38-2.81
			c1.41,0,1.72,1.08,1.72,2.2v4.04h0.89v-4.08c0-1.5-0.48-2.96-2.61-2.96c-1.12,0-1.99,0.62-2.35,1.38h-0.04
			c-0.03-0.13-0.04-0.7-0.06-1.2h-0.89c0,0.35,0.07,1.42,0.07,1.93L63.89,78.34L63.89,78.34z M72.15,78.34h0.89v-3.43
			c0-1.89,1.06-2.81,2.38-2.81c1.41,0,1.72,1.08,1.72,2.2v4.04h0.89v-4.08c0-1.5-0.48-2.96-2.61-2.96c-1.11,0-1.99,0.62-2.35,1.38
			h-0.04c-0.03-0.13-0.05-0.7-0.06-1.2h-0.89c0,0.35,0.07,1.42,0.07,1.93L72.15,78.34L72.15,78.34z M80.02,74.91
			c0,2.09,1.5,3.61,3.61,3.61c2.11,0,3.61-1.52,3.61-3.61c0-2.1-1.5-3.61-3.61-3.61C81.53,71.3,80.02,72.82,80.02,74.91
			 M80.92,74.91c0-1.55,1.04-2.81,2.72-2.81s2.72,1.26,2.72,2.81c0,1.55-1.04,2.81-2.72,2.81S80.92,76.46,80.92,74.91 M91.08,78.34
			H92l2.71-6.86H93.8l-2.23,5.9l-2.28-5.9h-1.01L91.08,78.34z M101.45,73.78c0-1.74-1.07-2.48-2.73-2.48
			c-0.89,0-1.96,0.34-2.61,0.97l0.52,0.61c0.61-0.52,1.29-0.77,2.1-0.77c1.1,0,1.93,0.48,1.93,1.66v0.42H99.6
			c-1.35,0-3.8,0.21-3.8,2.3c0,1.46,1.25,2.04,2.42,2.04c1.16,0,1.9-0.42,2.41-1.29h0.03c0,0.38,0.03,0.77,0.09,1.11h0.83
			c-0.11-0.79-0.14-1.55-0.14-2.88L101.45,73.78L101.45,73.78z M100.65,74.9v0.46c0,1.14-0.49,2.36-2.39,2.36
			c-0.74,0-1.56-0.43-1.56-1.28c0-1.17,1.48-1.55,2.97-1.55H100.65z M108.89,76.77c-0.46,0.56-1.1,0.95-1.84,0.95
			c-1.68,0-2.72-1.26-2.72-2.81c0-1.55,1.04-2.81,2.72-2.81c0.71,0,1.32,0.35,1.84,0.92l0.71-0.53c-0.67-0.76-1.56-1.19-2.55-1.19
			c-2.11,0-3.61,1.52-3.61,3.61c0,2.09,1.5,3.61,3.61,3.61c0.98,0,1.86-0.39,2.53-1.19L108.89,76.77L108.89,76.77z M111.12,78.34
			h0.89v-6.86h-0.89V78.34z M110.9,68.76c0,0.37,0.3,0.67,0.67,0.67c0.37,0,0.67-0.3,0.67-0.67c0-0.37-0.3-0.67-0.67-0.67
			C111.19,68.1,110.9,68.39,110.9,68.76 M114.15,74.91c0,2.09,1.5,3.61,3.61,3.61c2.11,0,3.61-1.52,3.61-3.61
			c0-2.1-1.5-3.61-3.61-3.61C115.65,71.3,114.15,72.82,114.15,74.91 M115.04,74.91c0-1.55,1.04-2.81,2.72-2.81
			c1.68,0,2.72,1.26,2.72,2.81c0,1.55-1.04,2.81-2.72,2.81C116.08,77.72,115.04,76.46,115.04,74.91 M116.9,69.97h0.74l1.99-2.14
			h-1.19L116.9,69.97z M123.36,78.34h0.89v-3.43c0-1.89,1.05-2.81,2.38-2.81c1.41,0,1.72,1.08,1.72,2.2v4.04h0.89v-4.08
			c0-1.5-0.48-2.96-2.61-2.96c-1.11,0-1.99,0.62-2.35,1.38h-0.04c-0.03-0.13-0.04-0.7-0.06-1.2h-0.89c0,0.35,0.07,1.42,0.07,1.93
			L123.36,78.34L123.36,78.34z M135.29,81.73h0.89v-4.59h0.03c0.55,0.95,1.73,1.38,2.75,1.38c2.11,0,3.61-1.52,3.61-3.61
			c0-2.1-1.5-3.61-3.61-3.61c-1.02,0-2.2,0.43-2.75,1.38h-0.03v-1.2h-0.89V81.73z M136.09,74.91c0-1.55,1.25-2.81,2.87-2.81
			c1.68,0,2.72,1.26,2.72,2.81c0,1.55-1.04,2.81-2.72,2.81C137.34,77.72,136.09,76.46,136.09,74.91 M149.89,73.78
			c0-1.74-1.07-2.48-2.73-2.48c-0.89,0-1.96,0.34-2.62,0.97l0.52,0.61c0.61-0.52,1.29-0.77,2.09-0.77c1.1,0,1.93,0.48,1.93,1.66
			v0.42h-1.04c-1.35,0-3.8,0.21-3.8,2.3c0,1.46,1.25,2.04,2.42,2.04c1.16,0,1.9-0.42,2.41-1.29h0.03c0,0.38,0.03,0.77,0.09,1.11
			h0.83c-0.11-0.79-0.14-1.55-0.14-2.88V73.78L149.89,73.78z M149.09,74.9v0.46c0,1.14-0.49,2.36-2.39,2.36
			c-0.74,0-1.56-0.43-1.56-1.28c0-1.17,1.48-1.55,2.97-1.55H149.09L149.09,74.9z M152.27,78.34h0.89V74.6c0-1.34,0.7-2.41,2.24-2.41
			c0.09,0,0.21,0.01,0.34,0.06l0.1-0.88c-0.18-0.05-0.34-0.07-0.52-0.07c-1.03,0-1.74,0.58-2.19,1.38c-0.03-0.13-0.04-0.7-0.06-1.2
			h-0.89c0,0.35,0.07,1.42,0.07,1.93V78.34z M162.55,73.78c0-1.74-1.07-2.48-2.73-2.48c-0.89,0-1.96,0.34-2.61,0.97l0.52,0.61
			c0.61-0.52,1.29-0.77,2.09-0.77c1.1,0,1.93,0.48,1.93,1.66v0.42h-1.04c-1.35,0-3.8,0.21-3.8,2.3c0,1.46,1.25,2.04,2.42,2.04
			c1.16,0,1.9-0.42,2.41-1.29h0.03c0,0.38,0.03,0.77,0.09,1.11h0.83c-0.11-0.79-0.14-1.55-0.14-2.88V73.78L162.55,73.78z
			 M161.75,74.9v0.46c0,1.14-0.49,2.36-2.39,2.36c-0.75,0-1.56-0.43-1.56-1.28c0-1.17,1.48-1.55,2.97-1.55H161.75L161.75,74.9z
			 M168.79,78.34h0.89V74.6c0-1.34,0.7-2.41,2.24-2.41c0.09,0,0.21,0.01,0.34,0.06l0.1-0.88c-0.18-0.05-0.34-0.07-0.52-0.07
			c-1.02,0-1.74,0.58-2.18,1.38c-0.03-0.13-0.04-0.7-0.06-1.2h-0.89c0,0.35,0.07,1.42,0.07,1.93L168.79,78.34L168.79,78.34z
			 M178.88,76.5c-0.45,0.75-1.4,1.22-2.3,1.22c-2.08,0-2.6-1.84-2.6-2.58h5.77v-0.62c0-1.59-1.12-3.21-3.23-3.21
			c-2.01,0-3.43,1.55-3.43,3.6c0,2.12,1.38,3.63,3.48,3.63c1.22,0,2.27-0.43,2.97-1.47L178.88,76.5L178.88,76.5z M173.97,74.33
			c0-0.35,0.55-2.23,2.5-2.23c1.32,0,2.37,1.01,2.37,2.23H173.97z M180.96,77.13c0.53,0.95,1.59,1.4,2.76,1.4
			c1.31,0,2.48-0.71,2.48-2.12c0-2.78-4.07-1.34-4.07-3.19c0-0.71,0.82-1.1,1.45-1.1c0.8,0,1.28,0.34,1.62,0.96l0.8-0.47
			c-0.45-0.88-1.31-1.29-2.42-1.29c-1.13,0-2.35,0.64-2.35,1.97c0,2.62,4.07,1.29,4.07,3.18c0,0.79-0.8,1.26-1.58,1.26
			c-0.8,0-1.62-0.4-1.99-1.13L180.96,77.13L180.96,77.13z M193.86,71.48h-0.89v3.43c0,1.88-1.06,2.81-2.37,2.81
			c-1.41,0-1.73-1.08-1.73-2.2v-4.04h-0.89v4.08c0,1.5,0.48,2.96,2.62,2.96c1.11,0,1.99-0.63,2.35-1.38h0.04
			c0.03,0.13,0.04,0.7,0.06,1.2h0.89c0-0.35-0.07-1.43-0.07-1.93V71.48z M196.46,78.34h0.89V67.12h-0.89V78.34z M203.24,71.48h-1.96
			v-1.98h-0.89v1.98h-1.48v0.8h1.48v4.47c0,0.98,0.49,1.77,1.77,1.77c0.34,0,0.83-0.12,1.16-0.24l-0.07-0.81
			c-0.31,0.13-0.67,0.24-1.01,0.24c-0.6,0-0.95-0.36-0.95-0.96v-4.47h1.96V71.48z M210.16,73.78c0-1.74-1.07-2.48-2.74-2.48
			c-0.89,0-1.96,0.34-2.61,0.97l0.52,0.61c0.61-0.52,1.29-0.77,2.09-0.77c1.1,0,1.93,0.48,1.93,1.66v0.42h-1.04
			c-1.35,0-3.8,0.21-3.8,2.3c0,1.46,1.25,2.04,2.42,2.04c1.16,0,1.9-0.42,2.41-1.29h0.03c0,0.38,0.03,0.77,0.09,1.11h0.83
			c-0.11-0.79-0.13-1.55-0.13-2.88L210.16,73.78L210.16,73.78z M209.36,74.9v0.46c0,1.14-0.49,2.36-2.39,2.36
			c-0.75,0-1.56-0.43-1.56-1.28c0-1.17,1.48-1.55,2.97-1.55H209.36L209.36,74.9z M218.54,78.34h0.89V67.12h-0.89v5.57h-0.03
			c-0.55-0.95-1.72-1.38-2.75-1.38c-2.11,0-3.61,1.52-3.61,3.61c0,2.09,1.5,3.61,3.61,3.61c1.03,0,2.2-0.43,2.75-1.38h0.03V78.34z
			 M218.63,74.91c0,1.55-1.25,2.81-2.87,2.81c-1.68,0-2.72-1.26-2.72-2.81s1.04-2.81,2.72-2.81
			C217.38,72.11,218.63,73.37,218.63,74.91 M221.23,74.91c0,2.09,1.5,3.61,3.61,3.61c2.11,0,3.61-1.52,3.61-3.61
			c0-2.1-1.5-3.61-3.61-3.61C222.73,71.3,221.23,72.82,221.23,74.91 M222.12,74.91c0-1.55,1.04-2.81,2.72-2.81
			c1.68,0,2.72,1.26,2.72,2.81s-1.04,2.81-2.72,2.81C223.16,77.72,222.12,76.46,222.12,74.91 M229.67,77.13
			c0.53,0.95,1.59,1.4,2.76,1.4c1.31,0,2.48-0.71,2.48-2.12c0-2.78-4.07-1.34-4.07-3.19c0-0.71,0.82-1.1,1.46-1.1
			c0.8,0,1.28,0.34,1.62,0.96l0.81-0.47c-0.45-0.88-1.31-1.29-2.42-1.29c-1.13,0-2.35,0.64-2.35,1.97c0,2.62,4.07,1.29,4.07,3.18
			c0,0.79-0.8,1.26-1.58,1.26c-0.8,0-1.62-0.4-1.99-1.13L229.67,77.13L229.67,77.13z"/>
		<path class="st0" d="M196,1.72c-14.59,0-26.42,11.78-26.42,26.31S181.41,54.33,196,54.33c14.59,0,26.42-11.78,26.42-26.31
			S210.59,1.72,196,1.72 M196,46.07c-10.01,0-18.12-8.08-18.12-18.05S185.99,9.98,196,9.98c10.01,0,18.12,8.08,18.12,18.05
			S206.01,46.07,196,46.07"/>
		<path class="st0" d="M132.33,28.02c0-14.53,11.7-26.44,26.29-26.44c5.78,0,10.87,1.53,15.92,5.2c-2.09,2.18-3.74,4.43-4.95,6.77
			c-3.02-2.25-6.77-3.58-10.84-3.58c-10.01,0-18.12,8.08-18.12,18.05c0,9.97,8.11,18.05,18.12,18.05c3.95,0,8.03-1.45,11.01-3.59
			c1.28,2.43,2.87,4.58,4.76,6.45c-4.19,3.2-10.68,5.4-15.78,5.4C144.16,54.33,132.33,42.55,132.33,28.02"/>
		<path class="st0" d="M117.37,44.92H134c2.06,3.08,5.05,5.92,8.99,8.53H108.8V11.1H95.24v42.36h-8.57V11.1h-9.96
			c-2.09-3.97-4.41-6.81-6.95-8.53h72.89c-3.66,2.32-6.59,5.16-8.79,8.53h-16.5v12.83h11.57c-0.41,2.63-0.35,5.2,0.12,8.53h-11.69
			L117.37,44.92L117.37,44.92z"/>
		<path class="st0" d="M224.98,2.61h8.57v42.31h17.58l0.36,8.53h-26.5V2.61z"/>
		<path class="st0" d="M22.75,0.11L45.5,53.45h-9.52L22.74,22.33L9.45,53.45H0L22.75,0.11L22.75,0.11z"/>
		<path class="st0" d="M269.4,0.11l22.75,53.34h-9.52l-13.25-31.12l-13.29,31.12h-9.44L269.4,0.11L269.4,0.11z"/>
		<path class="st0" d="M67.38,31.57l13.24,30H70.45L57.66,31.81l-3.26-7.38c1.47,1.64,3.02,1.79,4.71,1.72
			c3.46-0.15,6.58-3.47,6.58-7.6c0-4.13-3.6-7.48-8.03-7.48l-6.76,0.01v42.36h-8.46V2.59c0,0,14.93-0.05,15.19-0.05
			c9.53,0,17.24,7.15,17.24,16C74.87,24.3,72.27,28.74,67.38,31.57"/>
		<path class="st0" d="M286.1,0c-4.59,0-8.31,3.71-8.31,8.28c0,4.57,3.72,8.28,8.31,8.28c4.59,0,8.31-3.71,8.31-8.28
			C294.42,3.71,290.69,0,286.1,0 M290.25,13.58l-1.93-4.38c0.94-0.54,1.43-1.39,1.43-2.49c0-1.7-1.47-3.07-3.3-3.07
			c-0.05,0-3.18,0.01-3.18,0.01v9.74h1.62V5.28h1.56c0.85,0,1.54,0.64,1.54,1.43s-0.6,1.43-1.26,1.45c-0.32,0.01-0.62-0.01-0.9-0.33
			l0.63,1.42l2.25,5.23c-0.8,0.33-1.68,0.52-2.6,0.52c-3.73,0-6.75-3.01-6.75-6.72c0-3.71,3.02-6.72,6.75-6.72
			c3.73,0,6.75,3.01,6.75,6.72C292.85,10.44,291.83,12.35,290.25,13.58"/>
	</g>
</g>
</svg>
