<?xml version="1.0" encoding="utf-8"?>
<!-- Generator: Adobe Illustrator 24.0.1, SVG Export Plug-In . SVG Version: 6.00 Build 0)  -->
<svg version="1.1" id="Capa_1" xmlns="http://www.w3.org/2000/svg" xmlns:xlink="http://www.w3.org/1999/xlink" x="0px" y="0px"
	 viewBox="0 0 40.56 29.74" style="enable-background:new 0 0 40.56 29.74;" xml:space="preserve">
<style type="text/css">
	.st0{fill:#3C3C3B;}
	.st1{fill:#C00D0D;}
	.st2{fill:#FFFFFF;}
	.st3{clip-path:url(#SVGID_2_);}
	.st4{fill:#C5C5C5;}
	.st5{clip-path:url(#SVGID_4_);}
	.st6{fill:#B1B1B0;}
	.st7{clip-path:url(#SVGID_6_);fill:#B1B1B0;}
	.st8{clip-path:url(#SVGID_8_);fill:#B1B1B0;}
</style>
<g>
	<g>
		<path class="st2" d="M38.8,16.59c-1.18-1.47-2.68-2.43-4.51-2.86c0.58-0.87,0.87-1.84,0.87-2.92c0-1.49-0.53-2.77-1.58-3.82
			c-1.06-1.06-2.33-1.58-3.82-1.58c-1.34,0-2.51,0.44-3.51,1.31c-0.83-2.03-2.16-3.65-3.98-4.88C20.43,0.61,18.42,0,16.22,0
			c-2.99,0-5.53,1.06-7.65,3.17c-2.11,2.11-3.17,4.66-3.17,7.65c0,0.18,0.01,0.49,0.04,0.91c-1.66,0.77-2.99,1.94-3.97,3.49
			C0.49,16.76,0,18.45,0,20.28c0,2.61,0.93,4.83,2.78,6.69c1.85,1.85,4.08,2.78,6.69,2.78h22.98c2.24,0,4.15-0.79,5.74-2.38
			c1.58-1.58,2.38-3.5,2.38-5.74C40.56,19.74,39.97,18.07,38.8,16.59z M26.83,17.41l-7.41,7.42c-0.13,0.13-0.29,0.19-0.49,0.19
			c-0.2,0-0.36-0.06-0.49-0.19l-7.44-7.44c-0.13-0.13-0.19-0.29-0.19-0.49c0-0.18,0.07-0.34,0.2-0.48c0.13-0.13,0.29-0.2,0.48-0.2
			h4.73V8.79c0-0.18,0.07-0.34,0.2-0.48c0.13-0.13,0.29-0.2,0.48-0.2h4.06c0.18,0,0.34,0.07,0.48,0.2c0.13,0.13,0.2,0.29,0.2,0.48
			v7.44h4.73c0.2,0,0.36,0.06,0.49,0.19c0.13,0.13,0.19,0.29,0.19,0.49C27.04,17.07,26.97,17.24,26.83,17.41z"/>
	</g>
</g>
</svg>
