<?xml version="1.0" encoding="utf-8"?>
<!-- Generator: Adobe Illustrator 24.0.1, SVG Export Plug-In . SVG Version: 6.00 Build 0)  -->
<svg version="1.1" id="Capa_1" xmlns="http://www.w3.org/2000/svg" xmlns:xlink="http://www.w3.org/1999/xlink" x="0px" y="0px"
	 viewBox="0 0 254.26 189.12" style="enable-background:new 0 0 254.26 189.12;" xml:space="preserve">
<style type="text/css">
	.st0{fill:#3C3C3B;}
	.st1{fill:#C00D0D;}
	.st2{fill:#FFFFFF;}
	.st3{clip-path:url(#SVGID_2_);}
	.st4{fill:#C5C5C5;}
	.st5{clip-path:url(#SVGID_4_);}
	.st6{fill:#B1B1B0;}
	.st7{clip-path:url(#SVGID_6_);fill:#B1B1B0;}
	.st8{clip-path:url(#SVGID_8_);fill:#B1B1B0;}
</style>
<g>
	<g>
		<defs>
			<path id="SVGID_1_" d="M-149.33,98.5l27.21-61.46h-34.31V19.31h57.18v12.64l-27.91,66.56H-149.33z"/>
		</defs>
		<clipPath id="SVGID_2_">
			<use xlink:href="#SVGID_1_"  style="overflow:visible;"/>
		</clipPath>
		<g class="st3">
			<polygon class="st4" points="0.25,-10.28 4.69,-10.28 -125.56,137.73 -130,137.73 			"/>
			<polygon class="st4" points="9.13,-10.28 13.57,-10.28 -116.68,137.73 -121.12,137.73 			"/>
			<polygon class="st4" points="18.01,-10.28 22.45,-10.28 -107.8,137.73 -112.24,137.73 			"/>
			<polygon class="st4" points="26.89,-10.28 31.33,-10.28 -98.92,137.73 -103.36,137.73 			"/>
			<polygon class="st4" points="35.77,-10.28 40.21,-10.28 -90.04,137.73 -94.48,137.73 			"/>
			<polygon class="st4" points="44.65,-10.28 49.09,-10.28 -81.16,137.73 -85.6,137.73 			"/>
			<polygon class="st4" points="53.53,-10.28 57.97,-10.28 -72.28,137.73 -76.72,137.73 			"/>
		</g>
	</g>
	<g>
		<defs>
			<path id="SVGID_3_" d="M-34.49,58.96c0,14.03-2.35,24.31-7.05,30.84c-4.7,6.53-11.89,9.79-21.57,9.79
				c-9.47,0-16.6-3.41-21.41-10.22c-4.81-6.82-7.21-16.95-7.21-30.4c0-14.1,2.35-24.45,7.05-31.03c4.7-6.58,11.89-9.87,21.57-9.87
				c9.43,0,16.56,3.43,21.38,10.28C-36.91,35.19-34.49,45.4-34.49,58.96z M-70.42,58.96c0,8.97,0.56,15.13,1.68,18.5
				c1.12,3.36,3,5.05,5.64,5.05c2.67,0,4.56-1.74,5.66-5.21c1.1-3.47,1.65-9.58,1.65-18.33c0-8.79-0.56-14.94-1.68-18.47
				c-1.12-3.53-3-5.29-5.64-5.29c-2.64,0-4.52,1.7-5.64,5.1C-69.86,43.7-70.42,49.92-70.42,58.96z"/>
		</defs>
		<clipPath id="SVGID_4_">
			<use xlink:href="#SVGID_3_"  style="overflow:visible;"/>
		</clipPath>
		<g class="st5">
			<polygon class="st6" points="0.25,-10.28 4.69,-10.28 -125.56,137.73 -130,137.73 			"/>
			<polygon class="st6" points="9.13,-10.28 13.57,-10.28 -116.68,137.73 -121.12,137.73 			"/>
			<polygon class="st6" points="18.01,-10.28 22.45,-10.28 -107.8,137.73 -112.24,137.73 			"/>
			<polygon class="st6" points="26.89,-10.28 31.33,-10.28 -98.92,137.73 -103.36,137.73 			"/>
			<polygon class="st6" points="35.77,-10.28 40.21,-10.28 -90.04,137.73 -94.48,137.73 			"/>
			<polygon class="st6" points="44.65,-10.28 49.09,-10.28 -81.16,137.73 -85.6,137.73 			"/>
			<polygon class="st6" points="53.53,-10.28 57.97,-10.28 -72.28,137.73 -76.72,137.73 			"/>
		</g>
	</g>
</g>
<g>
	<g>
		<g>
			<defs>
				<path id="SVGID_5_" d="M127.03,102.24l-15.44,21.09c-1.15,1.61-2.3,3.11-3.34,4.61c0.12,0.12,2.77-0.23,4.38-0.23
					c12.44,0,26.85,9.56,26.85,28.92c0,19.48-15.1,32.5-33.07,32.5c-10.72,0-20.63-3.92-26.39-11.52
					c-5.42-6.11-7.26-14.87-7.26-21.43c0-8.64,3.57-16.25,7.84-22.82l21.2-31.11H127.03z M94.19,158.35
					c0,7.72,6.22,11.64,11.75,11.64c6.22,0,11.75-4.61,11.75-11.41c0-5.53-4.03-11.64-11.75-11.64c-7.14,0-11.75,5.3-11.75,11.29
					V158.35z"/>
			</defs>
			<clipPath id="SVGID_6_">
				<use xlink:href="#SVGID_5_"  style="overflow:visible;"/>
			</clipPath>
			<path class="st7" d="M165.26,157.41l1.35,2.13l-85.5,54.08l-1.35-2.13L165.26,157.41z M77.19,207.06l1.35,2.13l86.52-54.73
				l-1.35-2.13L77.19,207.06z M74.62,202.62l1.35,2.13l87.54-55.38l-1.35-2.13L74.62,202.62z M72.04,198.19l1.35,2.13l88.56-56.02
				l-1.35-2.13L72.04,198.19z M69.47,193.76l1.35,2.13l89.58-56.67l-1.35-2.13L69.47,193.76z M66.9,189.32l1.35,2.13l90.6-57.31
				l-1.35-2.13L66.9,189.32z M64.33,184.89l1.35,2.13l91.62-57.96l-1.35-2.13L64.33,184.89z M61.76,180.46l1.35,2.13l92.64-58.6
				l-1.35-2.13L61.76,180.46z M59.18,176.02l1.35,2.13l93.66-59.25l-1.35-2.13L59.18,176.02z M56.61,171.59l1.35,2.13l94.68-59.89
				l-1.35-2.13L56.61,171.59z M54.04,167.16l1.35,2.13l95.7-60.54l-1.35-2.13L54.04,167.16z M51.47,162.72l1.35,2.13l96.72-61.18
				l-1.35-2.13L51.47,162.72z M48.89,158.29l1.35,2.13l97.74-61.83l-1.35-2.13L48.89,158.29z M46.32,153.86l1.35,2.13l98.76-62.47
				l-1.35-2.13L46.32,153.86z M43.75,149.42l1.35,2.13l99.78-63.12l-1.35-2.13L43.75,149.42z M41.18,144.99l1.35,2.13l100.8-63.77
				l-1.35-2.13L41.18,144.99z M38.6,140.56l1.35,2.13l101.82-64.41l-1.35-2.13L38.6,140.56z"/>
		</g>
		<g>
			<g>
				<path class="st1" d="M112.7,182.21c-10.77,0-20.01-4.05-25.37-11.13c-6.46-7.28-6.96-17.58-6.96-20.56
					c0-7.03,2.37-13.95,7.46-21.79l20.05-29.43h26l-15.54,21.23c-0.54,0.79-1.14,1.59-1.75,2.42c-0.04,0.06-0.08,0.11-0.12,0.17
					c0.69-0.05,1.42-0.1,2.03-0.1c12.61,0,26,9.79,26,27.93C144.49,168.77,130.83,182.21,112.7,182.21z M112.06,142.83
					c-5.55,0-9.73,4.09-9.73,9.51v0.11c0,6.46,5.01,9.95,9.73,9.95c5.79,0,10.16-4.18,10.16-9.73
					C122.21,147.9,118.65,142.83,112.06,142.83z"/>
				<path class="st2" d="M131.91,100.31l-14.38,19.64c-0.97,1.39-2.04,2.79-3.11,4.29c0.02,0.02,0.08,0.02,0.18,0.02
					c0.61,0,2.61-0.24,3.89-0.24c11.59,0,25,8.91,25,26.93c0,18.13-14.06,30.26-30.8,30.26c-9.98,0-19.21-3.65-24.57-10.73
					c-5.04-5.69-6.76-13.84-6.76-19.96c0-8.05,3.33-15.13,7.3-21.25l19.74-28.97H131.91 M112.06,163.4c6.01,0,11.16-4.4,11.16-10.73
					c0-5.15-3.86-10.84-11.16-10.84c-6.44,0-10.73,4.94-10.73,10.51v0.11C101.32,159.75,107.12,163.4,112.06,163.4 M135.85,98.31
					h-3.94h-23.5h-1.06l-0.6,0.87l-19.74,28.97c-5.22,8.05-7.64,15.14-7.64,22.37c0,3.06,0.52,13.63,7.21,21.23
					c5.55,7.28,15.07,11.46,26.12,11.46c18.7,0,32.8-13.87,32.8-32.26c0-18.79-13.9-28.92-26.99-28.93c0.22-0.3,0.44-0.61,0.65-0.92
					l14.36-19.61L135.85,98.31L135.85,98.31z M112.06,161.4c-3.38,0-8.73-2.43-8.73-8.95v-0.11c0-4.13,3.06-8.51,8.73-8.51
					c5.95,0,9.16,4.55,9.16,8.84C121.21,157.65,117.28,161.4,112.06,161.4L112.06,161.4z"/>
			</g>
		</g>
	</g>
	<g>
		<g>
			<defs>
				<path id="SVGID_7_" d="M12.93,95.19l15.44-21.09c1.15-1.61,2.3-3.11,3.34-4.61c-0.12-0.12-2.77,0.23-4.38,0.23
					c-12.44,0-26.85-9.56-26.85-28.92c0-19.48,15.1-32.5,33.07-32.5c10.72,0,20.63,3.92,26.39,11.52
					c5.42,6.11,7.26,14.87,7.26,21.43c0,8.64-3.57,16.25-7.84,22.82l-21.2,31.11H12.93z M45.77,39.08c0-7.72-6.22-11.64-11.75-11.64
					c-6.22,0-11.75,4.61-11.75,11.41c0,5.53,4.03,11.64,11.75,11.64c7.14,0,11.75-5.3,11.75-11.29V39.08z"/>
			</defs>
			<clipPath id="SVGID_8_">
				<use xlink:href="#SVGID_7_"  style="overflow:visible;"/>
			</clipPath>
			<path class="st8" d="M-25.3,40.02l-1.35-2.13l85.5-54.08l1.35,2.13L-25.3,40.02z M62.77-9.63l-1.35-2.13l-86.52,54.73l1.35,2.13
				L62.77-9.63z M65.34-5.19L64-7.32l-87.54,55.38l1.35,2.13L65.34-5.19z M67.91-0.76l-1.35-2.13l-88.56,56.02l1.35,2.13L67.91-0.76
				z M70.49,3.67l-1.35-2.13l-89.58,56.67l1.35,2.13L70.49,3.67z M73.06,8.11l-1.35-2.13l-90.6,57.31l1.35,2.13L73.06,8.11z
				 M75.63,12.54l-1.35-2.13l-91.62,57.96l1.35,2.13L75.63,12.54z M78.2,16.97l-1.35-2.13l-92.64,58.6l1.35,2.13L78.2,16.97z
				 M80.78,21.41l-1.35-2.13l-93.66,59.25l1.35,2.13L80.78,21.41z M83.35,25.84L82,23.71l-94.68,59.89l1.35,2.13L83.35,25.84z
				 M85.92,30.27l-1.35-2.13l-95.7,60.54l1.35,2.13L85.92,30.27z M88.49,34.71l-1.35-2.13L-9.57,93.76l1.35,2.13L88.49,34.71z
				 M91.07,39.14l-1.35-2.13L-8.02,98.84l1.35,2.13L91.07,39.14z M93.64,43.57l-1.35-2.13l-98.76,62.47l1.35,2.13L93.64,43.57z
				 M96.21,48.01l-1.35-2.13L-4.92,109l1.35,2.13L96.21,48.01z M98.78,52.44l-1.35-2.13l-100.8,63.77l1.35,2.13L98.78,52.44z
				 M101.35,56.87l-1.35-2.13L-1.81,119.16l1.35,2.13L101.35,56.87z"/>
		</g>
		<g>
			<g>
				<path class="st1" d="M16.84,90.3l16.61-22.68c0.48-0.68,0.98-1.35,1.46-2c0.23-0.31,0.45-0.61,0.67-0.91
					c-0.78,0.06-1.66,0.12-2.36,0.12c-13.5,0-27.85-10.49-27.85-29.92c0-19.1,14.65-33.5,34.07-33.5c11.54,0,21.45,4.34,27.19,11.92
					c6.92,7.8,7.46,18.84,7.46,22.04c0,7.54-2.54,14.96-8,23.36L44.58,90.3H16.84z M39.9,22.55c-5.29,0-10.75,3.89-10.75,10.41
					c0,5.16,3.77,10.64,10.75,10.64c6.98,0,10.75-5.3,10.75-10.29v-0.12C50.66,26.27,45.12,22.55,39.9,22.55z"/>
				<path class="st2" d="M39.44,2.42c10.72,0,20.63,3.92,26.39,11.52c5.42,6.11,7.26,14.87,7.26,21.43c0,8.64-3.57,16.25-7.84,22.82
					L44.05,89.3H18.82l15.44-21.09c1.15-1.61,2.3-3.11,3.34-4.61c-0.02-0.02-0.08-0.02-0.19-0.02c-0.66,0-2.8,0.25-4.19,0.25
					c-12.44,0-26.85-9.56-26.85-28.92C6.37,15.44,21.47,2.42,39.44,2.42 M39.9,44.59c7.14,0,11.75-5.3,11.75-11.29v-0.12
					c0-7.72-6.22-11.64-11.75-11.64c-6.22,0-11.75,4.61-11.75,11.41C28.15,38.49,32.18,44.59,39.9,44.59 M39.44,0.42
					c-19.99,0-35.07,14.83-35.07,34.5c0,20.09,14.86,30.92,28.85,30.92c0.1,0,0.19,0,0.29,0c-0.29,0.4-0.59,0.81-0.88,1.22
					L17.2,88.12l-2.33,3.18h3.94h25.24h1.06l0.6-0.87l21.2-31.11c5.59-8.61,8.18-16.21,8.18-23.94c0-3.28-0.56-14.58-7.71-22.7
					C61.44,4.88,51.27,0.42,39.44,0.42L39.44,0.42z M39.9,42.59c-4.73,0-9.75-3.38-9.75-9.64c0-5.89,4.96-9.41,9.75-9.41
					c3.92,0,9.75,2.57,9.75,9.64v0.12C49.66,39.34,44.63,42.59,39.9,42.59L39.9,42.59z"/>
			</g>
		</g>
	</g>
	<g>
		<g>
			<path class="st0" d="M93.53,50.37c0,2.14-0.73,3.82-2.18,5.04c-1.45,1.22-3.45,1.83-5.97,1.83h-1.09l-1.27,6.18h-4.97l3.93-18.62
				h4.75c2.2,0,3.88,0.48,5.06,1.45C92.94,47.21,93.53,48.58,93.53,50.37z M85.17,53.16h0.8c0.77,0,1.39-0.25,1.87-0.74
				s0.71-1.13,0.71-1.89c0-0.5-0.15-0.9-0.46-1.21c-0.31-0.31-0.72-0.46-1.26-0.46h-0.75L85.17,53.16z"/>
			<path class="st0" d="M94.26,63.41l3.93-18.62h4.97l-3.07,14.55h6.07l-0.87,4.06H94.26z"/>
			<path class="st0" d="M118.48,59.92h-5.7l-1.59,3.49h-5.17l9.46-18.62h6.4l1.56,18.62h-4.85L118.48,59.92z M114.6,55.95h3.73
				l-0.22-5.4l-0.03-1.1c0-0.64,0.02-1.19,0.05-1.67c-0.2,0.73-0.46,1.43-0.78,2.11L114.6,55.95z"/>
			<path class="st0" d="M141.95,63.41h-5.79l-3.68-13.09h-0.1c-0.25,2.47-0.49,4.24-0.72,5.32l-1.64,7.77h-4.43l3.93-18.62h5.79
				l3.64,12.52h0.11c0.25-2,0.49-3.58,0.73-4.72l1.67-7.79h4.43L141.95,63.41z"/>
			<path class="st0" d="M153.73,63.41h-4.97l3.01-14.5h-4.03l0.88-4.11h13.08l-0.9,4.11h-4.04L153.73,63.41z"/>
			<path class="st0" d="M171.05,59.92h-5.7l-1.59,3.49h-5.17l9.46-18.62h6.4l1.56,18.62h-4.85L171.05,59.92z M167.17,55.95h3.73
				l-0.22-5.4l-0.03-1.1c0-0.64,0.02-1.19,0.05-1.67c-0.2,0.73-0.46,1.43-0.78,2.11L167.17,55.95z"/>
			<path class="st0" d="M190.17,57.69c0,1.88-0.62,3.35-1.87,4.4c-1.25,1.05-2.99,1.57-5.22,1.57c-0.93,0-1.81-0.1-2.65-0.31
				c-0.83-0.21-1.55-0.51-2.15-0.91v-4.46c0.71,0.45,1.53,0.83,2.45,1.13s1.75,0.46,2.5,0.46c0.63,0,1.1-0.13,1.42-0.39
				c0.32-0.26,0.48-0.64,0.48-1.12c0-0.23-0.05-0.44-0.15-0.64c-0.1-0.2-0.25-0.4-0.43-0.6c-0.19-0.2-0.69-0.64-1.5-1.32
				c-0.99-0.8-1.71-1.61-2.16-2.44c-0.45-0.83-0.67-1.74-0.67-2.74c0-1.11,0.28-2.11,0.83-3c0.56-0.89,1.34-1.57,2.35-2.06
				c1.01-0.49,2.15-0.73,3.4-0.73c2.03,0,3.85,0.45,5.47,1.36l-1.72,3.78c-1.45-0.75-2.68-1.12-3.7-1.12
				c-0.54,0-0.96,0.12-1.25,0.36c-0.29,0.24-0.44,0.59-0.44,1.04c0,0.42,0.14,0.8,0.43,1.17s0.82,0.84,1.62,1.45
				c1,0.74,1.74,1.52,2.23,2.33S190.17,56.64,190.17,57.69z"/>
			<path class="st0" d="M93.53,73.47c0,2.14-0.73,3.82-2.18,5.04c-1.45,1.22-3.45,1.83-5.97,1.83h-1.09l-1.27,6.18h-4.97l3.93-18.62
				h4.75c2.2,0,3.88,0.48,5.06,1.45C92.94,70.3,93.53,71.68,93.53,73.47z M85.17,76.26h0.8c0.77,0,1.39-0.25,1.87-0.74
				s0.71-1.13,0.71-1.89c0-0.5-0.15-0.9-0.46-1.21c-0.31-0.31-0.72-0.46-1.26-0.46h-0.75L85.17,76.26z"/>
			<path class="st0" d="M100.68,79.73l-1.44,6.77h-4.97l3.93-18.62h4.92c2.14,0,3.77,0.42,4.91,1.27c1.14,0.85,1.7,2.13,1.7,3.83
				c0,1.32-0.3,2.48-0.9,3.46c-0.6,0.98-1.5,1.74-2.68,2.25l2.85,6.57l0.51,1.22h-5.42l-2.48-6.77H100.68z M101.48,75.95h0.65
				c0.81,0,1.45-0.23,1.92-0.69c0.47-0.46,0.71-1.11,0.71-1.94c0-0.53-0.15-0.93-0.44-1.2c-0.29-0.28-0.72-0.41-1.28-0.41h-0.67
				L101.48,75.95z"/>
			<path class="st0" d="M122.19,67.6c2.21,0,3.92,0.63,5.15,1.89c1.23,1.26,1.84,3.02,1.84,5.28c0,2.26-0.42,4.32-1.27,6.19
				c-0.84,1.87-2.01,3.31-3.49,4.3c-1.48,1-3.21,1.5-5.17,1.5c-2.28,0-4.04-0.63-5.29-1.9c-1.24-1.26-1.86-3.02-1.86-5.27
				c0-2.25,0.44-4.32,1.31-6.2s2.06-3.32,3.57-4.31C118.48,68.09,120.22,67.6,122.19,67.6z M124.15,74.82c0-0.97-0.2-1.73-0.61-2.27
				s-1-0.82-1.77-0.82c-0.84,0-1.61,0.36-2.32,1.07c-0.7,0.71-1.27,1.69-1.69,2.94c-0.42,1.25-0.63,2.53-0.63,3.83
				c0,2.05,0.85,3.08,2.54,3.08c0.81,0,1.55-0.35,2.25-1.06c0.69-0.7,1.23-1.66,1.63-2.85C123.95,77.54,124.15,76.24,124.15,74.82z"
				/>
			<path class="st0" d="M146.98,74.93c0,2.38-0.42,4.44-1.26,6.18c-0.84,1.74-2.06,3.08-3.66,4s-3.49,1.39-5.68,1.39h-5.99
				l3.93-18.62h5.29c2.34,0,4.15,0.61,5.44,1.84C146.34,70.96,146.98,72.69,146.98,74.93z M137.13,82.38c0.93,0,1.77-0.3,2.5-0.89
				s1.3-1.44,1.71-2.54c0.41-1.1,0.61-2.35,0.61-3.76c0-1.06-0.23-1.87-0.69-2.41c-0.46-0.55-1.1-0.82-1.92-0.82h-0.9l-2.19,10.43
				H137.13z"/>
			<path class="st0" d="M166.24,67.89l-2.53,11.87c-0.5,2.39-1.45,4.15-2.86,5.29c-1.41,1.14-3.32,1.71-5.74,1.71
				c-1.14,0-2.14-0.23-3.01-0.7s-1.54-1.12-2.01-1.96c-0.47-0.84-0.71-1.78-0.71-2.81c0-0.54,0.05-1.09,0.15-1.64l2.53-11.75h4.97
				l-2.48,11.62c-0.12,0.58-0.18,1.07-0.18,1.46c0,1.08,0.51,1.62,1.54,1.62c0.8,0,1.42-0.27,1.88-0.82
				c0.45-0.55,0.8-1.39,1.04-2.52l2.43-11.37H166.24z"/>
			<path class="st0" d="M177.27,71.75c-0.92,0-1.74,0.33-2.48,0.99s-1.32,1.57-1.74,2.74c-0.42,1.16-0.63,2.42-0.63,3.78
				c0,1.14,0.24,1.99,0.71,2.55c0.47,0.56,1.16,0.84,2.05,0.84c0.7,0,1.42-0.09,2.14-0.26c0.72-0.17,1.57-0.47,2.54-0.88v4.11
				c-1.72,0.76-3.59,1.15-5.6,1.15c-2.21,0-3.9-0.63-5.09-1.89c-1.19-1.26-1.79-3.04-1.79-5.35c0-2.26,0.43-4.33,1.29-6.21
				c0.86-1.88,2.03-3.31,3.51-4.27c1.48-0.96,3.17-1.44,5.08-1.44c2.25,0,4.29,0.56,6.12,1.67l-1.88,3.88
				c-0.79-0.47-1.51-0.82-2.17-1.05C178.67,71.87,177.98,71.75,177.27,71.75z"/>
			<path class="st0" d="M190.45,86.51h-4.97l3.01-14.5h-4.03l0.88-4.11h13.08l-0.9,4.11h-4.04L190.45,86.51z"/>
			<path class="st0" d="M197.24,86.51l3.93-18.62h5.05l-3.93,18.62H197.24z"/>
			<path class="st0" d="M218.83,67.89h5.27l-9.22,18.62h-5.55L208,67.89h4.86l0.34,10.2v0.65c0,1.22-0.07,2.31-0.2,3.26h0.1
				c0.12-0.54,0.31-1.21,0.57-2.01c0.26-0.79,0.49-1.41,0.71-1.85L218.83,67.89z"/>
			<path class="st0" d="M233.09,83.02h-5.7l-1.59,3.49h-5.16l9.46-18.62h6.4l1.56,18.62h-4.85L233.09,83.02z M229.21,79.05h3.73
				l-0.22-5.4l-0.03-1.1c0-0.64,0.02-1.19,0.05-1.67c-0.2,0.73-0.46,1.43-0.78,2.11L229.21,79.05z"/>
			<path class="st0" d="M252.21,80.79c0,1.88-0.62,3.35-1.87,4.4c-1.25,1.05-2.99,1.57-5.22,1.57c-0.93,0-1.81-0.1-2.65-0.31
				c-0.83-0.21-1.55-0.51-2.15-0.91v-4.46c0.71,0.45,1.53,0.83,2.45,1.13c0.92,0.31,1.75,0.46,2.5,0.46c0.63,0,1.1-0.13,1.42-0.39
				s0.48-0.64,0.48-1.12c0-0.23-0.05-0.44-0.15-0.64c-0.1-0.2-0.25-0.4-0.43-0.6c-0.19-0.2-0.69-0.64-1.5-1.32
				c-0.99-0.8-1.71-1.61-2.16-2.44s-0.67-1.74-0.67-2.74c0-1.11,0.28-2.11,0.83-3c0.56-0.89,1.34-1.57,2.35-2.06s2.15-0.73,3.4-0.73
				c2.03,0,3.85,0.45,5.47,1.36l-1.72,3.78c-1.45-0.75-2.68-1.12-3.7-1.12c-0.54,0-0.96,0.12-1.25,0.36
				c-0.29,0.24-0.44,0.59-0.44,1.04c0,0.42,0.14,0.8,0.43,1.17c0.28,0.36,0.82,0.84,1.62,1.45c1,0.74,1.74,1.52,2.23,2.33
				S252.21,79.74,252.21,80.79z"/>
		</g>
	</g>
	<g>
		<g>
			<path class="st0" d="M168.06,120.99c0,1.73-0.59,3.06-1.77,3.99s-2.83,1.39-4.94,1.39h-1.15l-1.2,5.73h-2.48l3.23-15.31h3.5
				c1.6,0,2.8,0.35,3.61,1.05C167.66,118.55,168.06,119.6,168.06,120.99z M160.65,124.27h0.98c1.24,0,2.2-0.28,2.88-0.83
				c0.68-0.56,1.02-1.34,1.02-2.36c0-0.76-0.2-1.32-0.61-1.67c-0.41-0.35-1.03-0.52-1.88-0.52h-1.25L160.65,124.27z"/>
			<path class="st0" d="M176.72,127.85h-5.08l-2.19,4.25h-2.66l8.19-15.33h2.87l1.74,15.33h-2.45L176.72,127.85z M176.55,125.68
				c-0.28-2.91-0.44-4.66-0.48-5.27c-0.04-0.61-0.06-1.1-0.06-1.46c-0.38,0.97-0.88,2.04-1.49,3.22l-1.8,3.52H176.55z"/>
			<path class="st0" d="M181.46,132.11l3.25-15.31h2.46l-3.25,15.31H181.46z M185.07,115.31c0.68-0.75,1.46-1.81,2.35-3.17h2.76v0.2
				c-0.38,0.46-0.93,1.02-1.65,1.69c-0.73,0.67-1.34,1.18-1.83,1.54h-1.63V115.31z"/>
			<path class="st0" d="M196.82,127.62c0,1.47-0.5,2.61-1.51,3.45s-2.4,1.25-4.17,1.25c-1.46,0-2.68-0.26-3.64-0.79v-2.35
				c1.21,0.68,2.43,1.02,3.66,1.02c0.96,0,1.71-0.21,2.26-0.61c0.55-0.41,0.83-0.98,0.83-1.7c0-0.48-0.14-0.91-0.43-1.28
				s-0.89-0.85-1.8-1.43c-0.73-0.47-1.27-0.89-1.62-1.28c-0.35-0.38-0.62-0.8-0.8-1.26c-0.19-0.46-0.28-0.96-0.28-1.51
				c0-0.89,0.21-1.69,0.64-2.38c0.43-0.69,1.04-1.23,1.82-1.6c0.79-0.38,1.67-0.57,2.65-0.57c1.43,0,2.76,0.32,3.99,0.96l-0.9,2
				c-1.12-0.54-2.15-0.82-3.09-0.82c-0.76,0-1.37,0.2-1.83,0.61c-0.46,0.41-0.69,0.94-0.69,1.6c0,0.33,0.05,0.62,0.16,0.86
				s0.27,0.48,0.49,0.69s0.69,0.55,1.41,1c1.08,0.68,1.83,1.33,2.24,1.96C196.62,126.08,196.82,126.81,196.82,127.62z"/>
			<path class="st0" d="M207,132.11h-8.12l3.23-15.31h8.12l-0.45,2.15h-5.64l-0.88,4.14h5.25l-0.43,2.13h-5.27l-1,4.78h5.64
				L207,132.11z"/>
			<path class="st0" d="M219.15,127.62c0,1.47-0.5,2.61-1.51,3.45c-1.01,0.83-2.4,1.25-4.17,1.25c-1.46,0-2.68-0.26-3.64-0.79v-2.35
				c1.21,0.68,2.43,1.02,3.66,1.02c0.96,0,1.71-0.21,2.26-0.61s0.83-0.98,0.83-1.7c0-0.48-0.14-0.91-0.43-1.28s-0.89-0.85-1.8-1.43
				c-0.73-0.47-1.27-0.89-1.62-1.28c-0.35-0.38-0.62-0.8-0.8-1.26s-0.28-0.96-0.28-1.51c0-0.89,0.21-1.69,0.64-2.38
				c0.43-0.69,1.04-1.23,1.82-1.6c0.79-0.38,1.67-0.57,2.65-0.57c1.43,0,2.76,0.32,3.99,0.96l-0.9,2c-1.12-0.54-2.15-0.82-3.09-0.82
				c-0.76,0-1.37,0.2-1.83,0.61c-0.46,0.41-0.69,0.94-0.69,1.6c0,0.33,0.05,0.62,0.16,0.86c0.1,0.25,0.27,0.48,0.49,0.69
				s0.69,0.55,1.41,1c1.08,0.68,1.83,1.33,2.24,1.96C218.95,126.08,219.15,126.81,219.15,127.62z"/>
			<path class="st0" d="M239.77,122.75c0,1.89-0.35,3.54-1.05,4.95c-0.7,1.41-1.71,2.5-3.05,3.26s-2.9,1.14-4.7,1.14h-4.2
				l3.23-15.31h3.86c1.89,0,3.35,0.51,4.36,1.52C239.26,119.32,239.77,120.8,239.77,122.75z M231.1,130c1.24,0,2.31-0.3,3.23-0.9
				s1.63-1.45,2.12-2.53s0.74-2.33,0.74-3.73c0-1.28-0.31-2.26-0.92-2.94c-0.61-0.67-1.51-1.01-2.68-1.01h-1.53L229.69,130H231.1z"
				/>
			<path class="st0" d="M249.28,132.11h-8.12l3.23-15.31h8.12l-0.45,2.15h-5.64l-0.88,4.14h5.25l-0.43,2.13h-5.27l-1,4.78h5.64
				L249.28,132.11z"/>
			<path class="st0" d="M164.76,152.27h-4.69l-1.31,2.87h-4.25l7.79-15.31h5.26l1.29,15.31h-3.99L164.76,152.27z M161.57,149h3.07
				l-0.18-4.44l-0.02-0.9c0-0.52,0.01-0.98,0.04-1.37c-0.17,0.6-0.38,1.18-0.64,1.74L161.57,149z"/>
			<path class="st0" d="M176.42,155.14v-10.99h-0.08c-0.47,2.91-0.77,4.7-0.9,5.36l-1.18,5.62h-3.64l3.23-15.31h5.42v10.87h0.08
				l5-10.87h5.5l-3.28,15.31h-3.67l1.22-5.75c0.35-1.59,0.73-3.12,1.13-4.57l0.16-0.67h-0.08l-5.04,10.99H176.42z"/>
			<path class="st0" d="M199.18,155.14h-9.08l3.23-15.31h9.08l-0.68,3.32h-4.99l-0.49,2.41h4.65l-0.75,3.32h-4.65l-0.6,2.89h4.99
				L199.18,155.14z M195.8,138.36c0.86-0.71,1.84-1.78,2.95-3.19h4.59v0.16c-0.31,0.38-0.98,0.92-2,1.64
				c-1.02,0.72-1.88,1.26-2.57,1.63h-2.97V138.36z"/>
			<path class="st0" d="M207.41,149.57l-1.18,5.57h-4.09l3.23-15.31h4.05c1.76,0,3.1,0.35,4.04,1.05c0.94,0.7,1.4,1.75,1.4,3.15
				c0,1.09-0.25,2.04-0.74,2.85c-0.5,0.81-1.23,1.43-2.21,1.85l2.34,5.4l0.42,1.01h-4.46l-2.04-5.57H207.41z M208.07,146.46h0.53
				c0.66,0,1.19-0.19,1.58-0.57s0.59-0.91,0.59-1.6c0-0.43-0.12-0.76-0.36-0.99c-0.24-0.23-0.59-0.34-1.05-0.34h-0.55L208.07,146.46
				z"/>
			<path class="st0" d="M216.05,155.14l3.23-15.31h4.15l-3.23,15.31H216.05z"/>
			<path class="st0" d="M232.55,143c-0.75,0-1.43,0.27-2.04,0.82c-0.61,0.54-1.08,1.3-1.43,2.25c-0.35,0.96-0.52,1.99-0.52,3.11
				c0,0.94,0.2,1.63,0.59,2.09s0.95,0.69,1.69,0.69c0.58,0,1.17-0.07,1.76-0.21c0.59-0.14,1.29-0.39,2.09-0.73v3.38
				c-1.42,0.63-2.95,0.94-4.6,0.94c-1.81,0-3.21-0.52-4.19-1.56c-0.98-1.04-1.47-2.5-1.47-4.4c0-1.86,0.35-3.56,1.06-5.11
				c0.71-1.55,1.67-2.72,2.89-3.51c1.22-0.79,2.61-1.18,4.18-1.18c1.85,0,3.53,0.46,5.03,1.37l-1.55,3.2
				c-0.65-0.38-1.25-0.67-1.79-0.86C233.7,143.1,233.13,143,232.55,143z"/>
			<path class="st0" d="M245.81,152.27h-4.69l-1.31,2.87h-4.25l7.79-15.31h5.26l1.29,15.31h-3.99L245.81,152.27z M242.62,149h3.07
				l-0.18-4.44l-0.02-0.9c0-0.52,0.01-0.98,0.04-1.37c-0.17,0.6-0.38,1.18-0.64,1.74L242.62,149z"/>
		</g>
	</g>
	<g>
		<g>
			<path class="st0" d="M64,115.34h-9.39l3.34-15.83h9.39l-0.7,3.43h-5.16l-0.51,2.49h4.8L65,108.87h-4.8l-0.62,2.99h5.16L64,115.34
				z"/>
			<path class="st0" d="M80.98,115.34h-4.92l-3.13-11.13h-0.09c-0.21,2.1-0.42,3.61-0.62,4.53l-1.4,6.6h-3.76l3.34-15.83h4.92
				l3.09,10.64h0.1c0.21-1.7,0.41-3.04,0.62-4.02l1.42-6.63h3.76L80.98,115.34z"/>
		</g>
	</g>
	<g>
		<path class="st0" d="M152.36,180.86l4.21-19.96h5.33l-3.29,15.6h6.51l-0.93,4.36H152.36z"/>
		<path class="st0" d="M178.33,177.12h-6.11l-1.71,3.74h-5.54l10.15-19.96h6.86l1.68,19.96h-5.2L178.33,177.12z M174.17,172.86h4
			l-0.23-5.79l-0.03-1.17c0-0.68,0.02-1.28,0.05-1.79c-0.22,0.78-0.5,1.54-0.83,2.27L174.17,172.86z"/>
		<path class="st0" d="M194.06,180.86h-5.33l3.23-15.55h-4.32l0.94-4.41h14.02l-0.97,4.41h-4.34L194.06,180.86z"/>
		<path class="st0" d="M201.35,180.86l4.21-19.96h5.42l-4.21,19.96H201.35z"/>
		<path class="st0" d="M228.83,180.86h-6.21l-3.94-14.04h-0.11c-0.26,2.65-0.52,4.55-0.78,5.71l-1.76,8.33h-4.75l4.21-19.96h6.21
			l3.9,13.42h0.12c0.26-2.15,0.52-3.84,0.78-5.06l1.79-8.36h4.75L228.83,180.86z"/>
		<path class="st0" d="M244.61,177.12h-6.11l-1.71,3.74h-5.54l10.15-19.96h6.86l1.68,19.96h-5.2L244.61,177.12z M240.45,172.86h4
			l-0.23-5.79l-0.03-1.17c0-0.68,0.02-1.28,0.05-1.79c-0.22,0.78-0.5,1.54-0.83,2.27L240.45,172.86z"/>
	</g>
</g>
</svg>
