<?xml version="1.0" encoding="utf-8"?>
<!-- Generator: Adobe Illustrator 24.0.1, SVG Export Plug-In . SVG Version: 6.00 Build 0)  -->
<svg version="1.1" id="Capa_1" xmlns="http://www.w3.org/2000/svg" xmlns:xlink="http://www.w3.org/1999/xlink" x="0px" y="0px"
	 viewBox="0 0 17.06 18.58" style="enable-background:new 0 0 17.06 18.58;" xml:space="preserve">
<style type="text/css">
	.st0{fill:#C00D0D;}
	.st1{fill:#FFFFFF;}
	.st2{fill:#3C3C3B;}
</style>
<path class="st1" d="M16.7,16.38l-4.3-4.6c1.65-2.04,2.08-4.94,0.86-7.45c-0.82-1.68-2.24-2.94-4-3.55C7.5,0.16,5.6,0.28,3.93,1.1
	C0.46,2.78-0.98,6.97,0.7,10.44c0.82,1.68,2.24,2.94,4,3.55c0.75,0.26,1.52,0.39,2.28,0.39c1.04,0,2.08-0.24,3.05-0.71
	c0.12-0.06,0.24-0.13,0.36-0.2l4.39,4.7c0.26,0.28,0.61,0.42,0.96,0.42c0.32,0,0.64-0.12,0.89-0.35
	C17.17,17.73,17.2,16.9,16.7,16.38z M5.56,11.51c-1.1-0.38-1.99-1.17-2.5-2.22C2.01,7.13,2.91,4.5,5.07,3.45
	c0.6-0.29,1.25-0.44,1.91-0.44c0.48,0,0.96,0.08,1.43,0.24c1.1,0.38,1.99,1.17,2.5,2.22v0c1.05,2.17,0.15,4.79-2.01,5.84
	C7.84,11.82,6.66,11.89,5.56,11.51z"/>
</svg>
