<?xml version="1.0" encoding="utf-8"?>
<!-- Generator: Adobe Illustrator 24.0.1, SVG Export Plug-In . SVG Version: 6.00 Build 0)  -->
<svg version="1.1" id="Capa_1" xmlns="http://www.w3.org/2000/svg" xmlns:xlink="http://www.w3.org/1999/xlink" x="0px" y="0px"
	 viewBox="0 0 309.88 65.98" style="enable-background:new 0 0 309.88 65.98;" xml:space="preserve">
<style type="text/css">
	.st0{fill:#3C3C3B;}
	.st1{fill:#C00D0D;}
	.st2{fill:#FFFFFF;}
	.st3{clip-path:url(#SVGID_2_);}
	.st4{fill:#C5C5C5;}
	.st5{clip-path:url(#SVGID_4_);}
	.st6{fill:#B1B1B0;}
	.st7{clip-path:url(#SVGID_6_);fill:#B1B1B0;}
	.st8{clip-path:url(#SVGID_8_);fill:#B1B1B0;}
</style>
<g>
	<path class="st1" d="M168.39,49.54c-10.62,0-19.23-8.57-19.23-19.14c0-10.58,8.61-19.14,19.23-19.14c4.31,0,8.29,1.41,11.5,3.79
		c1.28-2.48,3.03-4.88,5.24-7.19c-5.35-3.89-10.75-5.51-16.89-5.51c-15.47,0-27.88,12.63-27.88,28.04c0,15.42,12.54,27.9,28.03,27.9
		c5.4,0,12.29-2.33,16.74-5.73c-2.01-1.97-3.69-4.26-5.07-6.83C176.91,47.99,172.57,49.54,168.39,49.54"/>
	<polygon class="st1" points="265.47,48.32 247.73,48.32 247.73,3.45 238.64,3.45 238.64,57.38 266.76,57.38 266.76,57.37 
		271.65,57.37 285.73,24.36 299.79,57.37 309.88,57.37 285.76,0.79 	"/>
	<path class="st1" d="M235.93,30.4c0-15.41-12.55-27.9-28.03-27.9s-28.03,12.49-28.03,27.9c0,15.42,12.56,27.9,28.03,27.9
		S235.93,45.81,235.93,30.4 M188.68,30.4c0-10.58,8.6-19.14,19.22-19.14c10.61,0,19.22,8.56,19.22,19.14
		c0,10.57-8.6,19.14-19.22,19.14C197.28,49.54,188.68,40.97,188.68,30.4"/>
	<path class="st1" d="M142.14,48.32H124.5V35.11h12.4c-0.5-3.54-0.57-6.26-0.12-9.05H124.5V12.44H142c2.33-3.56,5.43-6.58,9.32-9.05
		H74.01c2.69,1.83,5.14,4.85,7.37,9.05h10.56v44.94h9.08V12.44h14.38v44.94h36.27C147.5,54.61,144.33,51.59,142.14,48.32"/>
	<path class="st1" d="M79.43,20.34c0-9.39-8.2-16.97-18.3-16.97c-0.28,0-16.11,0.04-16.11,0.04v46.33L24.14,0.79L0,57.37h10.03
		l14.09-33l14.06,33h10.09l0-0.01h5.73V12.42l7.17-0.01c4.71,0,8.53,3.55,8.53,7.93c0,4.38-3.32,7.91-6.99,8.07
		c-1.79,0.08-3.43-0.07-4.99-1.82l3.47,7.82l13.56,31.57h10.79L71.48,34.16C76.66,31.16,79.43,26.44,79.43,20.34"/>
	<path class="st1" d="M309.06,8.51h-0.64c0,1.99-0.81,3.79-2.11,5.1c-1.31,1.31-3.11,2.11-5.1,2.11c-2,0-3.81-0.81-5.11-2.11
		c-1.31-1.31-2.11-3.11-2.11-5.1c0-4,3.23-7.23,7.23-7.23c1.99,0,3.79,0.81,5.1,2.12c1.31,1.31,2.12,3.11,2.12,5.11H309.06h0.64
		c0-4.7-3.8-8.51-8.49-8.51c-2.35,0-4.48,0.95-6.02,2.49c-1.54,1.54-2.49,3.67-2.49,6.02c0,4.68,3.8,8.49,8.5,8.49
		c4.69,0,8.49-3.8,8.49-8.49H309.06z"/>
	<path class="st1" d="M302.92,9.45c0.86-0.5,1.33-1.29,1.33-2.31c0-1.56-1.37-2.83-3.04-2.83l-2.7,0.01v7.73l-0.03-0.06v1.34h0.58
		h-0.01H300v-7.5h1.2c0.78,0,1.43,0.59,1.43,1.32c0,0.73-0.55,1.32-1.17,1.35c-0.31,0.01-0.59-0.02-0.85-0.31l0.59,1.31l2.78,6.35
		l1.28-1.08L302.92,9.45z"/>
</g>
</svg>
