<?xml version="1.0" encoding="utf-8"?>
<!-- Generator: Adobe Illustrator 24.0.1, SVG Export Plug-In . SVG Version: 6.00 Build 0)  -->
<svg version="1.1" id="Capa_1" xmlns="http://www.w3.org/2000/svg" xmlns:xlink="http://www.w3.org/1999/xlink" x="0px" y="0px"
	 viewBox="0 0 28.67 28.78" style="enable-background:new 0 0 28.67 28.78;" xml:space="preserve">
<style type="text/css">
	.st0{fill:white;}
	.st1{fill:#C00D0D;}
	.st2{fill:#FFFFFF;}
	.st3{clip-path:url(#SVGID_2_);}
	.st4{fill:#C5C5C5;}
	.st5{clip-path:url(#SVGID_4_);}
	.st6{fill:#B1B1B0;}
	.st7{clip-path:url(#SVGID_6_);fill:#B1B1B0;}
	.st8{clip-path:url(#SVGID_8_);fill:#B1B1B0;}
</style>
<g>
	<g>
		<path class="st0" d="M14.37,28.56c-7.84,0-14.22-6.39-14.22-14.24S6.53,0.09,14.37,0.09s14.22,6.39,14.22,14.24
			S22.21,28.56,14.37,28.56z M14.37,1.11c-7.28,0-13.21,5.93-13.21,13.22s5.92,13.22,13.21,13.22s13.21-5.93,13.21-13.22
			S21.65,1.11,14.37,1.11z"/>
	</g>
	<g>
		<g>
			<path class="st0" d="M13.17,18.12c-0.6,0-1.19-0.1-1.77-0.3c-1.37-0.47-2.47-1.45-3.1-2.75c-1.31-2.69-0.19-5.94,2.5-7.25
				c1.3-0.63,2.77-0.72,4.14-0.25c1.37,0.47,2.47,1.45,3.1,2.75c1.31,2.69,0.19,5.94-2.5,7.25C14.79,17.94,13.98,18.12,13.17,18.12z
				 M13.17,9.31c-0.51,0-1.01,0.11-1.48,0.34c-1.68,0.82-2.38,2.85-1.56,4.53c0.4,0.81,1.08,1.42,1.94,1.72s1.77,0.24,2.58-0.16
				c1.68-0.82,2.38-2.85,1.56-4.53c-0.4-0.81-1.08-1.42-1.94-1.72C13.91,9.37,13.54,9.31,13.17,9.31z"/>
		</g>
		<g>
			<path class="st0" d="M19.97,21.38c-0.27,0-0.54-0.11-0.74-0.32l-3.69-3.95c-0.38-0.41-0.36-1.05,0.05-1.44
				c0.41-0.38,1.05-0.36,1.44,0.05l3.69,3.95c0.38,0.41,0.36,1.05-0.05,1.44C20.46,21.29,20.22,21.38,19.97,21.38z"/>
		</g>
	</g>
</g>
</svg>
