<?xml version="1.0" encoding="utf-8"?>
<!-- Generator: Adobe Illustrator 24.0.1, SVG Export Plug-In . SVG Version: 6.00 Build 0)  -->
<svg version="1.1" id="Capa_1" xmlns="http://www.w3.org/2000/svg" xmlns:xlink="http://www.w3.org/1999/xlink" x="0px" y="0px"
	 viewBox="0 0 365.4 355.43" style="enable-background:new 0 0 365.4 355.43;" xml:space="preserve">
<style type="text/css">
	.st0{fill:#C00D0D;}
	.st1{opacity:0.73;}
	.st2{opacity:0.71;fill:url(#SVGID_3_);}
	.st3{opacity:0.71;fill:url(#SVGID_6_);}
	.st4{opacity:0.71;fill:url(#SVGID_9_);}
	.st5{opacity:0.71;fill:url(#SVGID_12_);}
	.st6{clip-path:url(#SVGID_14_);}
	.st7{clip-path:url(#SVGID_14_);fill:#C00D0D;}
	.st8{opacity:0.71;clip-path:url(#SVGID_14_);fill:url(#SVGID_15_);}
	.st9{fill:#FFFFFF;}
	.st10{fill:#3C3C3B;}
</style>
<g>
	<g>
		<path class="st9" d="M31.28,50.37c0,4.03-1.26,7.1-3.77,9.24c-2.51,2.13-6.09,3.2-10.72,3.2h-3.4v13.3H5.46V38.71H17.4
			c4.53,0,7.98,0.98,10.34,2.93C30.1,43.59,31.28,46.5,31.28,50.37z M13.39,56.31h2.61c2.44,0,4.26-0.48,5.47-1.45
			s1.81-2.37,1.81-4.21c0-1.86-0.51-3.23-1.52-4.12s-2.6-1.33-4.77-1.33h-3.6V56.31z"/>
		<path class="st9" d="M71.47,57.36c0,6.19-1.53,10.95-4.6,14.28c-3.07,3.33-7.46,4.99-13.19,4.99s-10.12-1.66-13.19-4.99
			s-4.6-8.1-4.6-14.33s1.54-10.98,4.61-14.26s7.49-4.92,13.23-4.92s10.13,1.65,13.18,4.96C69.95,46.39,71.47,51.15,71.47,57.36z
			 M44.19,57.36c0,4.18,0.79,7.33,2.38,9.44c1.58,2.12,3.95,3.17,7.11,3.17c6.32,0,9.48-4.2,9.48-12.61
			c0-8.43-3.14-12.64-9.43-12.64c-3.15,0-5.53,1.06-7.13,3.19C44.99,50.03,44.19,53.18,44.19,57.36z"/>
		<path class="st9" d="M78.43,76.11V38.71h7.92v30.86h15.16v6.55H78.43z"/>
		<path class="st9" d="M107.21,76.11V38.71h7.92v37.41H107.21z"/>
		<path class="st9" d="M154.18,38.71v24.2c0,2.76-0.62,5.19-1.85,7.27c-1.24,2.08-3.02,3.68-5.36,4.78s-5.1,1.66-8.28,1.66
			c-4.81,0-8.54-1.23-11.2-3.7c-2.66-2.46-3.99-5.84-3.99-10.12v-24.1h7.9v22.9c0,2.88,0.58,5,1.74,6.34
			c1.16,1.35,3.08,2.02,5.75,2.02c2.59,0,4.47-0.68,5.64-2.03c1.17-1.36,1.75-3.48,1.75-6.38V38.71H154.18z"/>
		<path class="st9" d="M176.96,76.11h-7.92v-30.8h-10.15v-6.6h28.22v6.6h-10.15V76.11z"/>
		<path class="st9" d="M213.59,76.11h-21.52V38.71h21.52v6.5H200v8.21h12.65v6.5H200v9.65h13.6V76.11z"/>
		<path class="st9" d="M228.53,61.76v14.35h-7.92V38.71h10.89c5.08,0,8.83,0.93,11.27,2.78c2.44,1.85,3.66,4.66,3.66,8.43
			c0,2.2-0.61,4.16-1.81,5.87c-1.21,1.71-2.92,3.06-5.14,4.03c5.62,8.41,9.29,13.84,10.99,16.3h-8.79l-8.92-14.35H228.53z
			 M228.53,55.31h2.56c2.5,0,4.35-0.42,5.55-1.25c1.19-0.83,1.79-2.15,1.79-3.94c0-1.77-0.61-3.04-1.83-3.79
			c-1.22-0.75-3.11-1.12-5.66-1.12h-2.4V55.31z"/>
		<path class="st9" d="M277.25,76.11l-2.71-8.9h-13.62l-2.71,8.9h-8.54l13.19-37.56h9.69l13.24,37.56H277.25z M272.65,60.56
			c-2.51-8.07-3.92-12.63-4.23-13.69c-0.32-1.06-0.54-1.89-0.68-2.51c-0.56,2.18-2.17,7.58-4.83,16.2H272.65z"/>
		<path class="st9" d="M322.86,76.11h-10.07l-16.26-28.3h-0.23c0.32,5,0.49,8.56,0.49,10.69v17.6h-7.08V38.71h9.99l16.23,28.02h0.18
			c-0.26-4.86-0.38-8.3-0.38-10.31V38.71h7.13V76.11z"/>
		<path class="st9" d="M365.4,57.36c0,6.19-1.53,10.95-4.6,14.28s-7.46,4.99-13.19,4.99s-10.12-1.66-13.19-4.99s-4.6-8.1-4.6-14.33
			s1.54-10.98,4.61-14.26s7.49-4.92,13.23-4.92s10.13,1.65,13.18,4.96C363.88,46.39,365.4,51.15,365.4,57.36z M338.13,57.36
			c0,4.18,0.79,7.33,2.38,9.44c1.58,2.12,3.95,3.17,7.11,3.17c6.32,0,9.48-4.2,9.48-12.61c0-8.43-3.14-12.64-9.43-12.64
			c-3.15,0-5.53,1.06-7.13,3.19C338.93,50.03,338.13,53.18,338.13,57.36z"/>
	</g>
	<g>
		<path class="st9" d="M76.5,113.26c-1.26,0-2.42-0.23-3.46-0.7c-1.04-0.47-1.92-1.18-2.63-2.15H70.2c0.14,1.13,0.21,2.21,0.21,3.22
			v7.99h-2.94V93.49h2.39l0.41,2.66h0.14c0.75-1.06,1.63-1.83,2.64-2.3c1-0.47,2.15-0.71,3.45-0.71c2.57,0,4.56,0.88,5.96,2.64
			s2.1,4.23,2.1,7.4c0,3.19-0.71,5.67-2.13,7.43S79.02,113.26,76.5,113.26z M76.07,95.63c-1.98,0-3.42,0.55-4.3,1.65
			c-0.89,1.1-1.34,2.85-1.36,5.24v0.66c0,2.73,0.45,4.68,1.36,5.85c0.91,1.18,2.37,1.76,4.37,1.76c1.68,0,2.99-0.68,3.94-2.04
			c0.95-1.36,1.42-3.23,1.42-5.62c0-2.42-0.47-4.28-1.42-5.57C79.13,96.28,77.79,95.63,76.07,95.63z"/>
		<path class="st9" d="M101.61,112.9l-0.58-2.76h-0.14c-0.97,1.22-1.93,2.04-2.89,2.47c-0.96,0.43-2.16,0.65-3.6,0.65
			c-1.92,0-3.43-0.5-4.52-1.49c-1.09-0.99-1.64-2.4-1.64-4.23c0-3.92,3.13-5.98,9.4-6.16l3.29-0.11v-1.21
			c0-1.52-0.33-2.65-0.98-3.37c-0.65-0.73-1.7-1.09-3.14-1.09c-1.62,0-3.45,0.5-5.49,1.49l-0.9-2.25c0.96-0.52,2-0.93,3.14-1.22
			c1.14-0.29,2.28-0.44,3.42-0.44c2.31,0,4.03,0.51,5.14,1.54c1.12,1.03,1.67,2.67,1.67,4.94v13.25H101.61z M94.97,110.83
			c1.83,0,3.26-0.5,4.31-1.51c1.04-1,1.57-2.41,1.57-4.22v-1.75l-2.94,0.12c-2.34,0.08-4.02,0.45-5.05,1.09
			c-1.03,0.64-1.55,1.64-1.55,3c0,1.06,0.32,1.87,0.96,2.43C92.92,110.55,93.82,110.83,94.97,110.83z"/>
		<path class="st9" d="M118.69,93.13c0.86,0,1.63,0.07,2.32,0.21l-0.41,2.73c-0.8-0.18-1.51-0.27-2.12-0.27
			c-1.57,0-2.91,0.64-4.03,1.91s-1.67,2.86-1.67,4.77v10.42h-2.94V93.49h2.42l0.34,3.6h0.14c0.72-1.26,1.59-2.24,2.6-2.92
			S117.47,93.13,118.69,93.13z"/>
		<path class="st9" d="M136.56,112.9l-0.58-2.76h-0.14c-0.97,1.22-1.93,2.04-2.89,2.47c-0.96,0.43-2.16,0.65-3.6,0.65
			c-1.92,0-3.43-0.5-4.52-1.49c-1.09-0.99-1.64-2.4-1.64-4.23c0-3.92,3.13-5.98,9.4-6.16l3.29-0.11v-1.21
			c0-1.52-0.33-2.65-0.98-3.37c-0.65-0.73-1.7-1.09-3.14-1.09c-1.62,0-3.45,0.5-5.49,1.49l-0.9-2.25c0.96-0.52,2-0.93,3.14-1.22
			c1.14-0.29,2.28-0.44,3.42-0.44c2.31,0,4.03,0.51,5.14,1.54c1.12,1.03,1.67,2.67,1.67,4.94v13.25H136.56z M129.93,110.83
			c1.83,0,3.26-0.5,4.31-1.51c1.04-1,1.57-2.41,1.57-4.22v-1.75l-2.94,0.12c-2.34,0.08-4.02,0.45-5.05,1.09
			c-1.03,0.64-1.55,1.64-1.55,3c0,1.06,0.32,1.87,0.96,2.43C127.87,110.55,128.77,110.83,129.93,110.83z"/>
		<path class="st9" d="M156.97,93.49v12.6c0,1.58,0.36,2.76,1.08,3.54s1.85,1.17,3.38,1.17c2.03,0,3.51-0.55,4.45-1.67
			s1.41-2.92,1.41-5.44v-10.2h2.94v19.42h-2.42l-0.42-2.6h-0.16c-0.6,0.96-1.44,1.69-2.5,2.2c-1.07,0.51-2.29,0.76-3.66,0.76
			c-2.36,0-4.13-0.56-5.3-1.68c-1.17-1.12-1.76-2.92-1.76-5.38v-12.7H156.97z"/>
		<path class="st9" d="M189.73,112.9v-12.56c0-1.58-0.36-2.76-1.08-3.54c-0.72-0.78-1.85-1.17-3.38-1.17
			c-2.03,0-3.52,0.55-4.46,1.65c-0.94,1.1-1.42,2.91-1.42,5.44v10.19h-2.94V93.49h2.39l0.48,2.66h0.14c0.6-0.96,1.45-1.7,2.53-2.22
			c1.09-0.53,2.29-0.79,3.63-0.79c2.34,0,4.09,0.56,5.27,1.69s1.77,2.93,1.77,5.41v12.67H189.73z"/>
		<path class="st9" d="M232.84,112.9v-12.63c0-1.55-0.33-2.71-0.99-3.48c-0.66-0.77-1.69-1.16-3.08-1.16
			c-1.83,0-3.18,0.53-4.05,1.58s-1.31,2.67-1.31,4.85v10.84h-2.94v-12.63c0-1.55-0.33-2.71-0.99-3.48c-0.66-0.77-1.69-1.16-3.1-1.16
			c-1.84,0-3.19,0.55-4.04,1.66c-0.86,1.1-1.28,2.91-1.28,5.43v10.19h-2.94V93.49h2.39l0.48,2.66h0.14
			c0.55-0.94,1.34-1.68,2.34-2.21s2.14-0.8,3.39-0.8c3.03,0,5.01,1.1,5.95,3.29h0.14c0.58-1.02,1.42-1.82,2.51-2.41
			c1.1-0.59,2.35-0.89,3.75-0.89c2.19,0,3.84,0.56,4.93,1.69c1.09,1.13,1.64,2.93,1.64,5.41v12.67H232.84z"/>
		<path class="st9" d="M250.03,113.26c-2.87,0-5.13-0.87-6.79-2.62c-1.66-1.75-2.49-4.17-2.49-7.28c0-3.13,0.77-5.62,2.31-7.46
			c1.54-1.84,3.61-2.76,6.2-2.76c2.43,0,4.35,0.8,5.77,2.4c1.42,1.6,2.12,3.71,2.12,6.33v1.86H243.8c0.06,2.28,0.63,4.01,1.73,5.19
			c1.09,1.18,2.63,1.77,4.61,1.77c2.09,0,4.15-0.44,6.19-1.31V112c-1.04,0.45-2.02,0.77-2.95,0.96
			C252.46,113.16,251.34,113.26,250.03,113.26z M249.23,95.59c-1.56,0-2.8,0.51-3.73,1.52c-0.93,1.02-1.47,2.42-1.64,4.22h10.14
			c0-1.85-0.41-3.27-1.24-4.26C251.95,96.09,250.77,95.59,249.23,95.59z"/>
		<path class="st9" d="M259.82,121.62c-1.12,0-2.03-0.15-2.73-0.44v-2.39c0.81,0.24,1.62,0.35,2.41,0.35c0.92,0,1.6-0.25,2.03-0.75
			s0.65-1.27,0.65-2.29v-22.6h2.94v22.39C265.11,119.7,263.34,121.62,259.82,121.62z M261.92,88.23c0-0.67,0.17-1.17,0.5-1.48
			c0.33-0.31,0.74-0.47,1.24-0.47c0.47,0,0.88,0.16,1.22,0.48c0.34,0.32,0.51,0.81,0.51,1.47s-0.17,1.15-0.51,1.48
			c-0.34,0.33-0.75,0.49-1.22,0.49c-0.5,0-0.91-0.16-1.24-0.49C262.09,89.38,261.92,88.89,261.92,88.23z"/>
		<path class="st9" d="M288.08,103.18c0,3.17-0.8,5.64-2.39,7.41s-3.79,2.67-6.6,2.67c-1.73,0-3.27-0.41-4.62-1.22
			c-1.35-0.81-2.38-1.98-3.12-3.51s-1.1-3.31-1.1-5.35c0-3.17,0.79-5.63,2.37-7.4c1.58-1.76,3.78-2.65,6.58-2.65
			c2.71,0,4.87,0.9,6.47,2.71C287.28,97.65,288.08,100.09,288.08,103.18z M273.3,103.18c0,2.48,0.5,4.37,1.49,5.67
			s2.45,1.95,4.37,1.95s3.38-0.65,4.38-1.94s1.5-3.19,1.5-5.68c0-2.47-0.5-4.34-1.5-5.62c-1-1.28-2.47-1.92-4.42-1.92
			c-1.92,0-3.38,0.63-4.35,1.9C273.79,98.79,273.3,100.67,273.3,103.18z"/>
		<path class="st9" d="M302.08,93.13c0.86,0,1.63,0.07,2.32,0.21l-0.41,2.73c-0.8-0.18-1.51-0.27-2.12-0.27
			c-1.57,0-2.91,0.64-4.03,1.91s-1.67,2.86-1.67,4.77v10.42h-2.94V93.49h2.42l0.34,3.6h0.14c0.72-1.26,1.59-2.24,2.6-2.92
			S300.87,93.13,302.08,93.13z"/>
	</g>
	<g>
		<path class="st9" d="M28.89,29.64l-2.41-6.91h-9.23l-2.36,6.91h-4.16l9.03-25h4.29l9.03,25H28.89z M25.43,19.22l-2.26-6.78
			c-0.17-0.45-0.39-1.17-0.69-2.15c-0.29-0.98-0.49-1.69-0.6-2.15c-0.3,1.4-0.73,2.92-1.3,4.58l-2.18,6.49H25.43z"/>
		<path class="st9" d="M55.87,16.95c0,4.11-1.11,7.25-3.32,9.43c-2.21,2.17-5.4,3.26-9.56,3.26h-6.76V4.75h7.47
			c3.84,0,6.83,1.07,8.97,3.2C54.81,10.08,55.87,13.08,55.87,16.95z M51.71,17.09c0-5.96-2.7-8.94-8.11-8.94h-3.42v18.07h2.81
			C48.8,26.22,51.71,23.18,51.71,17.09z"/>
		<path class="st9" d="M80.07,29.64h-3.96V18.42H64.97v11.22h-3.95V4.75h3.95v10.18h11.13V4.75h3.96V29.64z"/>
		<path class="st9" d="M100.05,29.64H86.39V4.75h13.66v3.44h-9.71v6.78h9.1v3.41h-9.1v7.82h9.71V29.64z"/>
		<path class="st9" d="M119.16,22.88c0,2.21-0.78,3.95-2.33,5.21s-3.69,1.89-6.42,1.89s-4.97-0.44-6.71-1.31v-3.85
			c1.1,0.53,2.27,0.95,3.51,1.26c1.24,0.31,2.39,0.46,3.46,0.46c1.56,0,2.72-0.31,3.46-0.92c0.74-0.61,1.12-1.44,1.12-2.47
			c0-0.93-0.34-1.72-1.02-2.37c-0.68-0.65-2.09-1.41-4.23-2.3c-2.2-0.92-3.75-1.97-4.66-3.15c-0.9-1.18-1.35-2.6-1.35-4.26
			c0-2.08,0.72-3.71,2.15-4.9c1.43-1.19,3.35-1.79,5.76-1.79c2.31,0,4.61,0.52,6.9,1.57l-1.25,3.32c-2.15-0.93-4.06-1.4-5.75-1.4
			c-1.28,0-2.25,0.29-2.91,0.86c-0.66,0.57-0.99,1.33-0.99,2.27c0,0.65,0.13,1.2,0.4,1.66c0.26,0.46,0.7,0.89,1.3,1.3
			c0.61,0.41,1.7,0.95,3.27,1.62c1.77,0.76,3.07,1.47,3.9,2.13c0.83,0.66,1.43,1.4,1.82,2.23
			C118.97,20.78,119.16,21.76,119.16,22.88z"/>
		<path class="st9" d="M123.8,29.64V4.75h3.95v24.89H123.8z"/>
		<path class="st9" d="M147.85,4.75h4.1l-8.46,24.89h-4.16l-8.42-24.89h4.06l5.04,15.48c0.26,0.74,0.54,1.69,0.84,2.85
			c0.3,1.16,0.49,2.03,0.58,2.6c0.14-0.86,0.36-1.86,0.66-3c0.3-1.13,0.54-1.98,0.73-2.52L147.85,4.75z"/>
		<path class="st9" d="M176.54,17.16c0,4.05-0.98,7.2-2.95,9.45c-1.96,2.25-4.75,3.37-8.35,3.37c-3.64,0-6.44-1.12-8.4-3.35
			c-1.96-2.23-2.93-5.4-2.93-9.51s0.98-7.26,2.95-9.47c1.97-2.2,4.77-3.3,8.42-3.3c3.59,0,6.36,1.12,8.32,3.35
			S176.54,13.09,176.54,17.16z M158.11,17.16c0,3.06,0.6,5.39,1.8,6.97s2.98,2.38,5.33,2.38c2.35,0,4.12-0.78,5.31-2.35
			c1.2-1.57,1.79-3.9,1.79-7c0-3.05-0.59-5.37-1.78-6.95s-2.95-2.37-5.29-2.37c-2.37,0-4.15,0.79-5.36,2.37
			C158.71,11.79,158.11,14.11,158.11,17.16z"/>
		<path class="st9" d="M205.43,29.64l-2.41-6.91h-9.23l-2.36,6.91h-4.16l9.03-25h4.29l9.03,25H205.43z M201.97,19.22l-2.26-6.78
			c-0.17-0.45-0.39-1.17-0.69-2.15c-0.29-0.98-0.49-1.69-0.6-2.15c-0.3,1.4-0.73,2.92-1.3,4.58l-2.18,6.49H201.97z"/>
		<path class="st9" d="M221.53,4.75h7.17c3.33,0,5.73,0.5,7.21,1.5c1.48,1,2.22,2.58,2.22,4.73c0,1.45-0.36,2.66-1.09,3.63
			c-0.73,0.96-1.77,1.57-3.14,1.82v0.17c1.7,0.33,2.94,0.98,3.74,1.95c0.8,0.97,1.2,2.28,1.2,3.94c0,2.24-0.76,3.99-2.27,5.25
			c-1.51,1.27-3.62,1.9-6.32,1.9h-8.72V4.75z M225.48,15.03h3.8c1.65,0,2.86-0.27,3.62-0.81s1.14-1.46,1.14-2.75
			c0-1.17-0.41-2.01-1.23-2.54c-0.82-0.52-2.12-0.78-3.91-0.78h-3.42V15.03z M225.48,18.33v7.88h4.2c1.65,0,2.9-0.33,3.74-0.98
			c0.84-0.65,1.26-1.68,1.26-3.09c0-1.29-0.43-2.25-1.29-2.88c-0.86-0.62-2.16-0.94-3.92-0.94H225.48z"/>
		<path class="st9" d="M258.81,29.64l-2.41-6.91h-9.23l-2.36,6.91h-4.16l9.03-25h4.29l9.03,25H258.81z M255.35,19.22l-2.26-6.78
			c-0.17-0.45-0.39-1.17-0.69-2.15c-0.29-0.98-0.49-1.69-0.6-2.15c-0.3,1.4-0.73,2.92-1.3,4.58l-2.18,6.49H255.35z"/>
		<path class="st9" d="M280.08,22.88c0,2.21-0.78,3.95-2.33,5.21s-3.69,1.89-6.42,1.89s-4.97-0.44-6.71-1.31v-3.85
			c1.1,0.53,2.27,0.95,3.51,1.26c1.24,0.31,2.39,0.46,3.46,0.46c1.56,0,2.72-0.31,3.46-0.92c0.74-0.61,1.12-1.44,1.12-2.47
			c0-0.93-0.34-1.72-1.02-2.37c-0.68-0.65-2.09-1.41-4.23-2.3c-2.2-0.92-3.75-1.97-4.66-3.15c-0.9-1.18-1.35-2.6-1.35-4.26
			c0-2.08,0.72-3.71,2.15-4.9c1.43-1.19,3.35-1.79,5.76-1.79c2.31,0,4.61,0.52,6.9,1.57l-1.25,3.32c-2.15-0.93-4.06-1.4-5.75-1.4
			c-1.28,0-2.25,0.29-2.91,0.86c-0.66,0.57-0.99,1.33-0.99,2.27c0,0.65,0.13,1.2,0.4,1.66c0.26,0.46,0.7,0.89,1.3,1.3
			c0.61,0.41,1.7,0.95,3.27,1.62c1.77,0.76,3.07,1.47,3.9,2.13c0.83,0.66,1.43,1.4,1.82,2.23
			C279.89,20.78,280.08,21.76,280.08,22.88z"/>
		<path class="st9" d="M298.38,29.64h-13.66V4.75h13.66v3.44h-9.71v6.78h9.1v3.41h-9.1v7.82h9.71V29.64z"/>
		<path class="st9" d="M331.96,16.95c0,4.11-1.11,7.25-3.32,9.43c-2.21,2.17-5.4,3.26-9.56,3.26h-6.76V4.75h7.47
			c3.84,0,6.83,1.07,8.97,3.2C330.89,10.08,331.96,13.08,331.96,16.95z M327.79,17.09c0-5.96-2.7-8.94-8.11-8.94h-3.42v18.07h2.81
			C324.89,26.22,327.79,23.18,327.79,17.09z"/>
		<path class="st9" d="M350.77,29.64h-13.66V4.75h13.66v3.44h-9.71v6.78h9.1v3.41h-9.1v7.82h9.71V29.64z"/>
	</g>
	<g>
		<path class="st9" d="M239.73,155.99c-0.51-2.05-0.84-3.52-1-4.41c-0.15,0.82-0.43,2.18-0.86,4.07s-1.38,5.61-2.84,11.17h7.53
			l-1.52-5.81C240.67,159.71,240.24,158.04,239.73,155.99z"/>
		<path class="st9" d="M50.98,153.13h-1.89v8.09h1.79c3.34,0,5.01-1.48,5.01-4.43C55.89,154.35,54.25,153.13,50.98,153.13z"/>
		<path class="st9" d="M272.9,153.61h-2.78v19.84h2.13c2.9,0,5.03-0.84,6.39-2.53c1.36-1.69,2.03-4.27,2.03-7.74
			c0-3.25-0.64-5.65-1.92-7.22C277.46,154.39,275.52,153.61,272.9,153.61z"/>
		<path class="st9" d="M312.89,153.17c-4.79,0-7.19,3.46-7.19,10.37c0,6.85,2.38,10.27,7.14,10.27c2.42,0,4.21-0.83,5.39-2.5
			c1.17-1.66,1.75-4.26,1.75-7.78c0-3.54-0.59-6.15-1.78-7.84C317.02,154.02,315.25,153.17,312.89,153.17z"/>
		<path class="st9" d="M21.21,129.32c-7.14,0-12.93,5.79-12.93,12.93v56.94h339.77c7.14,0,12.93-5.79,12.93-12.93v-56.94H21.21z
			 M59.01,181.3l-7.5-12.89h-2.42v12.89h-9.56v-35.42h11.59c9.62,0,14.43,3.49,14.43,10.47c0,4.1-2,7.28-6,9.52l10.31,15.43H59.01z
			 M94.09,153.56H82.64v5.57h10.6v7.68h-10.6v6.69h11.45v7.8H73.08v-35.42h21.01V153.56z M109.45,157.17c0.72,0.55,2.67,1.55,5.85,3
			c3.05,1.37,5.17,2.85,6.35,4.42c1.19,1.58,1.78,3.56,1.78,5.95c0,2.2-0.56,4.15-1.67,5.85c-1.11,1.7-2.72,3.03-4.82,3.97
			c-2.1,0.94-4.56,1.42-7.38,1.42c-2.36,0-4.33-0.17-5.93-0.5c-1.6-0.33-3.26-0.91-4.99-1.73v-8.53c1.82,0.94,3.72,1.67,5.69,2.19
			s3.78,0.79,5.42,0.79c1.42,0,2.46-0.25,3.12-0.74c0.66-0.49,0.99-1.13,0.99-1.9c0-0.49-0.13-0.91-0.4-1.27s-0.69-0.73-1.28-1.1
			c-0.59-0.37-2.16-1.13-4.71-2.28c-2.31-1.05-4.04-2.07-5.19-3.05c-1.15-0.99-2.01-2.12-2.57-3.39c-0.56-1.28-0.83-2.79-0.83-4.53
			c0-3.26,1.19-5.81,3.56-7.63c2.37-1.83,5.63-2.74,9.78-2.74c3.66,0,7.4,0.85,11.21,2.54l-2.93,7.39
			c-3.31-1.52-6.17-2.28-8.57-2.28c-1.24,0-2.15,0.22-2.71,0.65c-0.57,0.44-0.85,0.98-0.85,1.62
			C108.37,156,108.73,156.62,109.45,157.17z M158.99,167.2c0,4.64-1.31,8.23-3.93,10.77c-2.62,2.54-6.4,3.82-11.34,3.82
			c-4.83,0-8.53-1.24-11.12-3.71c-2.59-2.47-3.88-6.02-3.88-10.66v-21.54h9.61v20.79c0,2.5,0.47,4.32,1.4,5.45s2.32,1.7,4.14,1.7
			c1.95,0,3.37-0.56,4.25-1.68c0.88-1.12,1.32-2.96,1.32-5.51v-20.74h9.56V167.2z M189.61,181.3h-23.19v-35.42h9.56v27.69h13.63
			V181.3z M219.5,153.71h-8.62v27.6h-9.56v-27.6h-8.64v-7.83h26.82V153.71z M246.28,181.3l-1.74-6.64h-11.5l-1.79,6.64h-10.51
			l11.55-35.57h12.76l11.69,35.57H246.28z M285.72,176.51c-3.25,3.2-7.82,4.8-13.71,4.8h-11.45v-35.42h12.25
			c5.68,0,10.07,1.45,13.16,4.36c3.09,2.91,4.63,7.11,4.63,12.6C290.6,168.75,288.97,173.31,285.72,176.51z M325.67,177.14
			c-2.92,3.1-7.2,4.65-12.83,4.65c-5.55,0-9.81-1.56-12.77-4.68c-2.96-3.12-4.44-7.66-4.44-13.62c0-5.9,1.47-10.4,4.42-13.51
			c2.94-3.11,7.23-4.66,12.84-4.66c5.63,0,9.9,1.54,12.81,4.63c2.9,3.09,4.36,7.62,4.36,13.59
			C330.05,169.5,328.59,174.04,325.67,177.14z"/>
	</g>
	<g>
		<polygon class="st9" points="45.25,103.95 30.69,112.9 30.69,94.99 		"/>
		<g>
			<path class="st9" d="M75.74,245.5l-7.98-20.88h-0.13c0.15,1.65,0.23,3.62,0.23,5.9v14.99h-2.53v-23.56h4.12l7.45,19.43h0.13
				l7.52-19.43h4.09v23.56H85.9v-15.18c0-1.74,0.08-3.63,0.23-5.67h-0.13l-8.05,20.85H75.74z"/>
			<path class="st9" d="M97.2,227.84v11.46c0,1.44,0.33,2.51,0.98,3.22c0.66,0.71,1.68,1.06,3.08,1.06c1.85,0,3.2-0.5,4.05-1.52
				c0.85-1.01,1.28-2.66,1.28-4.95v-9.28h2.67v17.66h-2.21l-0.39-2.37h-0.14c-0.55,0.87-1.31,1.54-2.28,2
				c-0.97,0.46-2.08,0.69-3.32,0.69c-2.15,0-3.75-0.51-4.82-1.53c-1.07-1.02-1.6-2.65-1.6-4.9v-11.55H97.2z"/>
			<path class="st9" d="M117.59,245.5h-2.67v-25.07h2.67V245.5z"/>
			<path class="st9" d="M128.96,243.61c0.47,0,0.93-0.03,1.37-0.1c0.44-0.07,0.79-0.14,1.05-0.22v2.05
				c-0.29,0.14-0.72,0.25-1.28,0.35c-0.56,0.09-1.07,0.14-1.52,0.14c-3.41,0-5.12-1.8-5.12-5.4v-10.51h-2.53v-1.29l2.53-1.11
				l1.13-3.77h1.55v4.09h5.12v2.08h-5.12v10.39c0,1.06,0.25,1.88,0.76,2.45C127.39,243.33,128.08,243.61,128.96,243.61z"/>
			<path class="st9" d="M134.67,223.05c0-0.61,0.15-1.06,0.45-1.34c0.3-0.29,0.68-0.43,1.13-0.43c0.43,0,0.8,0.14,1.11,0.43
				c0.31,0.29,0.47,0.74,0.47,1.34c0,0.6-0.16,1.05-0.47,1.35c-0.31,0.3-0.68,0.44-1.11,0.44c-0.45,0-0.83-0.15-1.13-0.44
				C134.82,224.1,134.67,223.66,134.67,223.05z M137.57,245.5h-2.67v-17.66h2.67V245.5z"/>
			<path class="st9" d="M165.73,245.5v-11.49c0-1.41-0.3-2.46-0.9-3.17c-0.6-0.7-1.53-1.05-2.8-1.05c-1.66,0-2.89,0.48-3.69,1.43
				c-0.79,0.96-1.19,2.43-1.19,4.42v9.86h-2.67v-11.49c0-1.41-0.3-2.46-0.9-3.17c-0.6-0.7-1.54-1.05-2.82-1.05
				c-1.67,0-2.9,0.5-3.68,1.51c-0.78,1-1.17,2.65-1.17,4.94v9.26h-2.67v-17.66h2.17l0.43,2.42h0.13c0.5-0.86,1.21-1.53,2.13-2.01
				c0.92-0.48,1.95-0.73,3.08-0.73c2.76,0,4.56,1,5.41,3h0.13c0.53-0.92,1.29-1.65,2.29-2.19s2.14-0.81,3.41-0.81
				c2,0,3.49,0.51,4.48,1.54c0.99,1.03,1.49,2.67,1.49,4.92v11.52H165.73z"/>
			<path class="st9" d="M184.75,245.5l-0.53-2.51h-0.13c-0.88,1.11-1.76,1.86-2.63,2.25c-0.88,0.39-1.97,0.59-3.28,0.59
				c-1.75,0-3.12-0.45-4.11-1.35c-0.99-0.9-1.49-2.19-1.49-3.85c0-3.57,2.85-5.44,8.55-5.61l2.99-0.1v-1.1
				c0-1.38-0.3-2.41-0.89-3.07c-0.6-0.66-1.55-0.99-2.86-0.99c-1.47,0-3.13,0.45-4.99,1.35l-0.82-2.05
				c0.87-0.47,1.82-0.84,2.86-1.11c1.04-0.27,2.07-0.4,3.12-0.4c2.1,0,3.66,0.47,4.68,1.4c1.01,0.93,1.52,2.43,1.52,4.5v12.05
				H184.75z M178.72,243.61c1.66,0,2.97-0.46,3.92-1.37c0.95-0.91,1.42-2.19,1.42-3.83v-1.59l-2.67,0.11
				c-2.12,0.08-3.66,0.41-4.6,0.99c-0.94,0.58-1.41,1.5-1.41,2.73c0,0.97,0.29,1.7,0.88,2.21S177.67,243.61,178.72,243.61z"/>
			<path class="st9" d="M197.94,243.61c0.47,0,0.93-0.03,1.37-0.1c0.44-0.07,0.79-0.14,1.05-0.22v2.05
				c-0.29,0.14-0.72,0.25-1.28,0.35c-0.56,0.09-1.07,0.14-1.52,0.14c-3.41,0-5.12-1.8-5.12-5.4v-10.51h-2.53v-1.29l2.53-1.11
				l1.13-3.77h1.55v4.09h5.12v2.08h-5.12v10.39c0,1.06,0.25,1.88,0.76,2.45C196.37,243.33,197.06,243.61,197.94,243.61z"/>
			<path class="st9" d="M211.33,245.82c-2.61,0-4.67-0.79-6.17-2.38s-2.26-3.8-2.26-6.62c0-2.85,0.7-5.11,2.1-6.78
				s3.28-2.51,5.64-2.51c2.21,0,3.96,0.73,5.25,2.18c1.29,1.46,1.93,3.38,1.93,5.76v1.69h-12.15c0.05,2.07,0.58,3.65,1.57,4.72
				c0.99,1.08,2.39,1.61,4.19,1.61c1.9,0,3.78-0.4,5.63-1.19v2.38c-0.94,0.41-1.84,0.7-2.68,0.88
				C213.54,245.73,212.53,245.82,211.33,245.82z M210.61,229.76c-1.42,0-2.55,0.46-3.39,1.39c-0.84,0.92-1.34,2.2-1.49,3.83h9.22
				c0-1.69-0.38-2.98-1.13-3.88C213.08,230.21,212,229.76,210.61,229.76z"/>
			<path class="st9" d="M230.43,227.52c0.78,0,1.49,0.06,2.11,0.19l-0.37,2.48c-0.73-0.16-1.37-0.24-1.93-0.24
				c-1.43,0-2.65,0.58-3.66,1.74c-1.01,1.16-1.52,2.61-1.52,4.33v9.47h-2.67v-17.66h2.21l0.31,3.27h0.13
				c0.65-1.15,1.44-2.04,2.37-2.66S229.32,227.52,230.43,227.52z"/>
			<path class="st9" d="M235.61,223.05c0-0.61,0.15-1.06,0.45-1.34c0.3-0.29,0.68-0.43,1.13-0.43c0.43,0,0.8,0.14,1.11,0.43
				c0.31,0.29,0.47,0.74,0.47,1.34c0,0.6-0.16,1.05-0.47,1.35c-0.31,0.3-0.68,0.44-1.11,0.44c-0.45,0-0.83-0.15-1.13-0.44
				C235.76,224.1,235.61,223.66,235.61,223.05z M238.51,245.5h-2.67v-17.66h2.67V245.5z"/>
			<path class="st9" d="M255.02,245.5l-0.53-2.51h-0.13c-0.88,1.11-1.76,1.86-2.63,2.25c-0.88,0.39-1.97,0.59-3.28,0.59
				c-1.75,0-3.12-0.45-4.11-1.35c-0.99-0.9-1.49-2.19-1.49-3.85c0-3.57,2.85-5.44,8.55-5.61l2.99-0.1v-1.1
				c0-1.38-0.3-2.41-0.89-3.07c-0.6-0.66-1.55-0.99-2.86-0.99c-1.47,0-3.13,0.45-4.99,1.35l-0.82-2.05
				c0.87-0.47,1.82-0.84,2.86-1.11c1.04-0.27,2.07-0.4,3.12-0.4c2.1,0,3.66,0.47,4.68,1.4c1.01,0.93,1.52,2.43,1.52,4.5v12.05
				H255.02z M248.99,243.61c1.66,0,2.97-0.46,3.92-1.37c0.95-0.91,1.42-2.19,1.42-3.83v-1.59l-2.67,0.11
				c-2.12,0.08-3.66,0.41-4.6,0.99c-0.94,0.58-1.41,1.5-1.41,2.73c0,0.97,0.29,1.7,0.88,2.21S247.94,243.61,248.99,243.61z"/>
			<path class="st9" d="M265.18,245.5h-2.67v-25.07h2.67V245.5z"/>
			<path class="st9" d="M68.06,279.5h-2.74v-23.56h13.12v2.43H68.06V267h9.76v2.43h-9.76V279.5z"/>
			<path class="st9" d="M84.45,261.84v11.46c0,1.44,0.33,2.51,0.98,3.22c0.66,0.71,1.68,1.06,3.08,1.06c1.85,0,3.2-0.5,4.05-1.52
				c0.85-1.01,1.28-2.66,1.28-4.95v-9.28h2.67v17.66H94.3l-0.39-2.37h-0.14c-0.55,0.87-1.31,1.54-2.28,2
				c-0.97,0.46-2.08,0.69-3.32,0.69c-2.15,0-3.75-0.51-4.82-1.53c-1.07-1.02-1.6-2.65-1.6-4.9v-11.55H84.45z"/>
			<path class="st9" d="M109.62,279.82c-2.61,0-4.67-0.79-6.17-2.38s-2.26-3.8-2.26-6.62c0-2.85,0.7-5.11,2.1-6.78
				s3.28-2.51,5.64-2.51c2.21,0,3.96,0.73,5.25,2.18c1.29,1.46,1.93,3.38,1.93,5.76v1.69h-12.15c0.05,2.07,0.58,3.65,1.57,4.72
				c0.99,1.08,2.39,1.61,4.19,1.61c1.9,0,3.78-0.4,5.63-1.19v2.38c-0.94,0.41-1.84,0.7-2.68,0.88
				C111.83,279.73,110.82,279.82,109.62,279.82z M108.9,263.76c-1.42,0-2.55,0.46-3.39,1.39c-0.84,0.92-1.34,2.2-1.49,3.83h9.22
				c0-1.69-0.38-2.98-1.13-3.88C111.37,264.21,110.29,263.76,108.9,263.76z"/>
			<path class="st9" d="M128.72,261.52c0.78,0,1.49,0.06,2.11,0.19l-0.37,2.48c-0.73-0.16-1.37-0.24-1.93-0.24
				c-1.43,0-2.65,0.58-3.66,1.74c-1.01,1.16-1.52,2.61-1.52,4.33v9.47h-2.67v-17.66h2.21l0.31,3.27h0.13
				c0.65-1.15,1.44-2.04,2.37-2.66S127.61,261.52,128.72,261.52z"/>
			<path class="st9" d="M139.83,277.61c0.47,0,0.93-0.03,1.37-0.1c0.44-0.07,0.79-0.14,1.05-0.22v2.05
				c-0.29,0.14-0.72,0.25-1.28,0.35c-0.56,0.09-1.07,0.14-1.52,0.14c-3.41,0-5.12-1.8-5.12-5.4v-10.51h-2.53v-1.29l2.53-1.11
				l1.13-3.77h1.55v4.09h5.12v2.08h-5.12v10.39c0,1.06,0.25,1.88,0.76,2.45C138.25,277.33,138.95,277.61,139.83,277.61z"/>
			<path class="st9" d="M153.22,279.82c-2.61,0-4.67-0.79-6.17-2.38s-2.26-3.8-2.26-6.62c0-2.85,0.7-5.11,2.1-6.78
				s3.28-2.51,5.64-2.51c2.21,0,3.96,0.73,5.25,2.18c1.29,1.46,1.93,3.38,1.93,5.76v1.69h-12.15c0.05,2.07,0.58,3.65,1.57,4.72
				c0.99,1.08,2.39,1.61,4.19,1.61c1.9,0,3.78-0.4,5.63-1.19v2.38c-0.94,0.41-1.84,0.7-2.68,0.88
				C155.43,279.73,154.41,279.82,153.22,279.82z M152.49,263.76c-1.42,0-2.55,0.46-3.39,1.39c-0.84,0.92-1.34,2.2-1.49,3.83h9.22
				c0-1.69-0.38-2.98-1.13-3.88C154.96,264.21,153.89,263.76,152.49,263.76z"/>
			<path class="st9" d="M83.71,313.5h-3.12l-12.86-19.77h-0.13c0.17,2.32,0.26,4.45,0.26,6.38v13.39h-2.53v-23.56h3.09l12.83,19.69
				h0.13c-0.02-0.29-0.07-1.22-0.15-2.8c-0.08-1.57-0.1-2.7-0.08-3.38v-13.52h2.56V313.5z"/>
			<path class="st9" d="M105,304.65c0,2.88-0.72,5.13-2.17,6.74c-1.45,1.62-3.45,2.42-6,2.42c-1.58,0-2.98-0.37-4.2-1.11
				c-1.22-0.74-2.17-1.8-2.83-3.19c-0.67-1.39-1-3.01-1-4.87c0-2.88,0.72-5.12,2.16-6.73c1.44-1.61,3.43-2.41,5.99-2.41
				c2.47,0,4.43,0.82,5.88,2.47C104.28,299.63,105,301.85,105,304.65z M91.56,304.65c0,2.26,0.45,3.98,1.35,5.16
				c0.9,1.18,2.23,1.77,3.98,1.77c1.75,0,3.08-0.59,3.98-1.76c0.91-1.18,1.36-2.9,1.36-5.17c0-2.24-0.45-3.95-1.36-5.12
				c-0.91-1.17-2.25-1.75-4.02-1.75c-1.75,0-3.07,0.57-3.96,1.72S91.56,302.38,91.56,304.65z"/>
			<path class="st9" d="M125.71,313.82c-2.61,0-4.67-0.79-6.17-2.38s-2.26-3.8-2.26-6.62c0-2.85,0.7-5.11,2.1-6.78
				s3.28-2.51,5.64-2.51c2.21,0,3.96,0.73,5.25,2.18c1.29,1.46,1.93,3.38,1.93,5.76v1.69h-12.15c0.05,2.07,0.58,3.65,1.57,4.72
				c0.99,1.08,2.39,1.61,4.19,1.61c1.9,0,3.78-0.4,5.63-1.19v2.38c-0.94,0.41-1.84,0.7-2.68,0.88
				C127.92,313.73,126.9,313.82,125.71,313.82z M124.98,297.76c-1.42,0-2.55,0.46-3.39,1.39c-0.84,0.92-1.34,2.2-1.49,3.83h9.22
				c0-1.69-0.38-2.98-1.13-3.88C127.45,298.21,126.38,297.76,124.98,297.76z"/>
			<path class="st9" d="M148.13,308.68c0,1.64-0.61,2.91-1.83,3.8s-2.94,1.34-5.15,1.34c-2.34,0-4.17-0.37-5.47-1.11v-2.48
				c0.85,0.43,1.76,0.77,2.73,1.01c0.97,0.25,1.91,0.37,2.81,0.37c1.39,0,2.47-0.22,3.22-0.67c0.75-0.45,1.13-1.12,1.13-2.04
				c0-0.69-0.3-1.28-0.89-1.76c-0.6-0.49-1.76-1.07-3.49-1.73c-1.64-0.61-2.81-1.15-3.5-1.6c-0.69-0.46-1.21-0.97-1.54-1.55
				c-0.34-0.58-0.51-1.27-0.51-2.08c0-1.44,0.58-2.58,1.75-3.41c1.17-0.83,2.77-1.25,4.81-1.25c1.9,0,3.76,0.39,5.57,1.16
				l-0.95,2.17c-1.77-0.73-3.38-1.1-4.81-1.1c-1.27,0-2.22,0.2-2.87,0.6s-0.97,0.95-0.97,1.64c0,0.47,0.12,0.88,0.36,1.21
				s0.63,0.65,1.17,0.95c0.54,0.3,1.57,0.74,3.09,1.31c2.09,0.76,3.51,1.53,4.24,2.3C147.76,306.54,148.13,307.51,148.13,308.68z"/>
			<path class="st9" d="M159.53,313.82c-2.55,0-4.53-0.79-5.93-2.36c-1.4-1.57-2.1-3.8-2.1-6.68c0-2.95,0.71-5.24,2.13-6.85
				s3.45-2.42,6.08-2.42c0.85,0,1.7,0.09,2.54,0.27c0.85,0.18,1.51,0.4,2,0.64l-0.82,2.27c-0.59-0.24-1.23-0.43-1.93-0.59
				c-0.7-0.16-1.32-0.23-1.85-0.23c-3.58,0-5.38,2.29-5.38,6.87c0,2.17,0.44,3.83,1.31,4.99c0.87,1.16,2.17,1.74,3.89,1.74
				c1.47,0,2.98-0.32,4.52-0.95v2.37C162.81,313.52,161.32,313.82,159.53,313.82z"/>
			<path class="st9" d="M170.69,295.84v11.46c0,1.44,0.33,2.51,0.98,3.22c0.66,0.71,1.68,1.06,3.08,1.06c1.85,0,3.2-0.5,4.05-1.52
				c0.85-1.01,1.28-2.66,1.28-4.95v-9.28h2.67v17.66h-2.21l-0.39-2.37h-0.14c-0.55,0.87-1.31,1.54-2.28,2
				c-0.97,0.46-2.08,0.69-3.32,0.69c-2.15,0-3.75-0.51-4.82-1.53c-1.07-1.02-1.6-2.65-1.6-4.9v-11.55H170.69z"/>
			<path class="st9" d="M196.46,295.52c0.78,0,1.49,0.06,2.11,0.19l-0.37,2.48c-0.73-0.16-1.37-0.24-1.93-0.24
				c-1.43,0-2.65,0.58-3.66,1.74c-1.01,1.16-1.52,2.61-1.52,4.33v9.47h-2.67v-17.66h2.21l0.31,3.27h0.13
				c0.65-1.15,1.44-2.04,2.37-2.66S195.35,295.52,196.46,295.52z"/>
			<path class="st9" d="M209.92,295.52c0.78,0,1.49,0.06,2.11,0.19l-0.37,2.48c-0.73-0.16-1.37-0.24-1.93-0.24
				c-1.43,0-2.65,0.58-3.66,1.74c-1.01,1.16-1.52,2.61-1.52,4.33v9.47h-2.67v-17.66h2.21l0.31,3.27h0.13
				c0.65-1.15,1.44-2.04,2.37-2.66S208.81,295.52,209.92,295.52z"/>
			<path class="st9" d="M222.78,313.82c-2.61,0-4.67-0.79-6.17-2.38s-2.26-3.8-2.26-6.62c0-2.85,0.7-5.11,2.1-6.78
				s3.28-2.51,5.64-2.51c2.21,0,3.96,0.73,5.25,2.18c1.29,1.46,1.93,3.38,1.93,5.76v1.69h-12.15c0.05,2.07,0.58,3.65,1.57,4.72
				c0.99,1.08,2.39,1.61,4.19,1.61c1.9,0,3.78-0.4,5.63-1.19v2.38c-0.94,0.41-1.84,0.7-2.68,0.88
				C224.99,313.73,223.97,313.82,222.78,313.82z M222.05,297.76c-1.42,0-2.55,0.46-3.39,1.39c-0.84,0.92-1.34,2.2-1.49,3.83h9.22
				c0-1.69-0.38-2.98-1.13-3.88C224.52,298.21,223.45,297.76,222.05,297.76z"/>
			<path class="st9" d="M68.06,337.7v9.8h-2.74v-23.56h6.46c2.89,0,5.02,0.55,6.4,1.66s2.07,2.77,2.07,4.99
				c0,3.12-1.58,5.22-4.73,6.32l6.39,10.59h-3.24l-5.7-9.8H68.06z M68.06,335.35h3.75c1.93,0,3.35-0.38,4.25-1.15
				c0.9-0.77,1.35-1.92,1.35-3.46c0-1.56-0.46-2.68-1.38-3.37c-0.92-0.69-2.39-1.03-4.42-1.03h-3.56V335.35z"/>
			<path class="st9" d="M92.75,347.82c-2.61,0-4.67-0.79-6.17-2.38s-2.26-3.8-2.26-6.62c0-2.85,0.7-5.11,2.1-6.78
				s3.28-2.51,5.64-2.51c2.21,0,3.96,0.73,5.25,2.18s1.93,3.38,1.93,5.76v1.69H87.09c0.05,2.07,0.58,3.65,1.57,4.72
				c0.99,1.07,2.39,1.61,4.19,1.61c1.9,0,3.78-0.4,5.63-1.19v2.38c-0.94,0.41-1.84,0.7-2.68,0.88
				C94.96,347.73,93.95,347.82,92.75,347.82z M92.03,331.76c-1.42,0-2.55,0.46-3.39,1.39c-0.84,0.92-1.34,2.2-1.49,3.83h9.22
				c0-1.69-0.38-2.98-1.13-3.88C94.5,332.21,93.42,331.76,92.03,331.76z"/>
			<path class="st9" d="M115.18,342.68c0,1.64-0.61,2.91-1.83,3.8c-1.22,0.89-2.94,1.34-5.15,1.34c-2.34,0-4.17-0.37-5.47-1.11
				v-2.48c0.85,0.43,1.76,0.77,2.73,1.01c0.97,0.25,1.91,0.37,2.81,0.37c1.39,0,2.47-0.22,3.22-0.67c0.75-0.45,1.13-1.12,1.13-2.04
				c0-0.69-0.3-1.28-0.89-1.76c-0.6-0.49-1.76-1.07-3.49-1.73c-1.64-0.61-2.81-1.15-3.5-1.6c-0.69-0.46-1.21-0.97-1.54-1.55
				c-0.34-0.58-0.51-1.27-0.51-2.08c0-1.44,0.58-2.58,1.75-3.41c1.17-0.83,2.77-1.25,4.81-1.25c1.9,0,3.76,0.39,5.57,1.16
				l-0.95,2.17c-1.77-0.73-3.38-1.1-4.81-1.1c-1.27,0-2.22,0.2-2.87,0.6s-0.97,0.95-0.97,1.64c0,0.47,0.12,0.88,0.36,1.21
				c0.24,0.33,0.63,0.65,1.17,0.95c0.54,0.3,1.57,0.74,3.09,1.31c2.09,0.76,3.51,1.53,4.24,2.3
				C114.81,340.54,115.18,341.51,115.18,342.68z"/>
			<path class="st9" d="M119.3,325.05c0-0.61,0.15-1.06,0.45-1.34c0.3-0.29,0.68-0.43,1.13-0.43c0.43,0,0.8,0.14,1.11,0.43
				c0.31,0.29,0.47,0.74,0.47,1.34c0,0.6-0.16,1.05-0.47,1.35c-0.31,0.3-0.68,0.44-1.11,0.44c-0.45,0-0.83-0.15-1.13-0.44
				C119.45,326.1,119.3,325.66,119.3,325.05z M122.2,347.5h-2.67v-17.66h2.67V347.5z"/>
			<path class="st9" d="M139.25,342.68c0,1.64-0.61,2.91-1.83,3.8c-1.22,0.89-2.94,1.34-5.15,1.34c-2.34,0-4.17-0.37-5.47-1.11
				v-2.48c0.85,0.43,1.76,0.77,2.73,1.01c0.97,0.25,1.91,0.37,2.81,0.37c1.39,0,2.47-0.22,3.22-0.67c0.75-0.45,1.13-1.12,1.13-2.04
				c0-0.69-0.3-1.28-0.89-1.76c-0.6-0.49-1.76-1.07-3.49-1.73c-1.64-0.61-2.81-1.15-3.5-1.6c-0.69-0.46-1.21-0.97-1.54-1.55
				c-0.34-0.58-0.51-1.27-0.51-2.08c0-1.44,0.58-2.58,1.75-3.41c1.17-0.83,2.77-1.25,4.81-1.25c1.9,0,3.76,0.39,5.57,1.16
				l-0.95,2.17c-1.77-0.73-3.38-1.1-4.81-1.1c-1.27,0-2.22,0.2-2.87,0.6s-0.97,0.95-0.97,1.64c0,0.47,0.12,0.88,0.36,1.21
				c0.24,0.33,0.63,0.65,1.17,0.95c0.54,0.3,1.57,0.74,3.09,1.31c2.09,0.76,3.51,1.53,4.24,2.3
				C138.88,340.54,139.25,341.51,139.25,342.68z"/>
			<path class="st9" d="M149.29,345.61c0.47,0,0.93-0.03,1.37-0.1c0.44-0.07,0.79-0.14,1.05-0.22v2.05
				c-0.29,0.14-0.72,0.25-1.28,0.35c-0.56,0.09-1.07,0.14-1.52,0.14c-3.41,0-5.12-1.8-5.12-5.4v-10.51h-2.53v-1.29l2.53-1.11
				l1.13-3.77h1.55v4.09h5.12v2.08h-5.12v10.39c0,1.06,0.25,1.88,0.76,2.45C147.72,345.33,148.41,345.61,149.29,345.61z"/>
			<path class="st9" d="M162.68,347.82c-2.61,0-4.67-0.79-6.17-2.38s-2.26-3.8-2.26-6.62c0-2.85,0.7-5.11,2.1-6.78
				s3.28-2.51,5.64-2.51c2.21,0,3.96,0.73,5.25,2.18s1.93,3.38,1.93,5.76v1.69h-12.15c0.05,2.07,0.58,3.65,1.57,4.72
				c0.99,1.07,2.39,1.61,4.19,1.61c1.9,0,3.78-0.4,5.63-1.19v2.38c-0.94,0.41-1.84,0.7-2.68,0.88
				C164.89,347.73,163.88,347.82,162.68,347.82z M161.96,331.76c-1.42,0-2.55,0.46-3.39,1.39c-0.84,0.92-1.34,2.2-1.49,3.83h9.22
				c0-1.69-0.38-2.98-1.13-3.88C164.43,332.21,163.35,331.76,161.96,331.76z"/>
			<path class="st9" d="M185.8,347.5v-11.42c0-1.44-0.33-2.51-0.98-3.22s-1.68-1.06-3.07-1.06c-1.85,0-3.2,0.5-4.06,1.5
				c-0.86,1-1.29,2.65-1.29,4.95v9.26h-2.67v-17.66h2.17l0.43,2.42h0.13c0.55-0.87,1.31-1.54,2.3-2.02c0.99-0.48,2.09-0.72,3.3-0.72
				c2.12,0,3.72,0.51,4.8,1.54c1.07,1.03,1.61,2.67,1.61,4.92v11.52H185.8z"/>
			<path class="st9" d="M199.66,345.61c0.47,0,0.93-0.03,1.37-0.1c0.44-0.07,0.79-0.14,1.05-0.22v2.05
				c-0.29,0.14-0.72,0.25-1.28,0.35c-0.56,0.09-1.07,0.14-1.52,0.14c-3.41,0-5.12-1.8-5.12-5.4v-10.51h-2.53v-1.29l2.53-1.11
				l1.13-3.77h1.55v4.09h5.12v2.08h-5.12v10.39c0,1.06,0.25,1.88,0.76,2.45C198.09,345.33,198.78,345.61,199.66,345.61z"/>
			<path class="st9" d="M213.06,347.82c-2.61,0-4.67-0.79-6.17-2.38s-2.26-3.8-2.26-6.62c0-2.85,0.7-5.11,2.1-6.78
				s3.28-2.51,5.64-2.51c2.21,0,3.96,0.73,5.25,2.18s1.93,3.38,1.93,5.76v1.69h-12.15c0.05,2.07,0.58,3.65,1.57,4.72
				c0.99,1.07,2.39,1.61,4.19,1.61c1.9,0,3.78-0.4,5.63-1.19v2.38c-0.94,0.41-1.84,0.7-2.68,0.88
				C215.26,347.73,214.25,347.82,213.06,347.82z M212.33,331.76c-1.42,0-2.55,0.46-3.39,1.39c-0.84,0.92-1.34,2.2-1.49,3.83h9.22
				c0-1.69-0.38-2.98-1.13-3.88C214.8,332.21,213.73,331.76,212.33,331.76z"/>
			<path class="st9" d="M243.51,347.5l-0.53-2.51h-0.13c-0.88,1.11-1.76,1.86-2.63,2.25c-0.88,0.39-1.97,0.59-3.28,0.59
				c-1.75,0-3.12-0.45-4.11-1.35c-0.99-0.9-1.49-2.19-1.49-3.85c0-3.57,2.85-5.44,8.55-5.61l2.99-0.1v-1.1
				c0-1.38-0.3-2.41-0.89-3.07c-0.6-0.66-1.55-0.99-2.86-0.99c-1.47,0-3.13,0.45-4.99,1.35l-0.82-2.05
				c0.87-0.47,1.82-0.84,2.86-1.11c1.04-0.27,2.07-0.4,3.12-0.4c2.1,0,3.66,0.47,4.68,1.4c1.01,0.93,1.52,2.43,1.52,4.5v12.05
				H243.51z M237.48,345.61c1.66,0,2.97-0.46,3.92-1.37c0.95-0.91,1.42-2.19,1.42-3.83v-1.59l-2.67,0.11
				c-2.12,0.08-3.66,0.41-4.6,0.99c-0.94,0.59-1.41,1.5-1.41,2.73c0,0.97,0.29,1.7,0.88,2.21S236.42,345.61,237.48,345.61z"/>
			<path class="st9" d="M253.67,347.5H251v-25.07h2.67V347.5z"/>
			<path class="st9" d="M278.75,347.5l-0.53-2.51h-0.13c-0.88,1.11-1.76,1.86-2.63,2.25c-0.88,0.39-1.97,0.59-3.28,0.59
				c-1.75,0-3.12-0.45-4.11-1.35c-0.99-0.9-1.49-2.19-1.49-3.85c0-3.57,2.85-5.44,8.55-5.61l2.99-0.1v-1.1
				c0-1.38-0.3-2.41-0.89-3.07c-0.6-0.66-1.55-0.99-2.86-0.99c-1.47,0-3.13,0.45-4.99,1.35l-0.82-2.05
				c0.87-0.47,1.82-0.84,2.86-1.11c1.04-0.27,2.07-0.4,3.12-0.4c2.1,0,3.66,0.47,4.68,1.4c1.01,0.93,1.52,2.43,1.52,4.5v12.05
				H278.75z M272.72,345.61c1.66,0,2.97-0.46,3.92-1.37c0.95-0.91,1.42-2.19,1.42-3.83v-1.59l-2.67,0.11
				c-2.12,0.08-3.66,0.41-4.6,0.99c-0.94,0.59-1.41,1.5-1.41,2.73c0,0.97,0.29,1.7,0.88,2.21S271.66,345.61,272.72,345.61z"/>
			<path class="st9" d="M300.68,329.84v1.69l-3.27,0.39c0.3,0.38,0.57,0.87,0.8,1.47c0.24,0.61,0.35,1.29,0.35,2.05
				c0,1.73-0.59,3.11-1.77,4.14s-2.8,1.55-4.86,1.55c-0.53,0-1.02-0.04-1.48-0.13c-1.14,0.6-1.71,1.36-1.71,2.27
				c0,0.48,0.2,0.84,0.6,1.07c0.4,0.23,1.08,0.35,2.04,0.35h3.12c1.91,0,3.38,0.4,4.4,1.21c1.02,0.8,1.54,1.98,1.54,3.51
				c0,1.96-0.78,3.45-2.35,4.47c-1.57,1.03-3.85,1.54-6.86,1.54c-2.31,0-4.09-0.43-5.34-1.29c-1.25-0.86-1.88-2.07-1.88-3.64
				c0-1.07,0.34-2,1.03-2.79c0.69-0.78,1.65-1.32,2.9-1.6c-0.45-0.2-0.83-0.52-1.13-0.95c-0.31-0.43-0.46-0.93-0.46-1.5
				c0-0.64,0.17-1.21,0.52-1.69c0.34-0.48,0.88-0.95,1.63-1.4c-0.91-0.38-1.66-1.02-2.23-1.92c-0.58-0.9-0.86-1.93-0.86-3.09
				c0-1.93,0.58-3.42,1.74-4.47c1.16-1.05,2.8-1.57,4.93-1.57c0.92,0,1.75,0.11,2.5,0.32H300.68z M286.61,350.46
				c0,0.96,0.4,1.68,1.21,2.17s1.96,0.74,3.46,0.74c2.24,0,3.9-0.34,4.98-1.01c1.08-0.67,1.62-1.58,1.62-2.73
				c0-0.96-0.3-1.62-0.89-1.99c-0.59-0.37-1.7-0.56-3.33-0.56h-3.2c-1.21,0-2.16,0.29-2.83,0.87S286.61,349.38,286.61,350.46z
				 M288.06,335.49c0,1.24,0.35,2.17,1.05,2.8c0.7,0.63,1.67,0.95,2.91,0.95c2.61,0,3.91-1.27,3.91-3.8c0-2.65-1.32-3.98-3.96-3.98
				c-1.26,0-2.22,0.34-2.9,1.01C288.4,333.16,288.06,334.16,288.06,335.49z"/>
			<path class="st9" d="M306.81,329.84v11.46c0,1.44,0.33,2.51,0.98,3.22c0.66,0.71,1.68,1.06,3.08,1.06c1.85,0,3.2-0.51,4.05-1.52
				c0.85-1.01,1.28-2.66,1.28-4.95v-9.28h2.67v17.66h-2.21l-0.39-2.37h-0.14c-0.55,0.87-1.31,1.54-2.28,2
				c-0.97,0.46-2.08,0.69-3.32,0.69c-2.15,0-3.75-0.51-4.82-1.53c-1.07-1.02-1.6-2.65-1.6-4.9v-11.55H306.81z"/>
			<path class="st9" d="M335.39,347.5l-0.53-2.51h-0.13c-0.88,1.11-1.76,1.86-2.63,2.25c-0.88,0.39-1.97,0.59-3.28,0.59
				c-1.75,0-3.12-0.45-4.11-1.35c-0.99-0.9-1.49-2.19-1.49-3.85c0-3.57,2.85-5.44,8.55-5.61l2.99-0.1v-1.1
				c0-1.38-0.3-2.41-0.89-3.07c-0.6-0.66-1.55-0.99-2.86-0.99c-1.47,0-3.13,0.45-4.99,1.35l-0.82-2.05
				c0.87-0.47,1.82-0.84,2.86-1.11c1.04-0.27,2.07-0.4,3.12-0.4c2.1,0,3.66,0.47,4.68,1.4c1.01,0.93,1.52,2.43,1.52,4.5v12.05
				H335.39z M329.35,345.61c1.66,0,2.97-0.46,3.92-1.37c0.95-0.91,1.42-2.19,1.42-3.83v-1.59l-2.67,0.11
				c-2.12,0.08-3.66,0.41-4.6,0.99c-0.94,0.59-1.41,1.5-1.41,2.73c0,0.97,0.29,1.7,0.88,2.21S328.3,345.61,329.35,345.61z"/>
		</g>
		<polygon class="st9" points="42.99,236.55 28.42,245.5 28.42,227.59 		"/>
		<polygon class="st9" points="42.99,270.37 28.42,279.32 28.42,261.41 		"/>
		<polygon class="st9" points="42.99,304.19 28.42,313.14 28.42,295.23 		"/>
		<polygon class="st9" points="42.99,338.01 28.42,346.96 28.42,329.05 		"/>
		<polygon class="st9" points="23.14,103.95 8.58,112.9 8.58,94.99 		"/>
		<polygon class="st9" points="324.3,103.95 338.87,112.9 338.87,94.99 		"/>
		<polygon class="st9" points="346.42,103.95 360.98,112.9 360.98,94.99 		"/>
	</g>
</g>
</svg>
