<?xml version="1.0" encoding="utf-8"?>
<!-- Generator: Adobe Illustrator 24.0.1, SVG Export Plug-In . SVG Version: 6.00 Build 0)  -->
<svg version="1.1" id="Capa_1" xmlns="http://www.w3.org/2000/svg" xmlns:xlink="http://www.w3.org/1999/xlink" x="0px" y="0px"
	 viewBox="0 0 246.55 52.18" style="enable-background:new 0 0 246.55 52.18;" xml:space="preserve">
<style type="text/css">
	.st0{fill:#C00D0D;}
	.st1{opacity:0.73;}
	.st2{opacity:0.71;fill:url(#SVGID_3_);}
	.st3{opacity:0.71;fill:url(#SVGID_6_);}
	.st4{opacity:0.71;fill:url(#SVGID_9_);}
	.st5{opacity:0.71;fill:url(#SVGID_12_);}
	.st6{clip-path:url(#SVGID_14_);}
	.st7{clip-path:url(#SVGID_14_);fill:#C00D0D;}
	.st8{opacity:0.71;clip-path:url(#SVGID_14_);fill:url(#SVGID_15_);}
	.st9{fill:#FFFFFF;}
	.st10{fill:#3C3C3B;}
</style>
<g>
	<path class="st9" d="M129.93,39.68c-8.07,0-14.62-6.51-14.62-14.55c0-8.04,6.55-14.55,14.62-14.55c3.28,0,6.3,1.07,8.74,2.88
		c0.97-1.89,2.3-3.71,3.99-5.46c-4.06-2.95-8.17-4.19-12.84-4.19c-11.76,0-21.2,9.61-21.2,21.32c0,11.72,9.54,21.21,21.31,21.21
		c4.11,0,9.34-1.77,12.72-4.36c-1.53-1.5-2.81-3.24-3.85-5.2C136.41,38.51,133.11,39.68,129.93,39.68"/>
	<polygon class="st9" points="203.74,38.76 190.25,38.76 190.25,4.64 183.34,4.64 183.34,45.65 204.72,45.65 204.72,45.63 
		208.44,45.63 219.15,20.54 229.83,45.63 237.5,45.63 219.16,2.62 	"/>
	<path class="st9" d="M181.28,25.13c0-11.71-9.54-21.21-21.31-21.21c-11.77,0-21.31,9.5-21.31,21.21c0,11.72,9.55,21.21,21.31,21.21
		C171.74,46.34,181.28,36.85,181.28,25.13 M145.36,25.13c0-8.04,6.54-14.55,14.61-14.55c8.07,0,14.61,6.51,14.61,14.55
		c0,8.04-6.54,14.55-14.61,14.55C151.9,39.68,145.36,33.17,145.36,25.13"/>
	<path class="st9" d="M109.98,38.76H96.57V28.71H106c-0.38-2.69-0.43-4.76-0.09-6.88h-9.34V11.48h13.31c1.78-2.71,4.13-5,7.09-6.88
		H58.19c2.04,1.39,3.91,3.69,5.6,6.88h8.03v34.17h6.91V11.48h10.94v34.17h27.57C114.06,43.54,111.64,41.24,109.98,38.76"/>
	<path class="st9" d="M62.3,17.49c0-7.14-6.23-12.9-13.91-12.9c-0.21,0-12.24,0.03-12.24,0.03v35.23L20.27,2.62L1.92,45.63h7.62
		l10.71-25.09l10.69,25.09h7.67l0-0.01h4.36V11.46l5.45,0c3.58,0,6.48,2.7,6.48,6.03c0,3.33-2.52,6.02-5.32,6.13
		c-1.36,0.06-2.61-0.06-3.8-1.38l2.64,5.95l10.31,24h8.2L56.26,27.99C60.2,25.71,62.3,22.12,62.3,17.49"/>
	<path class="st9" d="M236.88,8.49h-0.49c0,1.51-0.61,2.88-1.61,3.88c-1,0.99-2.36,1.61-3.88,1.61c-1.52,0-2.89-0.61-3.89-1.61
		c-0.99-0.99-1.61-2.36-1.61-3.88c0-3.04,2.45-5.5,5.5-5.5c1.52,0,2.88,0.61,3.88,1.61c0.99,1,1.61,2.37,1.61,3.89H236.88h0.49
		c0-3.57-2.89-6.47-6.46-6.47c-1.79,0-3.41,0.72-4.57,1.89c-1.17,1.17-1.89,2.79-1.89,4.57c0,3.56,2.89,6.45,6.46,6.45
		c3.56,0,6.46-2.89,6.46-6.45H236.88z"/>
	<path class="st9" d="M232.21,9.21c0.66-0.38,1.01-0.98,1.01-1.76c0-1.19-1.04-2.15-2.31-2.15l-2.06,0.01v5.87l-0.02-0.05v1.02h0.44
		h-0.01h0.73V6.45h0.91c0.59,0,1.08,0.45,1.08,1c0,0.56-0.42,1.01-0.89,1.03c-0.23,0.01-0.45-0.01-0.64-0.23l0.45,1l2.11,4.83
		l0.97-0.82L232.21,9.21z"/>
</g>
</svg>
