<?xml version="1.0" encoding="utf-8"?>
<!-- Generator: Adobe Illustrator 24.0.1, SVG Export Plug-In . SVG Version: 6.00 Build 0)  -->
<svg version="1.1" id="Capa_1" xmlns="http://www.w3.org/2000/svg" xmlns:xlink="http://www.w3.org/1999/xlink" x="0px" y="0px"
	 viewBox="0 0 350.9 237.9" style="enable-background:new 0 0 350.9 237.9;" xml:space="preserve">
<style type="text/css">
	.st0{fill:#C00D0D;}
	.st1{opacity:0.73;}
	.st2{opacity:0.71;fill:url(#SVGID_3_);}
	.st3{opacity:0.71;fill:url(#SVGID_6_);}
	.st4{opacity:0.71;fill:url(#SVGID_9_);}
	.st5{opacity:0.71;fill:url(#SVGID_12_);}
	.st6{clip-path:url(#SVGID_14_);}
	.st7{clip-path:url(#SVGID_14_);fill:#C00D0D;}
	.st8{opacity:0.71;clip-path:url(#SVGID_14_);fill:url(#SVGID_15_);}
	.st9{fill:#FFFFFF;}
	.st10{fill:#3C3C3B;}
</style>
<g>
	<path class="st9" d="M29.38,67.02l9.35-18.47h10.24L34.1,75.95v17.46h-9.44V76.26L9.79,48.55h10.3L29.38,67.02z"/>
	<path class="st9" d="M89.95,55.82c-3.58,0-6.35,1.34-8.31,4.03c-1.96,2.69-2.94,6.44-2.94,11.25c0,10,3.75,15,11.25,15
		c3.15,0,6.96-0.79,11.43-2.36v7.98c-3.68,1.53-7.79,2.3-12.32,2.3c-6.52,0-11.51-1.98-14.96-5.94c-3.45-3.96-5.18-9.64-5.18-17.04
		c0-4.66,0.85-8.75,2.54-12.26c1.7-3.51,4.13-6.2,7.31-8.07c3.18-1.87,6.9-2.81,11.17-2.81c4.35,0,8.73,1.05,13.12,3.16l-3.07,7.73
		c-1.68-0.8-3.36-1.49-5.06-2.09C93.25,56.12,91.59,55.82,89.95,55.82z"/>
	<path class="st9" d="M138.36,93.41l-3.25-10.68h-16.34l-3.25,10.68h-10.24l15.82-45.04h11.62l15.88,45.04H138.36z M132.84,74.75
		c-3-9.68-4.7-15.15-5.07-16.42c-0.38-1.27-0.65-2.27-0.81-3.01c-0.67,2.62-2.61,9.09-5.79,19.42H132.84z"/>
	<path class="st9" d="M154.23,93.41V48.55h9.5v37h18.18v7.85H154.23z"/>
	<path class="st9" d="M189.7,93.41V48.55h9.5v44.86H189.7z"/>
	<path class="st9" d="M247.67,70.55c0,7.38-2.1,13.04-6.3,16.97c-4.2,3.93-10.26,5.89-18.19,5.89h-12.69V48.55h14.07
		c7.32,0,13,1.93,17.04,5.8C245.65,58.22,247.67,63.62,247.67,70.55z M237.8,70.8c0-9.63-4.25-14.45-12.75-14.45h-5.06v29.21h4.08
		C233.22,85.55,237.8,80.63,237.8,70.8z"/>
	<path class="st9" d="M284.4,93.41l-3.25-10.68h-16.34l-3.25,10.68h-10.24l15.82-45.04h11.62l15.88,45.04H284.4z M278.88,74.75
		c-3-9.68-4.7-15.15-5.07-16.42c-0.38-1.27-0.65-2.27-0.81-3.01c-0.67,2.62-2.61,9.09-5.79,19.42H278.88z"/>
	<path class="st9" d="M337.46,70.55c0,7.38-2.1,13.04-6.3,16.97c-4.2,3.93-10.26,5.89-18.19,5.89h-12.69V48.55h14.07
		c7.32,0,13,1.93,17.04,5.8C335.44,58.22,337.46,63.62,337.46,70.55z M327.59,70.8c0-9.63-4.25-14.45-12.75-14.45h-5.06v29.21h4.08
		C323.01,85.55,327.59,80.63,327.59,70.8z"/>
</g>
<g>
	<path class="st9" d="M74.15,139.88c-1.4,0-2.68-0.26-3.83-0.78c-1.16-0.52-2.13-1.31-2.91-2.39h-0.24
		c0.16,1.26,0.24,2.45,0.24,3.57v8.86h-3.26v-31.18h2.65l0.45,2.95h0.16c0.84-1.18,1.81-2.03,2.92-2.55
		c1.11-0.52,2.39-0.79,3.82-0.79c2.85,0,5.05,0.98,6.6,2.93c1.55,1.95,2.32,4.69,2.32,8.21c0,3.53-0.79,6.28-2.36,8.24
		C79.14,138.91,76.95,139.88,74.15,139.88z M73.68,120.35c-2.2,0-3.79,0.61-4.77,1.83c-0.98,1.22-1.48,3.16-1.51,5.81v0.73
		c0,3.02,0.5,5.19,1.51,6.49c1.01,1.3,2.62,1.95,4.85,1.95c1.86,0,3.31-0.75,4.36-2.26c1.05-1.5,1.58-3.58,1.58-6.22
		c0-2.68-0.53-4.74-1.58-6.17C77.07,121.07,75.59,120.35,73.68,120.35z"/>
	<path class="st9" d="M101.99,139.49l-0.65-3.06h-0.16c-1.07,1.35-2.14,2.26-3.21,2.74s-2.4,0.72-3.99,0.72
		c-2.13,0-3.8-0.55-5.01-1.65s-1.81-2.66-1.81-4.69c0-4.35,3.47-6.62,10.42-6.83l3.65-0.12v-1.33c0-1.69-0.36-2.94-1.09-3.74
		c-0.73-0.8-1.89-1.21-3.48-1.21c-1.79,0-3.82,0.55-6.08,1.65l-1-2.49c1.06-0.58,2.22-1.03,3.48-1.35c1.26-0.33,2.53-0.49,3.8-0.49
		c2.56,0,4.46,0.57,5.7,1.71c1.24,1.14,1.85,2.96,1.85,5.48v14.69H101.99z M94.63,137.19c2.03,0,3.62-0.56,4.78-1.67
		s1.74-2.67,1.74-4.67v-1.94l-3.26,0.14c-2.59,0.09-4.46,0.49-5.6,1.21c-1.14,0.71-1.72,1.82-1.72,3.33c0,1.18,0.36,2.08,1.07,2.69
		C92.35,136.89,93.35,137.19,94.63,137.19z"/>
	<path class="st9" d="M120.92,117.58c0.95,0,1.81,0.08,2.57,0.24l-0.45,3.02c-0.89-0.2-1.67-0.29-2.35-0.29
		c-1.74,0-3.23,0.71-4.46,2.12c-1.24,1.41-1.85,3.17-1.85,5.28v11.54h-3.26v-21.52h2.69l0.37,3.99h0.16c0.8-1.4,1.76-2.48,2.88-3.24
		C118.33,117.96,119.57,117.58,120.92,117.58z"/>
	<path class="st9" d="M140.73,139.49l-0.65-3.06h-0.16c-1.07,1.35-2.14,2.26-3.21,2.74s-2.4,0.72-3.99,0.72
		c-2.13,0-3.8-0.55-5.01-1.65s-1.81-2.66-1.81-4.69c0-4.35,3.47-6.62,10.42-6.83l3.65-0.12v-1.33c0-1.69-0.36-2.94-1.09-3.74
		c-0.73-0.8-1.89-1.21-3.48-1.21c-1.79,0-3.82,0.55-6.08,1.65l-1-2.49c1.06-0.58,2.22-1.03,3.48-1.35c1.26-0.33,2.53-0.49,3.8-0.49
		c2.56,0,4.46,0.57,5.7,1.71c1.24,1.14,1.85,2.96,1.85,5.48v14.69H140.73z M133.37,137.19c2.03,0,3.62-0.56,4.78-1.67
		s1.74-2.67,1.74-4.67v-1.94l-3.26,0.14c-2.59,0.09-4.46,0.49-5.6,1.21c-1.14,0.71-1.72,1.82-1.72,3.33c0,1.18,0.36,2.08,1.07,2.69
		C131.09,136.89,132.09,137.19,133.37,137.19z"/>
	<path class="st9" d="M170.29,117.62c2.82,0,5.02,0.97,6.58,2.9s2.34,4.66,2.34,8.2c0,3.53-0.79,6.28-2.36,8.24
		c-1.58,1.96-3.76,2.94-6.56,2.94c-1.4,0-2.68-0.26-3.83-0.78c-1.16-0.52-2.13-1.31-2.91-2.39h-0.24l-0.69,2.77h-2.33v-30.55h3.26
		v7.42c0,1.66-0.05,3.16-0.16,4.48h0.16C165.06,118.69,167.31,117.62,170.29,117.62z M169.82,120.35c-2.22,0-3.82,0.64-4.81,1.91
		s-1.47,3.43-1.47,6.45c0,3.02,0.5,5.19,1.51,6.49c1.01,1.3,2.62,1.95,4.85,1.95c2,0,3.49-0.73,4.47-2.19
		c0.98-1.46,1.47-3.56,1.47-6.29c0-2.8-0.49-4.89-1.47-6.26C173.39,121.04,171.87,120.35,169.82,120.35z"/>
	<path class="st9" d="M187.96,117.97v13.96c0,1.75,0.4,3.06,1.2,3.93c0.8,0.86,2.05,1.3,3.75,1.3c2.25,0,3.89-0.62,4.93-1.85
		s1.56-3.24,1.56-6.03v-11.31h3.26v21.52h-2.69l-0.47-2.89h-0.18c-0.67,1.06-1.59,1.87-2.78,2.43c-1.18,0.56-2.53,0.84-4.05,0.84
		c-2.62,0-4.57-0.62-5.88-1.87c-1.3-1.24-1.95-3.23-1.95-5.97v-14.08H187.96z"/>
	<path class="st9" d="M218.64,139.88c-3.18,0-5.69-0.97-7.52-2.91c-1.84-1.94-2.76-4.63-2.76-8.07c0-3.47,0.85-6.22,2.56-8.27
		s4-3.06,6.88-3.06c2.69,0,4.83,0.89,6.39,2.66s2.35,4.11,2.35,7.02v2.06h-14.81c0.07,2.53,0.7,4.44,1.91,5.75
		c1.21,1.31,2.91,1.96,5.11,1.96c2.31,0,4.6-0.48,6.87-1.45v2.91c-1.15,0.5-2.24,0.85-3.27,1.07
		C221.33,139.78,220.09,139.88,218.64,139.88z M217.76,120.31c-1.73,0-3.1,0.56-4.13,1.69c-1.03,1.12-1.63,2.68-1.81,4.67h11.24
		c0-2.05-0.46-3.63-1.37-4.72C220.77,120.86,219.46,120.31,217.76,120.31z"/>
	<path class="st9" d="M246.81,139.49v-13.92c0-1.75-0.4-3.06-1.2-3.93c-0.8-0.86-2.05-1.3-3.75-1.3c-2.25,0-3.9,0.61-4.94,1.83
		c-1.05,1.22-1.57,3.23-1.57,6.03v11.29h-3.26v-21.52h2.65l0.53,2.95h0.16c0.67-1.06,1.6-1.88,2.8-2.46
		c1.2-0.58,2.54-0.87,4.02-0.87c2.59,0,4.54,0.62,5.85,1.88s1.96,3.25,1.96,6v14.04H246.81z"/>
	<path class="st9" d="M275.31,128.71c0,3.51-0.88,6.25-2.65,8.22c-1.77,1.97-4.2,2.96-7.32,2.96c-1.92,0-3.63-0.45-5.12-1.35
		s-2.64-2.2-3.45-3.89c-0.81-1.69-1.22-3.67-1.22-5.93c0-3.51,0.88-6.24,2.63-8.2c1.75-1.96,4.18-2.94,7.3-2.94c3.01,0,5.4,1,7.17,3
		S275.31,125.3,275.31,128.71z M258.93,128.71c0,2.75,0.55,4.84,1.65,6.28c1.1,1.44,2.71,2.16,4.85,2.16c2.13,0,3.75-0.72,4.85-2.15
		s1.66-3.53,1.66-6.29c0-2.74-0.55-4.81-1.66-6.23c-1.1-1.42-2.74-2.13-4.89-2.13c-2.13,0-3.74,0.7-4.83,2.1
		C259.47,123.85,258.93,125.94,258.93,128.71z"/>
	<path class="st9" d="M294.89,133.62c0,2-0.75,3.55-2.24,4.63c-1.49,1.09-3.58,1.63-6.28,1.63c-2.85,0-5.07-0.45-6.67-1.35v-3.02
		c1.03,0.52,2.14,0.94,3.32,1.24c1.18,0.3,2.32,0.45,3.42,0.45c1.7,0,3.01-0.27,3.92-0.82c0.92-0.54,1.37-1.37,1.37-2.48
		c0-0.84-0.36-1.55-1.09-2.15s-2.14-1.3-4.25-2.11c-2-0.75-3.42-1.4-4.27-1.95c-0.84-0.56-1.47-1.19-1.88-1.89
		c-0.41-0.71-0.62-1.55-0.62-2.53c0-1.75,0.71-3.14,2.14-4.15s3.38-1.52,5.87-1.52c2.31,0,4.58,0.47,6.79,1.41l-1.16,2.65
		c-2.16-0.89-4.11-1.34-5.86-1.34c-1.54,0-2.71,0.24-3.49,0.73c-0.78,0.48-1.18,1.15-1.18,2c0,0.58,0.15,1.07,0.44,1.47
		c0.29,0.41,0.77,0.79,1.42,1.16c0.65,0.37,1.91,0.9,3.77,1.59c2.55,0.93,4.27,1.87,5.17,2.81
		C294.44,131.01,294.89,132.19,294.89,133.62z"/>
</g>
<g>
	<path class="st9" d="M30.63,34.18l-2.98-8.29h-11.4l-2.92,8.29H8.19L19.35,4.2h5.3l11.16,29.98H30.63z M26.36,21.68l-2.79-8.13
		c-0.2-0.54-0.49-1.4-0.85-2.57s-0.61-2.03-0.74-2.57c-0.37,1.67-0.9,3.51-1.61,5.49l-2.69,7.78H26.36z"/>
	<path class="st9" d="M39.75,34.18V4.33h4.88v25.67h12.63v4.19H39.75z"/>
	<path class="st9" d="M72.7,34.18h-4.88V8.51h-8.77V4.33h22.42v4.19H72.7V34.18z"/>
	<path class="st9" d="M104.55,34.18l-2.98-8.29h-11.4l-2.92,8.29H82.1L93.26,4.2h5.3l11.16,29.98H104.55z M100.28,21.68l-2.79-8.13
		c-0.2-0.54-0.49-1.4-0.85-2.57s-0.61-2.03-0.74-2.57c-0.37,1.67-0.9,3.51-1.61,5.49l-2.69,7.78H100.28z"/>
	<path class="st9" d="M141.39,34.18h-16.87V4.33h16.87v4.12h-12v8.13h11.24v4.08H129.4v9.37h12V34.18z"/>
	<path class="st9" d="M169.81,34.18h-5.61l-7.47-12.21l-7.53,12.21h-5.22l9.9-15.48l-9.26-14.38h5.43l6.9,11.29l6.9-11.29h5.26
		l-9.32,14.46L169.81,34.18z"/>
	<path class="st9" d="M173.83,34.18V4.33h4.88v29.86H173.83z"/>
	<path class="st9" d="M198.78,17.99h10.98v14.99c-1.8,0.59-3.52,1-5.17,1.25c-1.65,0.25-3.44,0.37-5.36,0.37
		c-4.52,0-8-1.34-10.45-4.01c-2.45-2.67-3.67-6.45-3.67-11.32c0-4.81,1.38-8.57,4.14-11.28c2.76-2.72,6.56-4.07,11.4-4.07
		c3.11,0,6.07,0.6,8.85,1.8l-1.71,4.06c-2.42-1.12-4.84-1.67-7.26-1.67c-3.18,0-5.7,1-7.55,3c-1.85,2-2.77,4.74-2.77,8.21
		c0,3.65,0.83,6.42,2.5,8.32s4.06,2.85,7.19,2.85c1.58,0,3.26-0.2,5.06-0.59v-7.7h-6.18V17.99z"/>
	<path class="st9" d="M233.79,34.18h-16.87V4.33h16.87v4.12h-12v8.13h11.24v4.08H221.8v9.37h12V34.18z"/>
	<path class="st9" d="M265.09,34.18h-5.98l-14.67-23.79h-0.16l0.1,1.33c0.19,2.53,0.29,4.85,0.29,6.94v15.52h-4.43V4.33h5.92
		l14.63,23.67h0.12c-0.03-0.31-0.08-1.45-0.16-3.42c-0.08-1.97-0.12-3.5-0.12-4.6V4.33h4.47V34.18z"/>
	<path class="st9" d="M285.66,8.08c-2.8,0-5.01,0.99-6.61,2.98c-1.6,1.99-2.41,4.73-2.41,8.23c0,3.66,0.77,6.43,2.32,8.31
		c1.54,1.88,3.78,2.82,6.7,2.82c1.26,0,2.49-0.12,3.67-0.38c1.18-0.25,2.41-0.57,3.69-0.97v4.19c-2.34,0.88-4.99,1.33-7.96,1.33
		c-4.37,0-7.72-1.32-10.06-3.97c-2.34-2.65-3.51-6.44-3.51-11.36c0-3.1,0.57-5.82,1.7-8.15c1.14-2.33,2.78-4.11,4.93-5.35
		c2.15-1.24,4.67-1.86,7.57-1.86c3.05,0,5.86,0.64,8.45,1.92l-1.75,4.06c-1.01-0.48-2.07-0.9-3.19-1.26
		C288.07,8.26,286.89,8.08,285.66,8.08z"/>
	<path class="st9" d="M299.45,34.18V4.33h4.88v29.86H299.45z"/>
	<path class="st9" d="M330.7,34.18l-2.98-8.29h-11.4l-2.92,8.29h-5.14L319.42,4.2h5.3l11.16,29.98H330.7z M326.44,21.68l-2.79-8.13
		c-0.2-0.54-0.49-1.4-0.85-2.57s-0.61-2.03-0.74-2.57c-0.37,1.67-0.9,3.51-1.61,5.49l-2.69,7.78H326.44z"/>
</g>
<g>
	<path class="st9" d="M165.15,199.92c-0.89-0.7-2.17-1.05-3.85-1.05h-3.51v8.24h3.73c3.31,0,4.96-1.4,4.96-4.19
		C166.48,201.62,166.04,200.61,165.15,199.92z"/>
	<path class="st9" d="M164.51,190.17c0.83-0.63,1.25-1.56,1.25-2.79c0-2.2-1.66-3.3-4.99-3.3h-2.98v7.04h3.19
		C162.5,191.11,163.68,190.79,164.51,190.17z"/>
	<path class="st9" d="M201.02,187.24c-0.56-2.27-0.94-3.9-1.11-4.89c-0.16,0.91-0.48,2.42-0.95,4.51
		c-0.47,2.09-1.52,6.22-3.15,12.38h8.34l-1.69-6.44C202.06,191.37,201.59,189.51,201.02,187.24z"/>
	<path class="st9" d="M124.11,187.24c-0.56-2.27-0.94-3.9-1.11-4.89c-0.16,0.91-0.48,2.42-0.95,4.51
		c-0.47,2.09-1.52,6.22-3.15,12.38h8.34l-1.69-6.44C125.15,191.37,124.67,189.51,124.11,187.24z"/>
	<path class="st9" d="M82.8,184.07h-2.09v8.97h1.99c3.7,0,5.55-1.64,5.55-4.91C88.25,185.42,86.43,184.07,82.8,184.07z"/>
	<path class="st9" d="M14.33,157.68C6.42,157.68,0,164.1,0,172.01v63.11h336.57c7.91,0,14.33-6.42,14.33-14.33v-63.11H14.33z
		 M64.51,184.72h-9.55v30.59h-10.6v-30.59h-9.58v-8.67h29.73V184.72z M131.36,215.3l-1.93-7.36h-12.74l-1.99,7.36h-10.97h-0.67
		H91.71l-8.32-14.29h-2.68v14.29h-10.6v-39.26h12.85c10.66,0,15.99,3.87,15.99,11.6c0,4.55-2.22,8.07-6.65,10.55l10.98,16.43
		l12.58-38.74H130l12.96,39.42H131.36z M173.39,212.23c-2.67,2.05-6.32,3.07-10.93,3.07h-15.27v-39.26h13.68
		c5.33,0,9.29,0.79,11.87,2.38s3.88,4.05,3.88,7.4c0,2.2-0.56,4.08-1.69,5.64c-1.13,1.56-2.61,2.56-4.45,3.01v0.27
		c2.43,0.64,4.19,1.72,5.29,3.22c1.09,1.5,1.64,3.46,1.64,5.85C177.4,207.37,176.06,210.18,173.39,212.23z M206.35,207.94H193.6
		l-1.99,7.36h-11.64l12.8-39.42h14.14l12.96,39.42h-11.59L206.35,207.94z M234.97,211.46c0,5.32-1.16,9.34-3.49,12.07
		c-2.33,2.73-5.81,4.09-10.46,4.09c-1.93,0-3.77-0.19-5.5-0.56v-8.24c0.57,0.11,1.18,0.23,1.82,0.36c0.64,0.13,1.34,0.2,2.09,0.2
		c1.75,0,3-0.53,3.76-1.58s1.13-2.86,1.13-5.42v-36.33h10.65V211.46z M275.3,210.68c-3.24,3.44-7.98,5.16-14.22,5.16
		c-6.15,0-10.87-1.73-14.15-5.18s-4.92-8.49-4.92-15.09c0-6.53,1.63-11.52,4.9-14.97c3.26-3.45,8.01-5.17,14.23-5.17
		c6.24,0,10.97,1.71,14.19,5.13c3.22,3.42,4.83,8.44,4.83,15.06C280.15,202.22,278.53,207.25,275.3,210.68z M297.39,188.56
		c0.8,0.61,2.96,1.72,6.48,3.33c3.38,1.52,5.73,3.16,7.04,4.9c1.31,1.75,1.97,3.94,1.97,6.59c0,2.43-0.62,4.6-1.85,6.49
		c-1.23,1.89-3.01,3.36-5.34,4.4c-2.33,1.05-5.05,1.57-8.18,1.57c-2.61,0-4.8-0.18-6.57-0.55c-1.77-0.37-3.61-1.01-5.53-1.92v-9.45
		c2.02,1.04,4.12,1.85,6.3,2.43c2.18,0.58,4.19,0.87,6.01,0.87c1.57,0,2.73-0.27,3.46-0.82s1.1-1.25,1.1-2.11
		c0-0.54-0.15-1.01-0.44-1.41c-0.29-0.4-0.77-0.81-1.42-1.22c-0.65-0.41-2.39-1.25-5.22-2.52c-2.56-1.16-4.48-2.29-5.75-3.38
		c-1.28-1.09-2.23-2.35-2.84-3.76s-0.93-3.09-0.93-5.02c0-3.62,1.31-6.44,3.94-8.46c2.63-2.02,6.24-3.03,10.84-3.03
		c4.06,0,8.2,0.94,12.42,2.82l-3.25,8.19c-3.67-1.68-6.83-2.52-9.5-2.52c-1.38,0-2.38,0.24-3,0.73c-0.63,0.48-0.94,1.08-0.94,1.8
		C296.19,187.26,296.59,187.95,297.39,188.56z"/>
	<path class="st9" d="M261.13,184.13c-5.31,0-7.97,3.83-7.97,11.49c0,7.59,2.64,11.39,7.91,11.39c2.68,0,4.67-0.92,5.97-2.77
		s1.95-4.72,1.95-8.62c0-3.92-0.66-6.82-1.97-8.69C265.71,185.06,263.74,184.13,261.13,184.13z"/>
	<polygon class="st0" points="103.06,215.3 103.73,215.3 103.28,214.63 	"/>
</g>
<g>
	<polygon class="st9" points="51.16,129.56 35.02,139.49 35.02,119.64 	"/>
	<polygon class="st9" points="26.65,129.56 10.51,139.49 10.51,119.64 	"/>
	<polygon class="st9" points="299.74,129.56 315.88,139.49 315.88,119.64 	"/>
	<polygon class="st9" points="324.25,129.56 340.39,139.49 340.39,119.64 	"/>
</g>
</svg>
