<?xml version="1.0" encoding="utf-8"?>
<!-- Generator: Adobe Illustrator 24.0.1, SVG Export Plug-In . SVG Version: 6.00 Build 0)  -->
<svg version="1.1" id="Capa_1" xmlns="http://www.w3.org/2000/svg" xmlns:xlink="http://www.w3.org/1999/xlink" x="0px" y="0px"
	 viewBox="0 0 358.82 225.78" style="enable-background:new 0 0 358.82 225.78;" xml:space="preserve">
<style type="text/css">
	.st0{fill:#C00D0D;}
	.st1{opacity:0.73;}
	.st2{opacity:0.71;fill:url(#SVGID_3_);}
	.st3{opacity:0.71;fill:url(#SVGID_6_);}
	.st4{opacity:0.71;fill:url(#SVGID_9_);}
	.st5{opacity:0.71;fill:url(#SVGID_12_);}
	.st6{clip-path:url(#SVGID_14_);}
	.st7{clip-path:url(#SVGID_14_);fill:#C00D0D;}
	.st8{opacity:0.71;clip-path:url(#SVGID_14_);fill:url(#SVGID_15_);}
	.st9{fill:#FFFFFF;}
	.st10{fill:#3C3C3B;}
</style>
<g>
	<path class="st9" d="M37.08,58.15c0,4.4-1.37,7.76-4.12,10.09c-2.75,2.33-6.65,3.49-11.72,3.49h-3.71v14.54H8.87V45.4h13.04
		c4.95,0,8.72,1.07,11.3,3.2C35.79,50.74,37.08,53.92,37.08,58.15z M17.53,64.63h2.85c2.66,0,4.65-0.53,5.98-1.58
		c1.32-1.05,1.98-2.58,1.98-4.6c0-2.03-0.55-3.53-1.66-4.5s-2.84-1.45-5.21-1.45h-3.94V64.63z"/>
	<path class="st9" d="M53.44,70.59v15.68h-8.66V45.4h11.9c5.55,0,9.65,1.01,12.32,3.03c2.66,2.02,3.99,5.09,3.99,9.21
		c0,2.4-0.66,4.54-1.98,6.42c-1.32,1.87-3.19,3.34-5.61,4.4c6.14,9.19,10.15,15.12,12.01,17.81H67.8l-9.75-15.68H53.44z
		 M53.44,63.54h2.79c2.74,0,4.76-0.46,6.06-1.37c1.3-0.91,1.96-2.35,1.96-4.31c0-1.94-0.67-3.32-2-4.14s-3.39-1.23-6.19-1.23h-2.62
		V63.54z"/>
	<path class="st9" d="M119.61,65.78c0,6.76-1.68,11.96-5.03,15.6s-8.16,5.45-14.41,5.45s-11.06-1.82-14.41-5.45
		c-3.35-3.63-5.03-8.85-5.03-15.65c0-6.8,1.68-12,5.04-15.58c3.36-3.59,8.18-5.38,14.45-5.38s11.07,1.81,14.4,5.42
		S119.61,59,119.61,65.78z M89.81,65.78c0,4.57,0.87,8,2.6,10.32s4.32,3.47,7.76,3.47c6.91,0,10.36-4.59,10.36-13.78
		c0-9.21-3.43-13.81-10.31-13.81c-3.44,0-6.04,1.16-7.79,3.48C90.68,57.77,89.81,61.21,89.81,65.78z"/>
	<path class="st9" d="M161.94,65.44c0,6.73-1.91,11.88-5.74,15.46s-9.35,5.37-16.58,5.37h-11.56V45.4h12.82
		c6.67,0,11.84,1.76,15.53,5.28S161.94,59.13,161.94,65.44z M152.95,65.67c0-8.78-3.87-13.17-11.62-13.17h-4.61v26.61h3.71
		C148.78,79.11,152.95,74.63,152.95,65.67z"/>
	<path class="st9" d="M203.64,45.4v26.44c0,3.02-0.67,5.67-2.02,7.94c-1.35,2.27-3.3,4.02-5.85,5.23c-2.55,1.21-5.57,1.82-9.05,1.82
		c-5.25,0-9.33-1.35-12.23-4.04c-2.91-2.69-4.36-6.38-4.36-11.06V45.4h8.63v25.02c0,3.15,0.63,5.46,1.9,6.93
		c1.27,1.47,3.36,2.21,6.28,2.21c2.83,0,4.88-0.74,6.16-2.22c1.28-1.48,1.91-3.81,1.91-6.97V45.4H203.64z"/>
	<path class="st9" d="M230.98,52.03c-3.26,0-5.78,1.23-7.57,3.68c-1.79,2.45-2.68,5.87-2.68,10.25c0,9.11,3.42,13.67,10.25,13.67
		c2.87,0,6.34-0.72,10.42-2.15v7.27c-3.35,1.4-7.09,2.1-11.23,2.1c-5.94,0-10.48-1.8-13.63-5.41c-3.15-3.61-4.72-8.78-4.72-15.53
		c0-4.25,0.77-7.97,2.32-11.17c1.54-3.2,3.77-5.65,6.66-7.35c2.89-1.71,6.29-2.56,10.18-2.56c3.97,0,7.95,0.96,11.95,2.88
		l-2.79,7.04c-1.53-0.73-3.06-1.36-4.61-1.9C233.99,52.3,232.47,52.03,230.98,52.03z"/>
	<path class="st9" d="M265.83,86.27h-8.66V52.61h-11.09V45.4h30.83v7.21h-11.09V86.27z"/>
	<path class="st9" d="M320.27,65.78c0,6.76-1.68,11.96-5.03,15.6c-3.35,3.63-8.15,5.45-14.41,5.45s-11.06-1.82-14.41-5.45
		s-5.03-8.85-5.03-15.65c0-6.8,1.68-12,5.04-15.58c3.36-3.59,8.18-5.38,14.45-5.38s11.07,1.81,14.4,5.42S320.27,59,320.27,65.78z
		 M290.47,65.78c0,4.57,0.87,8,2.6,10.32c1.73,2.31,4.32,3.47,7.76,3.47c6.91,0,10.36-4.59,10.36-13.78
		c0-9.21-3.44-13.81-10.31-13.81c-3.44,0-6.04,1.16-7.79,3.48C291.34,57.77,290.47,61.21,290.47,65.78z"/>
	<path class="st9" d="M352.83,74.92c0,3.69-1.33,6.6-3.98,8.72c-2.65,2.12-6.34,3.19-11.07,3.19c-4.36,0-8.21-0.82-11.56-2.46v-8.05
		c2.76,1.23,5.09,2.1,7,2.6s3.65,0.75,5.24,0.75c1.9,0,3.36-0.36,4.37-1.09s1.52-1.81,1.52-3.24c0-0.8-0.22-1.51-0.67-2.14
		c-0.45-0.62-1.1-1.22-1.97-1.8c-0.87-0.58-2.63-1.5-5.29-2.77c-2.5-1.17-4.37-2.3-5.61-3.38c-1.25-1.08-2.24-2.34-2.99-3.77
		c-0.75-1.43-1.12-3.11-1.12-5.03c0-3.62,1.22-6.46,3.67-8.53s5.83-3.1,10.15-3.1c2.12,0,4.15,0.25,6.07,0.75
		c1.93,0.5,3.94,1.21,6.05,2.12l-2.79,6.74c-2.18-0.89-3.98-1.52-5.4-1.87c-1.42-0.35-2.83-0.53-4.2-0.53
		c-1.64,0-2.9,0.38-3.77,1.15c-0.88,0.76-1.31,1.76-1.31,2.99c0,0.76,0.18,1.43,0.53,2s0.92,1.12,1.69,1.65s2.6,1.49,5.49,2.87
		c3.82,1.83,6.43,3.66,7.85,5.49C352.12,70,352.83,72.25,352.83,74.92z"/>
</g>
<g>
	<path class="st9" d="M44.05,123.84c0,2.05-0.76,3.63-2.29,4.74s-3.66,1.67-6.42,1.67c-2.92,0-5.19-0.46-6.82-1.38v-3.09
		c1.06,0.54,2.19,0.96,3.4,1.27s2.38,0.46,3.5,0.46c1.74,0,3.08-0.28,4.01-0.83c0.94-0.55,1.4-1.4,1.4-2.54
		c0-0.86-0.37-1.59-1.11-2.2c-0.74-0.61-2.19-1.33-4.34-2.16c-2.05-0.76-3.5-1.43-4.36-2c-0.86-0.57-1.5-1.21-1.93-1.94
		s-0.63-1.59-0.63-2.59c0-1.79,0.73-3.21,2.19-4.25c1.46-1.04,3.46-1.56,6-1.56c2.37,0,4.68,0.48,6.94,1.45l-1.18,2.71
		c-2.21-0.91-4.21-1.37-6-1.37c-1.58,0-2.77,0.25-3.57,0.74c-0.8,0.5-1.2,1.18-1.2,2.05c0,0.59,0.15,1.09,0.45,1.51
		c0.3,0.42,0.79,0.81,1.46,1.18c0.67,0.38,1.95,0.92,3.85,1.63c2.61,0.95,4.37,1.91,5.29,2.87
		C43.59,121.17,44.05,122.38,44.05,123.84z"/>
	<path class="st9" d="M68.44,118.82c0,3.59-0.9,6.39-2.71,8.4c-1.8,2.01-4.3,3.02-7.48,3.02c-1.97,0-3.71-0.46-5.24-1.38
		c-1.52-0.92-2.7-2.25-3.53-3.98s-1.24-3.75-1.24-6.06c0-3.59,0.9-6.38,2.69-8.38s4.28-3,7.46-3c3.08,0,5.52,1.02,7.33,3.07
		C67.53,112.55,68.44,115.32,68.44,118.82z M51.69,118.82c0,2.81,0.56,4.95,1.69,6.42c1.12,1.47,2.77,2.21,4.95,2.21
		s3.83-0.73,4.96-2.2c1.13-1.47,1.69-3.61,1.69-6.43c0-2.8-0.56-4.92-1.69-6.37c-1.13-1.45-2.8-2.18-5-2.18
		c-2.18,0-3.82,0.72-4.93,2.15C52.24,113.84,51.69,115.98,51.69,118.82z"/>
	<path class="st9" d="M89.32,129.84V115.6c0-1.79-0.41-3.13-1.22-4.02c-0.82-0.88-2.09-1.33-3.83-1.33c-2.3,0-3.98,0.62-5.05,1.87
		s-1.6,3.3-1.6,6.16v11.54h-3.33v-22h2.71l0.54,3.01h0.16c0.68-1.08,1.64-1.92,2.87-2.52s2.6-0.89,4.11-0.89
		c2.65,0,4.64,0.64,5.98,1.92c1.34,1.28,2.01,3.32,2.01,6.13v14.36H89.32z"/>
	<path class="st9" d="M117.26,127.49c0.59,0,1.16-0.04,1.71-0.13c0.55-0.09,0.98-0.18,1.3-0.27v2.55c-0.36,0.17-0.89,0.32-1.59,0.43
		c-0.7,0.11-1.33,0.17-1.9,0.17c-4.25,0-6.38-2.24-6.38-6.73v-13.09h-3.15v-1.61l3.15-1.38l1.4-4.7h1.93v5.1h6.38v2.59h-6.38v12.95
		c0,1.33,0.31,2.34,0.94,3.05C115.3,127.14,116.16,127.49,117.26,127.49z"/>
	<path class="st9" d="M127.79,107.83v14.28c0,1.79,0.41,3.13,1.22,4.01c0.82,0.88,2.09,1.33,3.83,1.33c2.3,0,3.98-0.63,5.04-1.89
		c1.06-1.26,1.59-3.31,1.59-6.16v-11.56h3.33v22h-2.75l-0.48-2.95h-0.18c-0.68,1.08-1.63,1.91-2.84,2.49
		c-1.21,0.58-2.59,0.86-4.14,0.86c-2.67,0-4.68-0.64-6.01-1.91c-1.33-1.27-2-3.31-2-6.1v-14.4H127.79z"/>
	<path class="st9" d="M164.06,123.84c0,2.05-0.76,3.63-2.29,4.74s-3.66,1.67-6.42,1.67c-2.92,0-5.19-0.46-6.82-1.38v-3.09
		c1.06,0.54,2.19,0.96,3.4,1.27s2.38,0.46,3.5,0.46c1.74,0,3.08-0.28,4.01-0.83c0.94-0.55,1.4-1.4,1.4-2.54
		c0-0.86-0.37-1.59-1.11-2.2c-0.74-0.61-2.19-1.33-4.34-2.16c-2.05-0.76-3.5-1.43-4.36-2c-0.86-0.57-1.5-1.21-1.93-1.94
		s-0.63-1.59-0.63-2.59c0-1.79,0.73-3.21,2.19-4.25c1.46-1.04,3.46-1.56,6-1.56c2.37,0,4.68,0.48,6.94,1.45l-1.18,2.71
		c-2.21-0.91-4.21-1.37-6-1.37c-1.58,0-2.77,0.25-3.57,0.74c-0.8,0.5-1.2,1.18-1.2,2.05c0,0.59,0.15,1.09,0.45,1.51
		c0.3,0.42,0.79,0.81,1.46,1.18c0.67,0.38,1.95,0.92,3.85,1.63c2.61,0.95,4.37,1.91,5.29,2.87
		C163.6,121.17,164.06,122.38,164.06,123.84z"/>
	<path class="st9" d="M208.17,129.84v-14.32c0-1.75-0.37-3.07-1.12-3.95c-0.75-0.88-1.91-1.31-3.49-1.31c-2.07,0-3.6,0.6-4.59,1.79
		c-0.99,1.19-1.48,3.02-1.48,5.5v12.29h-3.33v-14.32c0-1.75-0.38-3.07-1.12-3.95c-0.75-0.88-1.92-1.31-3.51-1.31
		c-2.09,0-3.61,0.63-4.58,1.88c-0.97,1.25-1.46,3.3-1.46,6.15v11.54h-3.33v-22h2.71l0.54,3.01h0.16c0.63-1.07,1.51-1.91,2.66-2.51
		s2.42-0.9,3.84-0.9c3.44,0,5.68,1.25,6.74,3.73h0.16c0.66-1.15,1.61-2.06,2.85-2.73c1.24-0.67,2.66-1,4.25-1
		c2.49,0,4.35,0.64,5.59,1.92c1.24,1.28,1.86,3.32,1.86,6.13v14.36H208.17z"/>
	<path class="st9" d="M227.64,130.24c-3.25,0-5.81-0.99-7.69-2.97c-1.88-1.98-2.82-4.73-2.82-8.25c0-3.55,0.87-6.37,2.62-8.45
		s4.09-3.13,7.03-3.13c2.75,0,4.93,0.91,6.54,2.72c1.6,1.81,2.41,4.21,2.41,7.18v2.11h-15.14c0.07,2.58,0.72,4.54,1.96,5.88
		c1.24,1.34,2.98,2.01,5.23,2.01c2.37,0,4.71-0.5,7.02-1.49v2.97c-1.18,0.51-2.29,0.87-3.34,1.09S229.13,130.24,227.64,130.24z
		 M226.74,110.22c-1.77,0-3.17,0.58-4.22,1.73s-1.67,2.74-1.86,4.78h11.49c0-2.1-0.47-3.71-1.4-4.83
		C229.82,110.78,228.48,110.22,226.74,110.22z"/>
	<path class="st9" d="M238.74,139.72c-1.27,0-2.3-0.17-3.09-0.5v-2.71c0.92,0.27,1.83,0.4,2.73,0.4c1.04,0,1.81-0.28,2.3-0.85
		c0.49-0.57,0.73-1.44,0.73-2.6v-25.62h3.33v25.38C244.73,137.55,242.73,139.72,238.74,139.72z M241.12,101.87
		c0-0.76,0.19-1.32,0.56-1.68c0.37-0.35,0.84-0.53,1.4-0.53c0.53,0,1,0.18,1.38,0.54s0.58,0.92,0.58,1.67
		c0,0.75-0.19,1.31-0.58,1.68s-0.85,0.55-1.38,0.55c-0.56,0-1.03-0.18-1.4-0.55C241.31,103.18,241.12,102.62,241.12,101.87z"/>
	<path class="st9" d="M270.77,118.82c0,3.59-0.9,6.39-2.71,8.4c-1.81,2.01-4.3,3.02-7.48,3.02c-1.97,0-3.71-0.46-5.24-1.38
		c-1.52-0.92-2.7-2.25-3.53-3.98s-1.24-3.75-1.24-6.06c0-3.59,0.9-6.38,2.69-8.38s4.28-3,7.46-3c3.08,0,5.52,1.02,7.33,3.07
		C269.86,112.55,270.77,115.32,270.77,118.82z M254.02,118.82c0,2.81,0.56,4.95,1.68,6.42s2.77,2.21,4.96,2.21
		c2.18,0,3.83-0.73,4.96-2.2s1.7-3.61,1.7-6.43c0-2.8-0.57-4.92-1.7-6.37c-1.13-1.45-2.8-2.18-5-2.18c-2.18,0-3.82,0.72-4.93,2.15
		C254.58,113.84,254.02,115.98,254.02,118.82z"/>
	<path class="st9" d="M286.64,107.43c0.98,0,1.85,0.08,2.63,0.24l-0.46,3.09c-0.91-0.2-1.71-0.3-2.41-0.3
		c-1.78,0-3.3,0.72-4.56,2.17c-1.26,1.45-1.9,3.25-1.9,5.4v11.81h-3.33v-22h2.75l0.38,4.08h0.16c0.82-1.43,1.8-2.54,2.95-3.31
		C283.99,107.82,285.26,107.43,286.64,107.43z"/>
	<path class="st9" d="M302.66,130.24c-3.25,0-5.81-0.99-7.69-2.97c-1.88-1.98-2.82-4.73-2.82-8.25c0-3.55,0.87-6.37,2.62-8.45
		s4.09-3.13,7.03-3.13c2.75,0,4.93,0.91,6.54,2.72s2.41,4.21,2.41,7.18v2.11H295.6c0.07,2.58,0.72,4.54,1.96,5.88
		c1.24,1.34,2.98,2.01,5.23,2.01c2.37,0,4.71-0.5,7.02-1.49v2.97c-1.18,0.51-2.29,0.87-3.34,1.09S304.15,130.24,302.66,130.24z
		 M301.76,110.22c-1.76,0-3.17,0.58-4.22,1.73s-1.67,2.74-1.86,4.78h11.49c0-2.1-0.47-3.71-1.4-4.83
		C304.83,110.78,303.5,110.22,301.76,110.22z"/>
	<path class="st9" d="M330.6,123.84c0,2.05-0.76,3.63-2.29,4.74s-3.67,1.67-6.42,1.67c-2.92,0-5.19-0.46-6.82-1.38v-3.09
		c1.06,0.54,2.19,0.96,3.4,1.27c1.21,0.31,2.38,0.46,3.5,0.46c1.74,0,3.08-0.28,4.01-0.83c0.94-0.55,1.4-1.4,1.4-2.54
		c0-0.86-0.37-1.59-1.11-2.2c-0.74-0.61-2.19-1.33-4.34-2.16c-2.05-0.76-3.5-1.43-4.36-2c-0.86-0.57-1.5-1.21-1.92-1.94
		c-0.42-0.72-0.63-1.59-0.63-2.59c0-1.79,0.73-3.21,2.19-4.25c1.46-1.04,3.46-1.56,6-1.56c2.37,0,4.68,0.48,6.94,1.45l-1.18,2.71
		c-2.21-0.91-4.21-1.37-6-1.37c-1.58,0-2.77,0.25-3.57,0.74c-0.8,0.5-1.2,1.18-1.2,2.05c0,0.59,0.15,1.09,0.45,1.51
		c0.3,0.42,0.79,0.81,1.45,1.18c0.67,0.38,1.95,0.92,3.85,1.63c2.61,0.95,4.37,1.91,5.29,2.87
		C330.15,121.17,330.6,122.38,330.6,123.84z"/>
</g>
<g>
	<path class="st9" d="M98.29,31.01h-6.11l-15-24.33h-0.17l0.1,1.36c0.2,2.59,0.29,4.96,0.29,7.1v15.87h-4.53V0.48h6.05l14.96,24.2
		h0.12c-0.03-0.32-0.08-1.49-0.17-3.5c-0.08-2.01-0.12-3.58-0.12-4.71v-16h4.57V31.01z"/>
	<path class="st9" d="M130.25,0.48v19.76c0,2.25-0.48,4.23-1.45,5.92s-2.36,2.99-4.19,3.91c-1.83,0.91-4.02,1.37-6.56,1.37
		c-3.78,0-6.72-1-8.83-3.01s-3.15-4.76-3.15-8.27V0.48h5.01V19.8c0,2.52,0.58,4.38,1.75,5.58c1.17,1.2,2.96,1.8,5.38,1.8
		c4.7,0,7.05-2.47,7.05-7.41V0.48H130.25z"/>
	<path class="st9" d="M155.3,31.01h-17.25V0.48h17.25V4.7h-12.27v8.31h11.5v4.18h-11.5v9.58h12.27V31.01z"/>
	<path class="st9" d="M179.49,22.72c0,2.71-0.98,4.84-2.94,6.39c-1.96,1.54-4.67,2.32-8.12,2.32s-6.27-0.54-8.47-1.61V25.1
		c1.39,0.65,2.87,1.17,4.43,1.54c1.57,0.38,3.02,0.56,4.37,0.56c1.97,0,3.43-0.38,4.37-1.13s1.41-1.76,1.41-3.03
		c0-1.14-0.43-2.11-1.29-2.9c-0.86-0.79-2.64-1.73-5.34-2.82c-2.78-1.13-4.74-2.42-5.88-3.86c-1.14-1.45-1.71-3.19-1.71-5.22
		c0-2.55,0.9-4.55,2.71-6.01c1.81-1.46,4.24-2.19,7.28-2.19c2.92,0,5.83,0.64,8.72,1.92l-1.58,4.07c-2.71-1.14-5.13-1.71-7.26-1.71
		c-1.61,0-2.84,0.35-3.67,1.05c-0.83,0.7-1.25,1.63-1.25,2.79c0,0.79,0.17,1.47,0.5,2.04c0.33,0.56,0.88,1.1,1.65,1.6
		c0.76,0.5,2.14,1.16,4.13,1.98c2.24,0.93,3.88,1.8,4.92,2.61c1.04,0.81,1.81,1.72,2.3,2.74C179.24,20.14,179.49,21.34,179.49,22.72
		z"/>
	<path class="st9" d="M195.93,31.01h-4.99V4.76h-8.97V0.48h22.93v4.28h-8.97V31.01z"/>
	<path class="st9" d="M214.56,18.82v12.2h-4.99V0.48h8.62c3.94,0,6.85,0.74,8.74,2.21s2.84,3.7,2.84,6.68c0,3.8-1.98,6.51-5.93,8.12
		l8.62,13.51h-5.67l-7.3-12.2H214.56z M214.56,14.68h3.46c2.32,0,4.01-0.43,5.05-1.29s1.56-2.14,1.56-3.84
		c0-1.73-0.56-2.96-1.69-3.72c-1.13-0.75-2.82-1.13-5.09-1.13h-3.3V14.68z"/>
	<path class="st9" d="M263.96,15.7c0,4.97-1.24,8.83-3.72,11.59c-2.48,2.76-6,4.13-10.55,4.13c-4.6,0-8.14-1.37-10.61-4.1
		c-2.47-2.74-3.7-6.62-3.7-11.66c0-5.04,1.24-8.91,3.72-11.61c2.48-2.7,6.03-4.05,10.63-4.05c4.53,0,8.04,1.37,10.52,4.11
		C262.72,6.86,263.96,10.72,263.96,15.7z M240.68,15.7c0,3.76,0.76,6.61,2.27,8.55c1.52,1.94,3.76,2.91,6.74,2.91
		c2.96,0,5.2-0.96,6.71-2.88c1.51-1.92,2.26-4.78,2.26-8.58c0-3.74-0.75-6.58-2.24-8.52c-1.5-1.94-3.72-2.9-6.69-2.9
		c-2.99,0-5.25,0.97-6.77,2.9C241.44,9.12,240.68,11.96,240.68,15.7z"/>
	<path class="st9" d="M288.1,22.72c0,2.71-0.98,4.84-2.94,6.39c-1.96,1.54-4.67,2.32-8.12,2.32s-6.27-0.54-8.47-1.61V25.1
		c1.39,0.65,2.87,1.17,4.43,1.54c1.57,0.38,3.02,0.56,4.37,0.56c1.97,0,3.43-0.38,4.37-1.13s1.41-1.76,1.41-3.03
		c0-1.14-0.43-2.11-1.29-2.9c-0.86-0.79-2.64-1.73-5.34-2.82c-2.78-1.13-4.74-2.42-5.88-3.86c-1.14-1.45-1.71-3.19-1.71-5.22
		c0-2.55,0.9-4.55,2.71-6.01c1.81-1.46,4.24-2.19,7.28-2.19c2.92,0,5.83,0.64,8.72,1.92l-1.58,4.07c-2.71-1.14-5.13-1.71-7.26-1.71
		c-1.61,0-2.84,0.35-3.67,1.05c-0.83,0.7-1.25,1.63-1.25,2.79c0,0.79,0.17,1.47,0.5,2.04c0.33,0.56,0.88,1.1,1.65,1.6
		c0.76,0.5,2.14,1.16,4.13,1.98c2.24,0.93,3.88,1.8,4.92,2.61c1.04,0.81,1.81,1.72,2.3,2.74C287.86,20.14,288.1,21.34,288.1,22.72z"
		/>
</g>
<g>
	<path class="st9" d="M250.77,173.64c-5.43,0-8.15,3.92-8.15,11.75c0,7.76,2.7,11.64,8.09,11.64c2.74,0,4.78-0.94,6.1-2.83
		c1.33-1.88,1.99-4.82,1.99-8.81c0-4.01-0.67-6.97-2.02-8.88C255.45,174.6,253.44,173.64,250.77,173.64z"/>
	<path class="st9" d="M205.45,174.13h-3.15v22.49h2.41c3.29,0,5.71-0.96,7.24-2.87c1.54-1.91,2.3-4.84,2.3-8.77
		c0-3.68-0.73-6.41-2.18-8.18C210.62,175.02,208.41,174.13,205.45,174.13z"/>
	<path class="st9" d="M14.65,146.6C6.56,146.6,0,153.16,0,161.25v64.54h344.17c8.09,0,14.65-6.56,14.65-14.65V146.6H14.65z
		 M82.21,205.52L80.24,198H67.21l-2.03,7.52H53.27l13.09-40.31h14.46l13.25,40.31H82.21z M124.68,205.52H98.4v-40.15h10.84v31.39
		h15.45V205.52z M141.99,205.52H131.1v-40.15h10.89V205.52z M175.27,205.52l-1.98-7.52h-13.03l-2.03,7.52h-11.91l13.09-40.31h14.46
		l13.25,40.31H175.27z M219.97,200.08c-3.69,3.62-8.87,5.44-15.54,5.44h-12.98v-40.15h13.88c6.44,0,11.41,1.65,14.91,4.94
		s5.25,8.06,5.25,14.28C225.5,191.3,223.66,196.46,219.97,200.08z M265.25,200.8c-3.31,3.51-8.16,5.27-14.54,5.27
		c-6.29,0-11.12-1.77-14.47-5.3c-3.36-3.53-5.03-8.68-5.03-15.43c0-6.68,1.67-11.78,5.01-15.31c3.34-3.52,8.19-5.29,14.55-5.29
		c6.38,0,11.22,1.75,14.51,5.25c3.29,3.5,4.94,8.63,4.94,15.4C270.22,192.15,268.56,197.28,265.25,200.8z M287.85,178.17
		c0.81,0.62,3.02,1.76,6.63,3.41c3.46,1.56,5.86,3.23,7.2,5.01c1.34,1.78,2.02,4.03,2.02,6.74c0,2.49-0.63,4.7-1.89,6.63
		c-1.26,1.93-3.08,3.43-5.46,4.5s-5.17,1.61-8.37,1.61c-2.67,0-4.91-0.19-6.72-0.56s-3.69-1.03-5.65-1.96v-9.67
		c2.07,1.06,4.22,1.89,6.45,2.49s4.28,0.89,6.15,0.89c1.61,0,2.79-0.28,3.54-0.84c0.75-0.56,1.12-1.28,1.12-2.16
		c0-0.55-0.15-1.03-0.45-1.44c-0.3-0.41-0.79-0.83-1.45-1.25c-0.67-0.42-2.45-1.28-5.34-2.58c-2.62-1.19-4.58-2.34-5.88-3.46
		c-1.31-1.12-2.28-2.4-2.91-3.84c-0.63-1.45-0.95-3.16-0.95-5.13c0-3.7,1.34-6.58,4.03-8.65c2.69-2.07,6.38-3.1,11.08-3.1
		c4.15,0,8.39,0.96,12.7,2.88l-3.32,8.38c-3.75-1.72-6.99-2.58-9.71-2.58c-1.41,0-2.43,0.25-3.07,0.74
		c-0.64,0.49-0.96,1.11-0.96,1.84C286.62,176.84,287.03,177.55,287.85,178.17z"/>
	<path class="st9" d="M167.85,176.82c-0.58-2.32-0.96-3.99-1.14-5c-0.16,0.93-0.49,2.47-0.97,4.61c-0.49,2.14-1.56,6.36-3.22,12.66
		h8.53l-1.73-6.59C168.91,181.04,168.42,179.15,167.85,176.82z"/>
	<path class="st9" d="M74.79,176.82c-0.58-2.32-0.96-3.99-1.14-5c-0.17,0.93-0.49,2.47-0.97,4.61c-0.48,2.14-1.56,6.36-3.22,12.66
		h8.53l-1.73-6.59C75.86,181.04,75.37,179.15,74.79,176.82z"/>
</g>
<g>
	<polygon class="st9" points="17.59,122.51 1.09,132.66 1.09,112.36 	"/>
	<polygon class="st9" points="338.42,122.51 354.92,132.66 354.92,112.36 	"/>
</g>
</svg>
